<?xml version="1.0" encoding="UTF-8" standalone="no"?>
<!-- Created with Inkscape (http://www.inkscape.org/) -->

<svg
   xmlns:dc="http://purl.org/dc/elements/1.1/"
   xmlns:cc="http://creativecommons.org/ns#"
   xmlns:rdf="http://www.w3.org/1999/02/22-rdf-syntax-ns#"
   xmlns:svg="http://www.w3.org/2000/svg"
   xmlns="http://www.w3.org/2000/svg"
   xmlns:sodipodi="http://sodipodi.sourceforge.net/DTD/sodipodi-0.dtd"
   xmlns:inkscape="http://www.inkscape.org/namespaces/inkscape"
   width="130"
   height="130"
   viewBox="0 0 34.395833 34.395834"
   version="1.1"
   id="svg2014"
   inkscape:version="0.92.4 (5da689c313, 2019-01-14)"
   sodipodi:docname="app-icon.svg">
  <defs
     id="defs2008" />
  <sodipodi:namedview
     id="base"
     pagecolor="#ffffff"
     bordercolor="#666666"
     borderopacity="1.0"
     inkscape:pageopacity="0.0"
     inkscape:pageshadow="2"
     inkscape:zoom="5.6"
     inkscape:cx="17.929228"
     inkscape:cy="84.83627"
     inkscape:document-units="mm"
     inkscape:current-layer="layer1"
     showgrid="false"
     units="px"
     inkscape:window-width="2560"
     inkscape:window-height="1387"
     inkscape:window-x="-8"
     inkscape:window-y="-8"
     inkscape:window-maximized="1" />
  <metadata
     id="metadata2011">
    <rdf:RDF>
      <cc:Work
         rdf:about="">
        <dc:format>image/svg+xml</dc:format>
        <dc:type
           rdf:resource="http://purl.org/dc/dcmitype/StillImage" />
        <dc:title></dc:title>
      </cc:Work>
    </rdf:RDF>
  </metadata>
  <g
     inkscape:label="Calque 1"
     inkscape:groupmode="layer"
     id="layer1"
     transform="translate(0,-262.60415)">
    <rect
       y="262.60416"
       width="34.395832"
       height="34.395832"
       x="6.357829e-07"
       id="rect2"
       style="fill:#d9742b;fill-opacity:1;stroke-width:0.26458332" />
    <g
       id="g886"
       transform="matrix(0.23644496,0,0,0.23644496,5.4105443,261.93014)"
       style="fill:#ffffff">
      <path
         id="path880"
         d="m 49.846,90.064 c -7.042,0 -12.904,-5.028 -14.204,-11.689 H -0.001 c 1.447,26.281 23.213,47.147 49.853,47.147 26.644,0 48.407,-20.866 49.854,-47.147 H 64.048 c -1.299,6.661 -7.16,11.689 -14.202,11.689 z"
         inkscape:connector-curvature="0" />
      <circle
         id="circle882"
         r="10.341"
         cy="50.587002"
         cx="49.853001"
         transform="translate(0,25)" />
      <path
         id="path884"
         d="m 49.853,25.65 c -26.64,0 -48.407,20.866 -49.854,47.148 h 35.643 c 1.3,-6.66 7.164,-11.689 14.205,-11.689 7.042,0 12.901,5.029 14.201,11.69 H 99.706 C 98.26,46.515 76.497,25.65 49.852,25.65 Z m -8.482,8.852 c 3.09,0 5.43,1.189 6.978,3.565 l 1.504,2.521 1.504,-2.521 c 1.547,-2.376 3.888,-3.565 6.978,-3.565 2.671,0 4.822,0.938 6.465,2.77 1.593,1.831 2.387,4.308 2.387,7.423 v 15.242 h -6.04 V 45.142 c 0,-3.118 -1.312,-4.7 -3.937,-4.7 -2.902,0 -4.355,1.876 -4.355,5.589 v 8.098 H 46.85 V 46.03 c 0,-3.713 -1.454,-5.59 -4.356,-5.59 -2.624,0 -3.937,1.583 -3.937,4.701 v 14.795 h -6.04 V 44.695 c 0,-3.115 0.794,-5.592 2.388,-7.423 1.643,-1.832 3.793,-2.77 6.464,-2.77 z"
         inkscape:connector-curvature="0" />
    </g>
  </g>
</svg>
