<svg xmlns="http://www.w3.org/2000/svg" width="285" height="134"><path d="M25 120C32.9 32.2 130.5 16.5 143.8 18c13.2 1.5 91.4 23.5 71.4 102z" fill="#8dc4cd"/><path d="M73 41.2c30-1 34.8 1 38.2 28.8a3198 3198 0 0 1 5.1 44.6l99 1c.9-37.8-4.6-71.8-31.8-77.6-27.2-5.8-104.1-6.7-104.1-6.7z" fill="#74a2ae"/><path d="M114.7 45.3c-20.1-.4-18.4 22-18.4 24.8 0 2.8-1 19.5 26.4 18s54.3 0 54.3 0c9-8.5 17.8-25 1.5-40.7-24.5-.6-63.8-2.1-63.8-2.1z" fill="#fff"/><path d="M225.6 120l6.5 13.3 18.5.8 13.6-6.1-1.8-17.6L247 96.9l-19.4.8-6.3 3-8.2 4-9.7 8.6-10.6-4.3-.5-8.2-5.5-2.5-9.6-2.7-4.2-12.9 4.2-9.8-.2-22.7 6.3-8.3 17.1-1.2L230 45l14.9-.7 21-10.1 10.4-12.5-21.5-9.4-53 9.3-24.4-.3-10-6.5-19.3-4.6-31.7.5-17 5.7-4.7 3.7-27.5-3.5L34.9 5.4 21.5 3 5.8 8.6l-3.6 2.6 2.6 6.7 9.3 7 18.8 7.3 72.2-.8 10.6 6.9 11.5 15.2-2.1 28.4v24.4l6.7 10.6 1.2 3.1z" fill="#5e6b6d"/><path d="M280 63.1c-.7.1-1.6 2.6-1.9 4.6l-1.3 3.3L257 84.5l-15.6 3.8-37.9 3.6-3.6 9.2-.4 10 5.7 2.2 7.8-8.5 15.7-6.2L249 98l14.2 16v4.1h3.2l14.4-33.9s.5-17-.1-20c-.2-.8-.4-1.1-.7-1zM36.5 74.6c-.7 0-1.3.1-1.8.5-5.1 4.3 5 37.9 5 37.9l5.3 7h60.2l-4.7-25.8-29.9-.3L39.2 76c-.5-1-1.6-1.5-2.7-1.5z" fill="#e9e9e4"/><path d="M105.7 120l.5-10.4 20-3.4L133 120zM1.3 11.5C26 27 57.6 23 68.3 32.5c-3.8.7-60.6 0-67-21z" fill="#8e1f2f"/><path d="M171.4 120c8.2-11.7 13-14.4 22.6-11a48.8 48.8 0 0 1 10.7 4.6l-.9 6.4zm-2.1-20.6l.3-2.6a30.4 30.4 0 0 1-17-2.2c10.4-2.8 19.8-7.8 19.8-7.8l4 10.7zm-4.9-10.8l9.6-3 1-20.8-.4-14.3s7.1-17.2 29.3-8.8C226 50.2 265 42 272.8 26a64.1 64.1 0 0 0-29.6-1.4c-9.5 1.2-31.5 9.5-36 9.6-11.4.4-28.9-11.4-28.9-11.4s-1 3.3-3.3 7c-6.5-4.2-15.8-7.6-20.8-2.2 6.7 1 9.7 5.8 13.5 12.3-10.2 11.2-7.5 23.3-3.7 28.3 3.7 3.7 4.6 12.7.4 20.4z" fill="#505d63"/><path d="M239.6 134.3a24.1 24.1 0 0 1-4-.6l-3.9-1-1.1-1-.2-.5-.8-2.1c-.2-1-1-2.7-2.3-4.2l-.4-.6a15 15 0 0 0-3.6-5c-1.2-1.2-1.3-1.4-.8-2 .8-.9 2.6-1 4.3-.3 1.1.5 2.4 1.5 3 2.3.7.8 1.9 3.4 2.3 4.5.4 1 .4 1 .4 2.5 0 1.3 0 1.7-.2 2v.6l1 .2c.6 0 1.8.3 2.6.5 2.8.7 3.6.8 7.4.8 2.9 0 3.5 0 4.8-.3a75.2 75.2 0 0 0 10.2-2.2l3.8-1.5c.2-.2.3-.4.3-2.1 0-1.8 0-2.6-.5-4.8a24.5 24.5 0 0 0-15-19 14 14 0 0 0-6-1.4c-5-.2-9.9 1-13.6 3.5a40.8 40.8 0 0 0-7 6 57 57 0 0 0-9.3 11c-.1.2-.5.2-1.1.2-1 0-1 0-.9-.3.2-1.2 1.7-4.8 2.8-6.9a57.2 57.2 0 0 1 7.3-10s-.3 0-.4.2c-.2 0-1.2.8-2.3 1.5-3.1 2-5.2 4-7.2 6.5a21 21 0 0 0-3.5 6.4l-1 2.5c-.2.1-4 .2-4 0-.1 0 .5-2.1 1-3.3l.3-1-1.2-.4a78.7 78.7 0 0 1-7.8-2.7l-.9.6a25.3 25.3 0 0 1-9.3 4.3l-5.6 2-1.4.6h-6.5c0-.1 1-1 2.5-2 1.9-1.3 3.5-2 9.1-3.6 4.4-1.3 4.9-1.5 6.8-2.4 1.5-.8 1.7-.9 1.7-1.2 0-.2.1-.3.7-.6 1.3-.7 1.8-1.8 1.8-4.2 0-1.1 0-1.4-.3-2-.4-.8-1.1-1.7-3.1-3.8l-1.7-1.7-1.2-.1a28 28 0 0 0-9.4.6c-.2 0-2.3.3-3.7.7a63 63 0 0 0-5.4 2c-1.2.6-5.8 3.2-6.7 3.9-1.2.8-3.3 3-4 4.1a81 81 0 0 0-2.9 5.2c-.2.6-.2.7 0 1l1.9 2.1c1 1 1.9 2.2 1.8 2.2h-6l-.6-1.5c-.7-1.7-1-2.7-1.2-3.9l-.2-1 1-1.9 1.9-3.5a18.3 18.3 0 0 1 7.2-6.7 52.9 52.9 0 0 1 15.4-4.7c.1 0 0-.4-.5-1.4a30.6 30.6 0 0 1-2.5-6.4 29 29 0 0 1-12.2 5 58 58 0 0 1-26.4-1.4c-1.6-.8-2.5-2-3.3-4.5a21.3 21.3 0 0 1-.7-10.6 26 26 0 0 1 1.7-4.9 6 6 0 0 0 .7-2c.2-1 .6-1.9 1.4-3a5 5 0 0 1 2.5-1.7c1.6-.6 2-.7 6-.6l9 .5a58 58 0 0 0 11.5.1c2.8-.5 10-2.2 10.3-2.5v-2.8a28 28 0 0 1 2.4-14.7 15.8 15.8 0 0 1 15.5-8.6c4.8 0 8.7.5 15.6 2 10.3 2.2 16.5 3.2 22.7 3.6a61 61 0 0 0 19-1.3c1.4-.3 2-.5 3.1-1.1a181.2 181.2 0 0 1 11.3-5.3l1-1.2c.5-.7 1.1-1.2 2.5-2.2 2-1.5 4.5-4 6.7-6.7 1.2-1.5 1.8-2 2.5-2.4.5-.2.5-.5 0-.6l-2.5-1.2a46.4 46.4 0 0 0-6-2.6 47.3 47.3 0 0 0-26.8-2.5c-8.7 1.2-12.3 2-21.7 4.5a120.3 120.3 0 0 1-24.9 5 24.6 24.6 0 0 1-13.5-2.1l.2 1.3c.2.5.2 1 .2 2 0 1.3-.1 1.6-.4 2.4-.6 1.5-1.4 2.7-2.8 4l-1.2 1.3.1.4c.4.7.2 1.3-.4 1.6a9 9 0 0 1-4 0l-7-2a88.4 88.4 0 0 0-11.3-2.8 45.1 45.1 0 0 0-12.4.4c-9 1.2-10.1 1.1-14-1.4a49.5 49.5 0 0 1-7.5-7.3l-.8-1.7-.4-1h-.9c-.8 0-1.4-.2-1.4-.5 0-.2.5-.8 1.2-1.5s1.4-1.6 1.5-1.9l1-1.4c.6-.6.7-1 .7-1.1 0-.2 0-.4.3-.7.4-.5.6-.7.4-.7a70.7 70.7 0 0 0-18.4 5.4c0 .2.1.2 2.4.3l2.3.1a125.4 125.4 0 0 1-14 3.5 19 19 0 0 1-6.8.1A134.8 134.8 0 0 1 47 12.4a86.7 86.7 0 0 0-16.4-5 33 33 0 0 0-10.2 0 37 37 0 0 0-8.7 2.8L8 11.6c-1 .3-3.4.8-4.1.8l-.5.2c-.2.1.1.4 1.3 1.6a9 9 0 0 1 2.4 3.1l1.2 2a63 63 0 0 0 24 9A148 148 0 0 0 51 30.4a92 92 0 0 0 12.4.4l-.7-.3a631 631 0 0 1-7.3-2.6 115 115 0 0 0-10.1-2 108.5 108.5 0 0 1-31.6-8c-2.4-.8-4.6-1.7-5.7-2.3-1.1-.6-3-1.8-3-2a62 62 0 0 0 7.7 3c8 2.6 9.6 3 13.5 4.1a147 147 0 0 0 18.4 3.6c7.7 1 11.3 1.8 15.4 3.4 5 1.8 6.2 2.3 7.5 2.6a6 6 0 0 0 2.9.3c3.8-.2 12.4-1.2 20.8-2.5 5.2-.8 8-1 10.7-.8 3 .2 5.6.8 7.4 1.5 3.3 1.4 6.4 3.9 9.4 7.6l2.5 3c1.2 1.5 3.4 4.5 4.5 6.2 2.4 3.8 3.4 6.2 3.9 9a50 50 0 0 1-1 20c-1.5 8-1.8 9.8-2 13.9-.4 5.2.5 12 2 16.7 1.3 3.6 2.9 6.8 5.7 11.2l2 3.6h-6.5l-1-1.4-1.2-2a44.3 44.3 0 0 1-3.8-7.8c-.2-.6-.3-.7-.8-.3-1.7 1.5-5.2 1.7-8.7.4-.7-.2-.8-.2-1.8 0a8 8 0 0 0-3.3 1.3l-.5.4v4.2c0 1.7.1 3.6-.2 5.2H103v-4a53.3 53.3 0 0 0-3.6-20.3l-1.4.5a51.3 51.3 0 0 1-22 2c-4.7-.8-11.4-3-16.3-5.4a49 49 0 0 1-21-17c-.2-.1.2-1.3.3-1.4l1.2-2a89 89 0 0 1 9.6-14.6l2.5-3.5a26 26 0 0 1 3.9-5.1 80.8 80.8 0 0 1 17-13A160.8 160.8 0 0 1 32 33.4c-5.1-1-8.3-2-12.1-3.5A38 38 0 0 1 3.4 18.4 15 15 0 0 1 1 12.8c-.5-1.8-.4-2 1-3.3a15 15 0 0 1 6-3.6 37 37 0 0 1 17.7-4.2c3.9 0 4.8.1 8.5 1 4.7 1 9.7 2.6 16.4 5.4a138.2 138.2 0 0 0 43.3 10 29 29 0 0 1 2-.3h1l.5-.8c1-1.4 2-2.2 4.8-3.5a54.8 54.8 0 0 1 20.5-3.8c2.8 0 3 0 5-.4a65.9 65.9 0 0 1 28.6.3c1 0 2.2.3 4.2 1l2.8.6c2.9.3 4.6 1 9.1 3.5a8 8 0 0 1 2.8 2l1.1 1.1c.3.2 1.5.5 4.1 1l4 .6a46.5 46.5 0 0 0 14.8-.5c3.5-.5 9.4-2 17.5-4.2 10-2.7 14-3.4 25.8-5 2-.3 7.3-.4 9.5-.2 7 .6 12 1.7 15.6 3.5 3.1 1.5 6.7 4.6 8.4 7 1 1.5 1 2.2.4 2.4-.2.1-.3.4-.5 1.2-.4 1.6-1.3 3-4 6.3l-1 1.4c-.4.6-2 2.3-3 3l-1.8 1.5c-2 1.7-6 4-8.7 5.4a60.5 60.5 0 0 1-28.4 6.2 114.7 114.7 0 0 1-27-3.3c-.4 0-.3.4.6 1.4a66.6 66.6 0 0 1 16.5 44 119 119 0 0 0 36.7-7.8A59.3 59.3 0 0 0 276.3 69c1-1 1.4-1.6 1.6-2.3.1-.4.4-.4.6.1.3.7.2 1.5-.5 2.8A42.8 42.8 0 0 1 260.1 85a84.7 84.7 0 0 1-18.8 6.8c-2.3.7-6.1 1.3-13.3 2.1a86 86 0 0 1-24.3.6c-.1 0-.3.3-.3.6l-.5 1.5a30 30 0 0 0-1 6.5 199.7 199.7 0 0 1-.5 6c.1.2 2.7 1 3.2 1 .2 0 .4-.3 1.1-1.2 1.7-2.2 4.3-4.4 6.4-5.5a32 32 0 0 1 8.1-2.6l1-.1 1.3-1a25.8 25.8 0 0 1 33.3-.3 30 30 0 0 1 9 13.1l.7 1.3A138.8 138.8 0 0 0 278 88.4l.7-4.5 1.2-7a36.1 36.1 0 0 0 1-13c.5 0 1.3 1.7 1.9 3.8.3 1 .3 1.4.3 3 0 1.3 0 2.3-.2 3-.2.7-.2 1.1-.1 1.2.2.2.1.8-.6 6a86.8 86.8 0 0 1-13.2 37.4l-1.1 1.7h-1.4v1.7l.1 3.3c0 2 0 2.4-.9 3.3-.4.4-.6.5-1.3.8l-1.3.6-1.7.7-.8.3a508.8 508.8 0 0 0-7.6 2.2 22.5 22.5 0 0 1-6.5 1.2l-3 .1a52.2 52.2 0 0 0-3.9 0zm-41.5-26.4c.1-.3.5-1.6 1.4-5.8a68.5 68.5 0 0 1 4.4-11.8l.4-1 1.4.1 5 .1h3.7v-1c0-1.2-.6-6-1-8.6a60 60 0 0 0-4.2-14.2 73.7 73.7 0 0 0-12.3-19.4c-3-3.6-2.5-3.2-3.8-3.3h-5.7c-1.2.2-3 .7-3.9 1.3-.9.5-2.3 1.8-2.5 2.1-.2.3-.1.4.8 1.3 2.6 2.6 4.6 6.2 6 10.6 1 3.2 1.4 5.1 1.5 8.5.1 5.9-.9 10.2-3.5 14.8-1.2 2.2-3 4.4-5 5.8A5.7 5.7 0 0 1 178 89c-.5 0-.8.2-.8.3 0 .7 3.1 6 4.3 7.2.3.4.5.4 1.1.5l2.1.4c1.3.3 1.4.3 1.6.1.3-.3.4-.2 1.8.1 2.8.8 4.6 2 5.8 3.8a6 6 0 0 1 1 3.9l.3 1.8 2.7 1 .2-.1zm-88-1.7c.8-.4 3-.2 4.5.4.6.2.9.3 2 .3a38 38 0 0 0 6.3-.6l-.2-1.2a57 57 0 0 1-2-14.9l-1 .1c-1.5.4-3.4.7-5.2.9a21 21 0 0 1-13-3.4 19.4 19.4 0 0 1-8.1-14c-.2-1.6-.2-6 0-7.7a31.2 31.2 0 0 1 8-16.9 19 19 0 0 1 16.1-5.8c0-.2-2.4-3.2-3.9-4.8a19.6 19.6 0 0 0-5.3-4.2c-1.2-.7-2.2-1-4-1.3-1.3-.2-1.9-.3-4.4-.3-2.6 0-3.2 0-5.3.4-6.3 1-8 1.2-8.6 1.2-.5 0-.7.2-1.9 1-1.7 1.1-6.6 4.7-7 5.1-.3.3-1.1 1.8-2.7 4.8-2.6 4.7-5.1 9-6.5 11-2 3-3.6 6-4.4 8.2-.5 1.2-.5.6-.3-3.3a24.6 24.6 0 0 1 4-13.2c0-.3-.4 0-.9.4L63 52.5c-8 10-10.3 13-13 16.9-2.1 3.3-5.6 9-5.6 9.2a74.5 74.5 0 0 0 16.4 8.8c8.3 3.3 10.5 4.1 13.5 4.9 3.5.9 7 1.2 10.8 1.1 2.8 0 3.8-.2 8-.8l7-.8c.7 0 .9 0 1.6.3l1.6 1.3c2.1 2.2 3.2 5 4.4 11.2l.6 3c0 .1.3 0 .7-.5a5 5 0 0 1 1.1-.9zm28.5-15.7c2.4-.3 2.8-.3 7.8-.4a51.1 51.1 0 0 0 19.8-3.4 13 13 0 0 1 3.5-1l.8-.1.7-2.2c.1-1 .4-1.7 1-2l.3-.5c0-.2-.3-.1-1 0-.3.2-.2 0 .4-.7.7-.8 1-1.2 1.5-3 .6-2 .7-2.6.6-5.2-.1-1.8-.2-2.4-.4-3.1l-.4-1-1.3.5a67 67 0 0 1-9.6 2.6c-1.7.3-6 .4-8.3.2a253 253 0 0 1-13.7-2c-3.4-.6-4.6-.5-5.8.3-.5.3-.6.5-1 1.4-.8 2.3-1.4 8-1.2 10.5.3 2 1 5.1 1.7 6.4a13 13 0 0 0 2 3.1l2.6-.4zm39-5.7c2.8-2.5 3.9-4 5-6.3 1-2 1.7-4.1 2.1-7.2a40 40 0 0 0 0-8 35.1 35.1 0 0 0-5.6-13.2c-.3 0-.7 1.3-1 3-.1.8-.2 1.8-.2 4.2v3l.5.7c2.2 2.8 3 8.2 1.8 12.8a8 8 0 0 1-3 4.7c-.6.6-.7.6-1 1.7l-1 2.2-.5 1 .3.8 1 2.1 1.7-1.5zm-61 .7a42 42 0 0 0 4.5-.9 115.8 115.8 0 0 1 1.8-8.9c1.4-7 1.8-9.5 2-13 0-3.5-.4-7.5-1.1-9.4-.4-1-1.5-3.2-2-3.9-.3-.4-2-1.3-3.5-1.8a12 12 0 0 0-7 .1 13 13 0 0 0-5.7 3.7 26.3 26.3 0 0 0-7 18c0 3.8.5 6.2 1.8 8.9s3 4.5 5.5 5.8a17 17 0 0 0 10.6 1.4zm-5.6-6.2c-1.3-.3-2.4-1.4-3.3-3a17.6 17.6 0 0 1-1.1-9.4c.2-2 .3-2.7.7-4.2.7-2 1.6-3.5 2.6-4 .5-.3 2-.3 2.5 0 1 .6 2.1 2.4 3 5.3 1 2.6 1 3.3 1 6.2 0 4.2-.6 6.6-2.2 8.2-.7.8-2.1 1.2-3.2 1zm62.7-47.6l1-1.8c1-1.5 1.2-2.3 1-3.7-.3-2-2-5.8-3-7l-.5-.5-3.7-.9c-2.1-.5-4.6-1-5.6-1.4-1.8-.4-7.2-1.6-10-2a71.7 71.7 0 0 0-23.9-.2l-3 .4-1.1.2-.7 1-1.6 2c-1.2 1.2-1.7 2-1.6 2.5.2.8 2 2.7 4.8 5.2 1.3 1.1 1.8 1.5 3 2.1 1.3.6 2.3.7 4.5.3l10.4-1.8c1.8-.2 4.9-.1 6.6 0a75 75 0 0 1 13.3 3.3l8.7 3c1 .3 1 .3 1.4-.7zM21.7 120l1-5.3a133 133 0 0 1 7.2-20.5l.8-1.9-.2-1c-.7-3.5-.6-6.2.4-10 1-3.9 2-5.9 3.4-6.7.7-.4 1.3-.5 1.6-.1.3.3.2.6-.1 2-.4 1.4-.6 3.5-.6 6.5a57 57 0 0 0 5.4 22.4 84.2 84.2 0 0 0 6.9 14.6h-4.2a83.3 83.3 0 0 1-9.6-17.2 150 150 0 0 0-5.3 17.2h-6.8z" fill="#020202"/><path d="M259.3 106.5a97.4 97.4 0 0 0 21.3-19l-12.2 26.7-3.5 2.7zm-59.7 4.5l5.6.9 11.5-9.4 15.9-4 3.5-7.6-32.5 1-3.8 11.9zm-119.2 9c1.5-2.3 3.7-5 13.3-7.2 1.3-9.9 3.9-17.7 6.6-19.1 4.1 4 5.4 26.3 5.4 26.3z" fill-opacity=".1"/></svg>