<?xml version="1.0" encoding="UTF-8" standalone="no"?>
<svg
   width="261"
   height="66"
   viewBox="0 0 261 66"
   fill="none"
   version="1.1"
   id="svg4"
   sodipodi:docname="logo-symbol-wordmark.svg"
   inkscape:version="1.3.2 (091e20ef0f, 2023-11-25, custom)"
   xmlns:inkscape="http://www.inkscape.org/namespaces/inkscape"
   xmlns:sodipodi="http://sodipodi.sourceforge.net/DTD/sodipodi-0.dtd"
   xmlns:xlink="http://www.w3.org/1999/xlink"
   xmlns="http://www.w3.org/2000/svg"
   xmlns:svg="http://www.w3.org/2000/svg">
  <defs
     id="defs5" />
  <sodipodi:namedview
     id="namedview4"
     pagecolor="#ffffff"
     bordercolor="#000000"
     borderopacity="0.25"
     inkscape:showpageshadow="2"
     inkscape:pageopacity="0.0"
     inkscape:pagecheckerboard="0"
     inkscape:deskcolor="#d1d1d1"
     inkscape:zoom="2.9425287"
     inkscape:cx="118.26562"
     inkscape:cy="32.964844"
     inkscape:window-width="1536"
     inkscape:window-height="806"
     inkscape:window-x="0"
     inkscape:window-y="0"
     inkscape:window-maximized="1"
     inkscape:current-layer="svg4" />
  <symbol
     id="logo-symbol-wordmark">
    <path
       d="m 4.046104,14.4034 c 0.9396,-6.98398 7.0266,-12.48783 14.2422,-13.554334 1.2174,-0.180212 5.8298,-0.8360655 16.5144,-0.8360655 h 0.0798 c 10.6876,0 12.9805,0.6558535 14.1979,0.8360655 7.01472,1.036954 13.42075,5.982454 14.974983,13.049134 0.747567,3.4802 0.827347,7.3385 0.688471,10.8777 -0.197973,5.0755 -0.236385,10.1421 -0.697336,15.1969 -0.318668,3.3577 -0.874578,6.6886 -1.663558,9.9678 -1.47741,6.0563 -7.45795,11.0963 -13.31736,13.1525 -6.2733,2.1443 -13.0198,2.5003 -19.484,1.0281 -0.7111,-0.1654 -1.4134,-0.3574 -2.1068,-0.5761 -1.5719,-0.4992 -3.4128,-1.0576 -4.7661,-2.0384 -0.0186,-0.0138 -0.0338,-0.0316 -0.0445,-0.052 -0.0108,-0.0205 -0.0168,-0.0431 -0.0176,-0.0662 v -4.8982 c 4e-4,-0.0216 0.0055,-0.0428 0.0151,-0.0622 0.0096,-0.0193 0.0234,-0.0363 0.0404,-0.0496 0.017,-0.0133 0.0368,-0.0226 0.0579,-0.0273 0.021,-0.0047 0.0429,-0.0046 0.0639,2e-4 4.1416,0.9892 8.3856,1.485 12.6437,1.4772 7.3279,0 9.2988,-3.4772 9.8631,-4.9248 0.4537,-1.2511 0.7418,-2.5562 0.8569,-3.882 0.0012,-0.0222 -0.0029,-0.0445 -0.0119,-0.0649 -0.009,-0.0203 -0.0227,-0.0383 -0.04,-0.0524 -0.0173,-0.0141 -0.0376,-0.024 -0.0594,-0.0287 -0.0218,-0.0048 -0.0444,-0.0043 -0.066,0.0013 -4.0725,0.9824 -8.2473,1.4782 -12.4368,1.4771 -1.0075,0 -2.0122,0 -3.0198,-0.0266 -4.2135,-0.1182 -8.6546,-0.3338 -12.8002,-1.1433 -0.1034,-0.0207 -0.2069,-0.0384 -0.2955,-0.065 -6.539,-1.2556 -12.7618,-5.1966 -13.3942,-15.1762 -0.0236,-0.3929 -0.0827,-4.1153 -0.0827,-4.523 -0.0029,-1.3856 -0.4462,-9.829 0.065,-15.0167 z"
       fill="url(#paint0_linear_89_11)"
       id="path1"
       style="fill:url(#paint0_linear_89_11)" />
    <path
       d="m 44.344,18.3034 c 0,-2.0366 1.6335,-3.684 3.6528,-3.684 2.0193,0 3.6527,1.6474 3.6527,3.684 0,2.0366 -1.6334,3.684 -3.6527,3.684 -2.0193,0 -3.6528,-1.6474 -3.6528,-3.684 z"
       fill="currentColor"
       id="path2" />
    <path
       d="m 80.116277,13.285578 h 7.058867 v 27.359949 h -7.058867 v -3.228474 q -3.173754,3.994552 -8.919343,3.994552 -5.47199,0 -9.411822,-4.158712 -3.885113,-4.213432 -3.885113,-10.287341 0,-6.073908 3.885113,-10.232621 3.939832,-4.213432 9.411822,-4.213432 5.745589,0 8.919343,3.994553 z M 67.092942,32.546982 q 2.134076,2.134076 5.41727,2.134076 3.283193,0 5.417269,-2.134076 2.188796,-2.188796 2.188796,-5.58143 0,-3.392633 -2.188796,-5.526709 -2.134076,-2.188796 -5.417269,-2.188796 -3.283194,0 -5.41727,2.188796 -2.134076,2.134076 -2.134076,5.526709 0,3.392634 2.134076,5.58143 z m 26.484401,8.098545 V 0.70000118 h 7.058867 V 40.645527 Z M 110.59522,10.002384 q -1.75104,0 -3.06432,-1.2585578 -1.25855,-1.3132775 -1.25855,-3.0643143 0,-1.7510367 1.25855,-3.0643143 1.31328,-1.3132775 3.06432,-1.3132775 1.80575,0 3.06431,1.3132775 1.31328,1.3132776 1.31328,3.0643143 0,1.7510368 -1.31328,3.0643143 -1.25856,1.2585578 -3.06431,1.2585578 z m -3.50208,30.643143 V 13.285578 h 7.05887 v 27.359949 z m 31.51865,-27.359949 h 7.77023 l -10.39678,27.359949 h -8.04383 L 117.54463,13.285578 h 7.77023 l 6.6211,19.151964 z m 16.03295,16.580129 q 1.42272,5.14367 7.71551,5.14367 4.04927,0 6.12863,-2.735995 l 5.69087,3.283194 q -4.04927,5.855029 -11.92894,5.855029 -6.78527,0 -10.88926,-4.103992 -4.10399,-4.103992 -4.10399,-10.342061 0,-6.183348 4.04927,-10.287341 4.04927,-4.158712 10.39678,-4.158712 6.01919,0 9.9043,4.158712 3.93984,4.158713 3.93984,10.287341 0,1.367998 -0.2736,2.900155 z m -0.10944,-5.47199 h 13.95358 q -0.60192,-2.790715 -2.51712,-4.158712 -1.86047,-1.367998 -4.26815,-1.367998 -2.84543,0 -4.70591,1.477438 -1.86048,1.422717 -2.4624,4.049272 z m 32.99607,-6.402228 q 0.98496,-2.626555 3.22847,-3.939833 2.29824,-1.313277 5.08896,-1.313277 v 7.879665 q -3.22848,-0.383039 -5.80031,1.313278 -2.51712,1.696317 -2.51712,5.636149 V 40.645527 H 180.4725 V 13.285578 h 7.05887 z m 18.05758,3.064314 q 0,1.094398 1.42271,1.805757 1.47744,0.656639 3.5568,1.203838 2.07935,0.492479 4.15871,1.313277 2.07936,0.766079 3.50207,2.626555 1.47744,1.860477 1.47744,4.651192 0,4.213432 -3.17375,6.511668 -3.11904,2.243515 -7.82495,2.243515 -8.42686,0 -11.49118,-6.511667 l 6.12863,-3.447354 q 1.20384,3.556793 5.36255,3.556793 3.77567,0 3.77567,-2.352955 0,-1.094398 -1.47743,-1.751037 -1.42272,-0.711359 -3.50208,-1.258558 -2.07935,-0.547199 -4.15871,-1.367997 -2.07936,-0.820799 -3.55679,-2.571835 -1.42272,-1.805757 -1.42272,-4.487032 0,-4.049272 2.95487,-6.347508 3.0096,-2.352956 7.44191,-2.352956 3.33791,0 6.07391,1.532157 2.73599,1.477438 4.32287,4.268152 l -6.01919,3.283194 q -1.31328,-2.790715 -4.37759,-2.790715 -1.368,0 -2.29824,0.601919 -0.87551,0.601919 -0.87551,1.641597 z m 41.58718,16.19709 q -4.21343,4.158712 -10.28734,4.158712 -6.07391,0 -10.28734,-4.158712 -4.15871,-4.213432 -4.15871,-10.287341 0,-6.073908 4.15871,-10.232621 4.21343,-4.213432 10.28734,-4.213432 6.07391,0 10.28734,4.213432 4.21343,4.158713 4.21343,10.232621 0,6.073909 -4.21343,10.287341 z m -15.59517,-4.870071 q 2.13408,2.134076 5.30783,2.134076 3.17376,0 5.30783,-2.134076 2.13408,-2.134076 2.13408,-5.41727 0,-3.283194 -2.13408,-5.41727 -2.13407,-2.134076 -5.30783,-2.134076 -3.17375,0 -5.30783,2.134076 -2.07935,2.134076 -2.07935,5.41727 0,3.283194 2.07935,5.41727 z"
       id="text2"
       style="font-size:54.7199px;font-family:Gilroy-Bold;-inkscape-font-specification:Gilroy-Bold;fill:#000000;stroke-width:1.46569"
       inkscape:label="path3"
       aria-label="aliverso" />
    <defs
       id="defs4">
      <linearGradient
         id="paint0_linear_89_11"
         x1="30.5"
         y1="0.0130005"
         x2="30.5"
         y2="65.013"
         gradientUnits="userSpaceOnUse"
         gradientTransform="matrix(-1,0,0,1,64.800004,0)">
        <stop
           stop-color="#6364FF"
           id="stop3"
           offset="0"
           style="stop-color:#739cd0;stop-opacity:1;" />
        <stop
           offset="1"
           stop-color="#563ACC"
           id="stop4"
           style="stop-color:#2d5281;stop-opacity:1;" />
      </linearGradient>
    </defs>
  </symbol>
  <use
     xlink:href="#logo-symbol-wordmark"
     id="use4" />
</svg>
