<?xml version="1.0" encoding="UTF-8"?>
<svg version="1.1" viewBox="0 0 74.78 74.904" xmlns="http://www.w3.org/2000/svg" xmlns:cc="http://creativecommons.org/ns#" xmlns:dc="http://purl.org/dc/elements/1.1/" xmlns:rdf="http://www.w3.org/1999/02/22-rdf-syntax-ns#" xmlns:xlink="http://www.w3.org/1999/xlink">
<symbol id="logo-symbol-icon"><g transform="matrix(.75 0 0 .75 .00075 -19.238)" fill="currentColor">
<path d="m49.846 90.064c-7.042 0-12.904-5.028-14.204-11.689h-35.643c1.447 26.281 23.213 47.147 49.853 47.147 26.644 0 48.407-20.866 49.854-47.147h-35.658c-1.299 6.661-7.16 11.689-14.202 11.689z"/>
<circle transform="translate(0,25)" cx="49.853" cy="50.587" r="10.341"/>
<path d="m49.853 25.65c-26.64 0-48.407 20.866-49.854 47.148h35.643c1.3-6.66 7.164-11.689 14.205-11.689 7.042 0 12.901 5.029 14.201 11.69h35.658c-1.446-26.284-23.209-47.149-49.854-47.149zm-8.482 8.852c3.09 0 5.43 1.189 6.978 3.565l1.504 2.521 1.504-2.521c1.547-2.376 3.888-3.565 6.978-3.565 2.671 0 4.822 0.938 6.465 2.77 1.593 1.831 2.387 4.308 2.387 7.423v15.242h-6.04v-14.795c0-3.118-1.312-4.7-3.937-4.7-2.902 0-4.355 1.876-4.355 5.589v8.098h-6.005v-8.099c0-3.713-1.454-5.59-4.356-5.59-2.624 0-3.937 1.583-3.937 4.701v14.795h-6.04v-15.241c0-3.115 0.794-5.592 2.388-7.423 1.643-1.832 3.793-2.77 6.464-2.77z"/>
</g></symbol><use xlink:href="#logo-symbol-icon" style="color:#fff" />
</svg>
