<?xml version="1.0" encoding="UTF-8" standalone="no"?>
<svg
   xmlns:osb="http://www.openswatchbook.org/uri/2009/osb"
   xmlns:dc="http://purl.org/dc/elements/1.1/"
   xmlns:cc="http://creativecommons.org/ns#"
   xmlns:rdf="http://www.w3.org/1999/02/22-rdf-syntax-ns#"
   xmlns:svg="http://www.w3.org/2000/svg"
   xmlns="http://www.w3.org/2000/svg"
   xmlns:sodipodi="http://sodipodi.sourceforge.net/DTD/sodipodi-0.dtd"
   xmlns:inkscape="http://www.inkscape.org/namespaces/inkscape"
   version="1.1"
   x="0px"
   y="0px"
   viewBox="-0.147 -0.063 100 100"
   enable-background="new -0.147 -0.063 100 100"
   xml:space="preserve"
   id="svg12"
   sodipodi:docname="logo_transparent.svg"
   width="100"
   height="100"
   inkscape:version="0.92.2 (5c3e80d, 2017-08-06)"><metadata
     id="metadata18"><rdf:RDF><cc:Work
         rdf:about=""><dc:format>image/svg+xml</dc:format><dc:type
           rdf:resource="http://purl.org/dc/dcmitype/StillImage" /><dc:title></dc:title></cc:Work></rdf:RDF></metadata><defs
     id="defs16"><linearGradient
       id="linearGradient2254"
       osb:paint="solid"><stop
         style="stop-color:#ffffff;stop-opacity:1;"
         offset="0"
         id="stop2252" /></linearGradient></defs><sodipodi:namedview
     pagecolor="#ffffff"
     bordercolor="#666666"
     borderopacity="1"
     objecttolerance="10"
     gridtolerance="10"
     guidetolerance="10"
     inkscape:pageopacity="0"
     inkscape:pageshadow="2"
     inkscape:window-width="1920"
     inkscape:window-height="1027"
     id="namedview14"
     showgrid="true"
     inkscape:zoom="4.97"
     inkscape:cx="-25.955734"
     inkscape:cy="48.544018"
     inkscape:window-x="-8"
     inkscape:window-y="-8"
     inkscape:window-maximized="1"
     inkscape:current-layer="g4558"
     inkscape:pagecheckerboard="true"><inkscape:grid
       type="xygrid"
       id="grid4550" /></sodipodi:namedview><g
     id="g4548"
     transform="translate(0,-25)"><g
       id="g4558"
       transform="translate(0,-0.6490595)"><path
         inkscape:connector-curvature="0"
         style="fill:#ffffff;fill-opacity:1;stroke:none"
         id="path2"
         d="m 49.8465,65.064059 c -7.042,0 -12.904,-5.028 -14.204,-11.689 H -5e-4 c 1.447,26.281 23.213,47.147001 49.853,47.147001 26.644,0 48.407,-20.866001 49.854,-47.147001 h -35.658 c -1.299,6.661 -7.16,11.689 -14.202,11.689 z"
         transform="translate(0,25)" /><circle
         style="fill:#ffffff;fill-opacity:1;stroke:none"
         id="circle6"
         r="10.341"
         cy="50.587059"
         cx="49.853001"
         transform="translate(0,25)" /><path
         style="fill:#ffffff;fill-opacity:1;stroke:none"
         d="M 50 0.064453125 C 23.36 0.064453125 1.5934844 20.930891 0.14648438 47.212891 L 35.789062 47.212891 C 37.089062 40.551891 42.953141 35.523438 49.994141 35.523438 C 57.036141 35.523438 62.895312 40.551891 64.195312 47.212891 L 99.853516 47.212891 C 98.407516 20.930891 76.645 0.064453125 50 0.064453125 z M 41.517578 8.9160156 C 44.607766 8.9160156 46.948814 10.104676 48.496094 12.480469 L 50 15.001953 L 51.503906 12.480469 C 53.050876 10.104676 55.391922 8.9160156 58.482422 8.9160156 C 61.153042 8.9160156 63.304006 9.8540699 64.947266 11.685547 C 66.540196 13.517024 67.333984 15.994175 67.333984 19.109375 L 67.333984 34.351562 L 61.294922 34.351562 L 61.294922 19.556641 C 61.294922 16.438002 59.982082 14.855469 57.357422 14.855469 C 54.455452 14.855469 53.001953 16.732335 53.001953 20.445312 L 53.001953 28.542969 L 46.998047 28.542969 L 46.998047 20.445312 C 46.998047 16.732335 45.544553 14.855469 42.642578 14.855469 C 40.017919 14.855469 38.705078 16.438002 38.705078 19.556641 L 38.705078 34.351562 L 32.666016 34.351562 L 32.666016 19.109375 C 32.666016 15.994175 33.459493 13.517024 35.052734 11.685547 C 36.695686 9.8540699 38.846648 8.9160156 41.517578 8.9160156 z "
         id="path4"
         transform="translate(-0.147,25.586059)" /></g></g></svg>