<?xml version="1.0" encoding="UTF-8" standalone="no"?>
<svg
	width="75"
	height="79"
	viewBox="0 0 75 79"
	fill="none"
	version="1.1"
	id="svg3"
	sodipodi:docname="solologo-galiverso-black.svg"
	xml:space="preserve"
	inkscape:version="1.3.2 (091e20ef0f, 2023-11-25, custom)"
	xmlns:inkscape="http://www.inkscape.org/namespaces/inkscape"
	xmlns:sodipodi="http://sodipodi.sourceforge.net/DTD/sodipodi-0.dtd"
	xmlns="http://www.w3.org/2000/svg"
	xmlns:svg="http://www.w3.org/2000/svg"><sodipodi:namedview
     id="namedview3"
     pagecolor="#ffffff"
     bordercolor="#000000"
     borderopacity="0.25"
     inkscape:showpageshadow="2"
     inkscape:pageopacity="0.0"
     inkscape:pagecheckerboard="0"
     inkscape:deskcolor="#d1d1d1"
     inkscape:zoom="5.2405063"
     inkscape:cx="-26.428744"
     inkscape:cy="25.76087"
     inkscape:window-width="1570"
     inkscape:window-height="1080"
     inkscape:window-x="0"
     inkscape:window-y="0"
     inkscape:window-maximized="0"
     inkscape:current-layer="svg3" /><path
     d="M 0.29913337,17.4898 C 1.4411334,9.00165 8.8390334,2.31235 17.608833,1.01614 19.088433,0.797115 24.694333,0 37.680234,0 h 0.097 c 12.989499,0 15.776199,0.797115 17.255799,1.01614 8.5256,1.2603 16.31141,7.27098 18.200403,15.85966 0.908583,4.2298 1.005546,8.9191 0.836758,13.2207 -0.240613,6.1686 -0.287299,12.3265 -0.847531,18.47 -0.3873,4.0809 -1.06295,8.1292 -2.02186,12.1147 -1.79562,7.3608 -9.06427,13.4864 -16.18567,15.9854 -7.6245,2.6062 -15.824099,3.0389 -23.680599,1.2496 -0.8643,-0.2011 -1.7178,-0.4345 -2.5606,-0.7002 -1.910501,-0.6068 -4.147801,-1.2855 -5.792601,-2.4775 -0.0226,-0.0168 -0.0411,-0.0384 -0.0541,-0.0632 -0.0131,-0.0249 -0.0204,-0.0524 -0.0213,-0.0805 v -5.9532 c 4e-4,-0.0262 0.0066,-0.052 0.0183,-0.0755 0.0117,-0.0235 0.0284,-0.0441 0.0491,-0.0603 0.0207,-0.0162 0.0447,-0.0275 0.0703,-0.0332 0.0256,-0.0057 0.0522,-0.0056 0.0777,3e-4 5.033601,1.2021 10.191701,1.8048 15.366901,1.7953 8.906299,0 11.301599,-4.2262 11.987599,-5.9856 0.5513,-1.5206 0.9014,-3.1067 1.0414,-4.718 0.0015,-0.0271 -0.0035,-0.0541 -0.0145,-0.0789 -0.0109,-0.0248 -0.0276,-0.0466 -0.0486,-0.0637 -0.021,-0.0172 -0.0457,-0.0291 -0.0722,-0.0349 -0.0265,-0.0058 -0.0539,-0.0053 -0.0802,0.0015 -4.949699,1.194 -10.023699,1.7967 -15.115499,1.7953 -1.2246,0 -2.4456,0 -3.6702,-0.0323 -5.1211,-0.1436 -10.518701,-0.4057 -15.557201,-1.3895 -0.1257,-0.0252 -0.2514,-0.0467 -0.3591,-0.079 C 8.6523334,58.157 1.0891334,53.3672 0.32063337,41.2381 c -0.0287,-0.4775 -0.1006,-5.0017 -0.1006,-5.4972 -0.0035,-1.684 -0.5422,-11.946 0.0791,-18.2511 z"
     fill="url(#paint0_linear_549_34)"
     id="path1"
     style="fill:url(#paint0_linear_549_34)" /><defs
     id="defs3"><linearGradient
       id="paint0_linear_549_34"
       x1="37.0692"
       y1="0"
       x2="37.0692"
       y2="79"
       gradientUnits="userSpaceOnUse"
       gradientTransform="matrix(-1,0,0,1,74.138433,0)"><stop
         stop-color="#6364FF"
         id="stop2"
         offset="0"
         style="stop-color:#000000;stop-opacity:1;" /><stop
         offset="1"
         stop-color="#563ACC"
         id="stop3"
         style="stop-color:#000000;stop-opacity:1;" /></linearGradient></defs><g
     inkscape:groupmode="layer"
     id="layer2"
     inkscape:label="gg"><g
       id="g3"
       transform="matrix(0.02792902,0,0,0.02792902,16.85317,9.0567661)"
       style="display:inline;opacity:1;mix-blend-mode:normal;fill:#ffffff"><path
         d="M 803.8,626.7 H 503.2 c -11.1,0 -22.2,0 -33.2,-0.2 -3.7,0 -10.4,-0.2 -10.5,-1.1 -3.3,-21.6 -7.7,-43.3 -7.6,-65 0,-6.1 13.5,-17.3 20.9,-17.4 111.8,-1.2 223.5,-1.3 335.3,-0.4 7.9,0.1 18.6,7.3 23.2,14.4 16.3,25.4 32.6,51.3 44.7,78.8 5.4,12.3 5.9,31.8 -0.3,43.3 C 809.9,801.5 710.5,881.1 574.8,916.6 365.9,971.3 142.6,863.6 48.7,671.9 -63.2,443.6 23.4,172.4 252.8,53 453.5,-51.6 696,1.4 831.8,187.3 c 69,94.5 123.1,200 182.9,301.2 39.6,67 71.7,139.3 117.2,201.9 90.9,125.4 219.8,174.7 370.8,149 141.9,-24.2 237.2,-112.2 290.7,-245.3 4,-10 4.9,-21.4 8,-35.2 h -384.9 v -83.1 h 481.4 c -1.3,21.1 -0.5,43.1 -4.3,64.2 -26.4,145.9 -102.6,259.3 -232,331.4 -123.3,68.6 -253.2,78.5 -387.9,29.3 C 1144.6,853.5 1064.2,757.6 999.5,643.1 949.9,555.3 899.1,468.1 848.2,381 816.3,326.5 788.5,268.6 749.7,219.5 691.3,145.7 611.2,105 516.4,92.2 329.6,66.8 186.4,170.3 122.7,301 40.3,470.2 94.4,668.1 245.5,776.3 c 82.7,59.2 176,80.4 275.3,65 123.6,-19.2 216.3,-86.2 277.2,-196 2.6,-4.5 3.3,-10.1 5.8,-18.6 z"
         id="path1-6"
         style="fill:#ffffff" /><path
         d="m 1064.6,363.8 c -16.4,-27.6 -32.5,-53.1 -46.5,-79.6 -3.1,-5.9 -1.5,-16.6 1.9,-23.1 57.1,-110.6 143.2,-189.1 260.8,-231.6 55.8,-20.1 113.7,-32.7 173,-27.9 176.1,14.3 310,96 394.2,253.8 3.9,7.3 7.2,14.8 10.8,22.2 0.3,0.7 0,1.7 -0.3,6.9 -27.6,0 -55.7,0.7 -83.6,-0.7 -5,-0.2 -10.3,-8.8 -14,-14.5 C 1708.7,188.7 1638.3,130.4 1546,103.2 1455.6,76.6 1365.1,81.5 1278.9,121.3 1179,167.4 1111.6,243.8 1076,348 c -1.6,4.2 -3.4,8.4 -5.5,12.4 -0.4,0.6 -1.6,0.9 -5.9,3.4 z"
         id="path2"
         style="display:inline;mix-blend-mode:normal;fill:#ffffff" /></g></g></svg>