<?xml version="1.0" encoding="UTF-8" standalone="no"?>
<svg
   xmlns:dc="http://purl.org/dc/elements/1.1/"
   xmlns:cc="http://creativecommons.org/ns#"
   xmlns:rdf="http://www.w3.org/1999/02/22-rdf-syntax-ns#"
   xmlns:svg="http://www.w3.org/2000/svg"
   xmlns="http://www.w3.org/2000/svg"
   xmlns:sodipodi="http://sodipodi.sourceforge.net/DTD/sodipodi-0.dtd"
   xmlns:inkscape="http://www.inkscape.org/namespaces/inkscape"
   version="1.1"
   x="0px"
   y="0px"
   viewBox="-0.147 -0.063 100 100"
   enable-background="new -0.147 -0.063 100 100"
   xml:space="preserve"
   id="svg12"
   sodipodi:docname="logo.svg"
   width="100"
   height="100"
   inkscape:version="0.92.2 (5c3e80d, 2017-08-06)"><metadata
     id="metadata18"><rdf:RDF><cc:Work
         rdf:about=""><dc:format>image/svg+xml</dc:format><dc:type
           rdf:resource="http://purl.org/dc/dcmitype/StillImage" /><dc:title></dc:title></cc:Work></rdf:RDF></metadata><defs
     id="defs16" /><sodipodi:namedview
     pagecolor="#ffffff"
     bordercolor="#666666"
     borderopacity="1"
     objecttolerance="10"
     gridtolerance="10"
     guidetolerance="10"
     inkscape:pageopacity="0"
     inkscape:pageshadow="2"
     inkscape:window-width="1920"
     inkscape:window-height="1027"
     id="namedview14"
     showgrid="true"
     inkscape:zoom="4.97"
     inkscape:cx="13.279678"
     inkscape:cy="47.118369"
     inkscape:window-x="-8"
     inkscape:window-y="-8"
     inkscape:window-maximized="1"
     inkscape:current-layer="g4548"><inkscape:grid
       type="xygrid"
       id="grid4550" /></sodipodi:namedview><g
     id="g4548"
     transform="translate(0,-25)"><g
       id="g4558"
       transform="translate(0,-0.6490595)"><path
         inkscape:connector-curvature="0"
         style="fill:#3088d4;fill-opacity:1;stroke:none"
         id="path2"
         d="m 49.8465,65.064059 c -7.042,0 -12.904,-5.028 -14.204,-11.689 H -5e-4 c 1.447,26.281 23.213,47.147001 49.853,47.147001 26.644,0 48.407,-20.866001 49.854,-47.147001 h -35.658 c -1.299,6.661 -7.16,11.689 -14.202,11.689 z"
         transform="translate(0,25)" /><circle
         style="fill:#3088d4;fill-opacity:1;stroke:none"
         id="circle6"
         r="10.341"
         cy="50.587059"
         cx="49.853001"
         transform="translate(0,25)" /><path
         inkscape:connector-curvature="0"
         d="m 49.847,61.109059 c 7.042,0 12.902,5.028 14.202,11.689 h 35.657 c -1.446,-26.282 -23.208,-47.148 -49.853,-47.148 -26.64,0 -48.406,20.866 -49.853,47.148 h 35.643 c 1.3,-6.661 7.163,-11.689 14.204,-11.689 z"
         id="path4"
         style="fill:#3088d4;fill-opacity:1;stroke:none" /><path
         inkscape:connector-curvature="0"
         style="fill:#ffffff;stroke-width:0.25011638"
         d="M 67.18669,44.694595 V 59.937 H 61.14794 V 45.142616 c 0,-3.118639 -1.31217,-4.701563 -3.93683,-4.701563 -2.90197,0 -4.3564,1.877749 -4.3564,5.590726 v 8.09783 h -6.003107 v -8.09783 c 0,-3.712977 -1.454739,-5.590726 -4.356714,-5.590726 -2.624659,0 -3.936832,1.582924 -3.936832,4.701563 V 59.937 H 32.51931 V 44.694595 c 0,-3.1152 0.793182,-5.590726 2.386423,-7.422203 1.642952,-1.831477 3.794578,-2.770352 6.465508,-2.770352 3.090188,0 5.430339,1.18774 6.977619,3.563533 l 1.50414,2.521486 1.50445,-2.521486 c 1.54697,-2.375793 3.88712,-3.563533 6.97762,-3.563533 2.67062,0 4.82225,0.938875 6.46551,2.770352 1.59293,1.831477 2.38611,4.307003 2.38611,7.422203"
         id="path4-2" /></g></g></svg>