<svg xmlns="http://www.w3.org/2000/svg">
 <symbol id="logo-symbol-wordmark" viewBox="-0.147 -0.063 523.21 99.872" xmlns="http://www.w3.org/2000/svg">
 <g fill="#D9742B">
 <path d="M307.806 64.35c-7.042 0-12.904-5.027-14.204-11.688h-35.643c1.447 26.28 23.213 47.147 49.853 47.147 26.644 0 48.407-20.866 49.854-47.147h-35.658c-1.299 6.66-7.16 11.689-14.202 11.689z"/>
 <path d="M318.154 49.874a10.341 10.341 0 0 1-10.341 10.34 10.341 10.341 0 0 1-10.341-10.34 10.341 10.341 0 0 1 10.341-10.341 10.341 10.341 0 0 1 10.341 10.34z"/>
 <path d="M307.81-.063c-26.64 0-48.407 20.866-49.854 47.148h35.645c1.3-6.661 7.162-11.69 14.203-11.69 7.042 0 12.903 5.03 14.203 11.69h35.656C356.217 20.803 334.454-.063 307.809-.063zm-8.48 8.852c3.09 0 5.429 1.188 6.976 3.564l1.504 2.522 1.504-2.522c1.547-2.376 3.888-3.564 6.978-3.564 2.671 0 4.822.94 6.465 2.771 1.593 1.832 2.387 4.307 2.387 7.422v15.242h-6.04V19.429c0-3.119-1.31-4.701-3.935-4.701-2.902 0-4.357 1.877-4.357 5.59v8.1h-6.004v-8.1c0-3.713-1.454-5.59-4.356-5.59-2.624 0-3.937 1.582-3.937 4.7v14.796h-6.04V18.982c0-3.115.794-5.59 2.388-7.422 1.643-1.831 3.795-2.771 6.466-2.771z"/>
 <g>
 <path d="M23.42 24.913v14.613c-2.24-2.613-5.493-3.84-9.173-3.84-8.267 0-14.4 5.707-14.4 14.56s6.133 14.613 14.4 14.613c3.893 0 7.2-1.333 9.44-4.053v3.68h6.4V24.913zm-8.373 34.24c-4.8 0-8.48-3.467-8.48-8.907s3.68-8.906 8.48-8.906 8.48 3.466 8.48 8.906-3.68 8.907-8.48 8.907zM51.66 64.863c8.853 0 15.2-6.08 15.2-14.613s-6.347-14.56-15.2-14.56c-8.747 0-15.147 6.027-15.147 14.56s6.4 14.613 15.147 14.613zm0-5.707c-4.8 0-8.427-3.466-8.427-8.906s3.627-8.907 8.427-8.907c4.853 0 8.48 3.467 8.48 8.907s-3.627 8.906-8.48 8.906zM89.4 35.686c-4.16 0-7.627 1.387-9.813 4v-3.68H73.24v28.48h6.667v-14.4c0-5.707 3.2-8.587 7.946-8.587 4.267 0 6.774 2.454 6.774 7.52v15.467h6.666v-16.32c0-8.586-5.066-12.48-11.893-12.48zM125.59 35.686c-3.893 0-7.2 1.333-9.44 4.053v-3.733h-6.347v38.827h6.667V61.02c2.293 2.613 5.493 3.84 9.12 3.84 8.32 0 14.453-5.76 14.453-14.613 0-8.8-6.133-14.56-14.453-14.56zm-.747 23.467c-4.8 0-8.48-3.467-8.48-8.907s3.68-8.906 8.48-8.906 8.427 3.466 8.427 8.906-3.627 8.907-8.427 8.907zM162.523 35.686c-3.947 0-7.307 1.28-9.493 3.627v-14.4h-6.667v39.573h6.667v-14.4c0-5.707 3.2-8.587 7.946-8.587 4.267 0 6.774 2.453 6.774 7.52v15.467h6.666v-16.32c0-8.587-5.066-12.48-11.893-12.48zM204.411 36.006v3.467c-2.293-2.56-5.493-3.787-9.12-3.787-8.32 0-14.4 5.707-14.4 14.56s6.08 14.613 14.4 14.613c3.893 0 7.2-1.333 9.44-4.053v3.68h6.347v-28.48zm-8.373 23.147c-4.8 0-8.427-3.467-8.427-8.907s3.627-8.906 8.427-8.906c4.853 0 8.48 3.466 8.48 8.906s-3.627 8.907-8.48 8.907zM235.961 35.686c-4.16 0-7.627 1.387-9.813 4v-3.68H219.8v28.48h6.667v-14.4c0-5.707 3.2-8.587 7.946-8.587 4.267 0 6.774 2.454 6.774 7.52v15.467h6.666v-16.32c0-8.586-5.066-12.48-11.893-12.48zM379.28 64.753c7.307 0 11.573-3.147 11.573-8 0-10.773-18.187-5.067-18.187-12.64 0-2.667 2.24-4.64 7.307-4.64 2.88 0 5.813.693 8.266 2.4l1.654-3.04c-2.347-1.6-6.294-2.613-9.92-2.613-7.147 0-11.093 3.413-11.093 8 0 11.093 18.187 5.333 18.187 12.64 0 2.773-2.187 4.586-7.52 4.586-3.947 0-7.734-1.386-9.974-3.146l-1.706 2.986c2.293 1.974 6.773 3.467 11.413 3.467zM409.26 64.753c8.213 0 14.24-5.973 14.24-14.293s-6.027-14.24-14.24-14.24-14.293 5.92-14.293 14.24 6.08 14.293 14.293 14.293zm0-3.36c-5.973 0-10.453-4.373-10.453-10.933s4.48-10.933 10.453-10.933c5.973 0 10.4 4.373 10.4 10.933s-4.427 10.933-10.4 10.933zM442.86 64.753c4.747 0 8.747-1.92 10.987-5.547l-2.827-1.92c-1.92 2.827-4.906 4.107-8.16 4.107-6.133 0-10.613-4.32-10.613-10.933 0-6.56 4.48-10.933 10.613-10.933 3.254 0 6.24 1.333 8.16 4.16l2.827-1.92c-2.24-3.68-6.24-5.547-10.987-5.547-8.373 0-14.453 5.867-14.453 14.24s6.08 14.293 14.453 14.293zM463.16 30.299c1.6 0 2.773-1.227 2.773-2.773 0-1.44-1.226-2.614-2.773-2.614-1.547 0-2.773 1.227-2.773 2.667 0 1.493 1.226 2.72 2.773 2.72zm-1.92 34.187h3.787V36.433h-3.787zM497.42 36.433v5.333c-2.347-3.626-6.187-5.546-10.667-5.546-8 0-13.973 5.76-13.973 14.24s5.973 14.293 13.973 14.293c4.64 0 8.533-2.027 10.827-5.814v5.547h3.627V36.433zm-10.347 24.96c-5.973 0-10.453-4.373-10.453-10.933s4.48-10.933 10.453-10.933c5.92 0 10.4 4.373 10.4 10.933s-4.48 10.933-10.4 10.933zM519.65 64.753c1.12 0 2.347-.213 3.413-.587l-.266-3.146c-.587.266-1.547.48-2.56.48-3.147 0-4.694-1.814-4.694-5.12V24.913h-3.786V56.7c0 5.013 2.773 8.053 7.893 8.053z"/>
 </g>
 </g>
 </symbol>
</svg>