<?xml version="1.0" encoding="UTF-8" standalone="no"?>
<svg
   xmlns:dc="http://purl.org/dc/elements/1.1/"
   xmlns:cc="http://creativecommons.org/ns#"
   xmlns:rdf="http://www.w3.org/1999/02/22-rdf-syntax-ns#"
   xmlns:svg="http://www.w3.org/2000/svg"
   xmlns="http://www.w3.org/2000/svg"
   xmlns:sodipodi="http://sodipodi.sourceforge.net/DTD/sodipodi-0.dtd"
   xmlns:inkscape="http://www.inkscape.org/namespaces/inkscape"
   version="1.1"
   x="0px"
   y="0px"
   viewBox="-0.147 -0.063 523.21319 99.872002"
   enable-background="new -0.147 -0.063 100 100"
   xml:space="preserve"
   id="svg12"
   sodipodi:docname="logo_full.svg"
   width="523.2132"
   height="99.872002"
   inkscape:version="0.92.2 2405546, 2018-03-11"
   inkscape:export-filename="E:\User Data\Alexis\Pictures\donphan_social\logo_full.png"
   inkscape:export-xdpi="492"
   inkscape:export-ydpi="492"><metadata
     id="metadata18"><rdf:RDF><cc:Work
         rdf:about=""><dc:format>image/svg+xml</dc:format><dc:type
           rdf:resource="http://purl.org/dc/dcmitype/StillImage" /><dc:title /></cc:Work></rdf:RDF></metadata><defs
     id="defs16" /><sodipodi:namedview
     pagecolor="#ffffff"
     bordercolor="#666666"
     borderopacity="1"
     objecttolerance="10"
     gridtolerance="10"
     guidetolerance="10"
     inkscape:pageopacity="0"
     inkscape:pageshadow="2"
     inkscape:window-width="1920"
     inkscape:window-height="1031"
     id="namedview14"
     showgrid="true"
     inkscape:zoom="3.5143207"
     inkscape:cx="295.7545"
     inkscape:cy="21.194628"
     inkscape:window-x="0"
     inkscape:window-y="0"
     inkscape:window-maximized="1"
     inkscape:current-layer="g4558"
     fit-margin-top="0"
     fit-margin-left="0"
     fit-margin-right="0"
     fit-margin-bottom="0"
     inkscape:pagecheckerboard="true"><inkscape:grid
       type="xygrid"
       id="grid4550"
       originx="152.98469"
       originy="-27.439005" /></sodipodi:namedview><g
     id="g4548"
     transform="translate(257.9633,-25.063999)"><g
       id="g4558"
       transform="translate(0,-0.6490595)"><path
         inkscape:connector-curvature="0"
         style="fill:#ffffff;fill-opacity:1;stroke:none"
         id="path2"
         d="m 49.8465,65.064059 c -7.042,0 -12.904,-5.028 -14.204,-11.689 H -5e-4 c 1.447,26.281 23.213,47.147001 49.853,47.147001 26.644,0 48.407,-20.866001 49.854,-47.147001 h -35.658 c -1.299,6.661 -7.16,11.689 -14.202,11.689 z"
         transform="translate(0,25)" /><circle
         style="fill:#ffffff;fill-opacity:1;stroke:none"
         id="circle6"
         r="10.341"
         cy="50.587059"
         cx="49.853001"
         transform="translate(0,25)" /><path
         style="fill:#ffffff;fill-opacity:1;stroke:none"
         mask="none"
         d="M 307.96289 0 C 281.32289 0 259.55638 20.866437 258.10938 47.148438 L 293.75391 47.148438 C 295.05391 40.487437 300.91603 35.458984 307.95703 35.458984 C 314.99903 35.458984 320.86016 40.487438 322.16016 47.148438 L 357.81641 47.148438 C 356.37041 20.866438 334.60789 4.7369516e-15 307.96289 0 z M 299.48242 8.8515625 C 302.57261 8.8515625 304.9117 10.040223 306.45898 12.416016 L 307.96289 14.9375 L 309.4668 12.416016 C 311.01377 10.040223 313.35481 8.8515625 316.44531 8.8515625 C 319.11593 8.8515625 321.2669 9.7915699 322.91016 11.623047 C 324.50309 13.454524 325.29688 15.929722 325.29688 19.044922 L 325.29688 34.287109 L 319.25781 34.287109 L 319.25781 19.492188 C 319.25781 16.373548 317.94693 14.791016 315.32227 14.791016 C 312.4203 14.791016 310.96484 16.667882 310.96484 20.380859 L 310.96484 28.480469 L 304.96094 28.480469 L 304.96094 20.380859 C 304.96094 16.667882 303.50744 14.791016 300.60547 14.791016 C 297.98081 14.791016 296.66797 16.373548 296.66797 19.492188 L 296.66797 34.287109 L 290.62891 34.287109 L 290.62891 19.044922 C 290.62891 15.929722 291.42238 13.454524 293.01562 11.623047 C 294.65858 9.7915699 296.81149 8.8515625 299.48242 8.8515625 z "
         transform="translate(-258.1103,25.650058)"
         id="path4" /></g><flowRoot
       xml:space="preserve"
       id="flowRoot818"
       style="font-style:normal;font-weight:normal;font-size:40px;line-height:1.25;font-family:sans-serif;letter-spacing:0px;word-spacing:0px;fill:#000000;fill-opacity:1;stroke:none"><flowRegion
         id="flowRegion820"><rect
           id="rect822"
           width="50.100605"
           height="53.038231"
           x="102.61569"
           y="20" /></flowRegion><flowPara
         id="flowPara824" /></flowRoot><g
       id="g850"
       transform="translate(0,-35.322667)"><g
         aria-label="donphan "
         style="font-style:normal;font-weight:normal;font-size:40px;line-height:1.25;font-family:sans-serif;letter-spacing:0px;word-spacing:0px;fill:#ff00ff;fill-opacity:1;stroke:none"
         id="text828"><path
           d="m -234.53696,85.299669 v 14.613333 c -2.24,-2.613334 -5.49334,-3.84 -9.17334,-3.84 -8.26666,0 -14.4,5.706668 -14.4,14.559998 0,8.85333 6.13334,14.61333 14.4,14.61333 3.89334,0 7.2,-1.33333 9.44,-4.05333 v 3.68 h 6.4 V 85.299669 Z m -8.37334,34.240001 c -4.8,0 -8.48,-3.46667 -8.48,-8.90667 0,-5.44 3.68,-8.90667 8.48,-8.90667 4.8,0 8.48,3.46667 8.48,8.90667 0,5.44 -3.68,8.90667 -8.48,8.90667 z"
           style="font-style:normal;font-variant:normal;font-weight:600;font-stretch:normal;font-size:53.33333206px;font-family:'Montserrat Alternates';-inkscape-font-specification:'Montserrat Alternates, Semi-Bold';font-variant-ligatures:normal;font-variant-caps:normal;font-variant-numeric:normal;font-feature-settings:normal;text-align:start;writing-mode:lr-tb;text-anchor:start;fill:#ffffff;fill-opacity:1"
           id="path831" /><path
           d="m -206.29697,125.24633 c 8.85334,0 15.2,-6.08 15.2,-14.61333 0,-8.53333 -6.34666,-14.559998 -15.2,-14.559998 -8.74666,0 -15.14666,6.026668 -15.14666,14.559998 0,8.53333 6.4,14.61333 15.14666,14.61333 z m 0,-5.70666 c -4.8,0 -8.42666,-3.46667 -8.42666,-8.90667 0,-5.44 3.62666,-8.90667 8.42666,-8.90667 4.85334,0 8.48,3.46667 8.48,8.90667 0,5.44 -3.62666,8.90667 -8.48,8.90667 z"
           style="font-style:normal;font-variant:normal;font-weight:600;font-stretch:normal;font-size:53.33333206px;font-family:'Montserrat Alternates';-inkscape-font-specification:'Montserrat Alternates, Semi-Bold';font-variant-ligatures:normal;font-variant-caps:normal;font-variant-numeric:normal;font-feature-settings:normal;text-align:start;writing-mode:lr-tb;text-anchor:start;fill:#ffffff;fill-opacity:1"
           id="path833" /><path
           d="m -168.56197,96.073002 c -4.16,0 -7.62666,1.386666 -9.81333,3.999998 v -3.679998 h -6.34667 V 124.873 h 6.66667 v -14.4 c 0,-5.70667 3.2,-8.58667 7.94667,-8.58667 4.26666,0 6.77333,2.45334 6.77333,7.52 V 124.873 h 6.66667 v -16.32 c 0,-8.586665 -5.06667,-12.479998 -11.89334,-12.479998 z"
           style="font-style:normal;font-variant:normal;font-weight:600;font-stretch:normal;font-size:53.33333206px;font-family:'Montserrat Alternates';-inkscape-font-specification:'Montserrat Alternates, Semi-Bold';font-variant-ligatures:normal;font-variant-caps:normal;font-variant-numeric:normal;font-feature-settings:normal;text-align:start;writing-mode:lr-tb;text-anchor:start;fill:#ffffff;fill-opacity:1"
           id="path835" /><path
           d="m -132.3728,96.073002 c -3.89333,0 -7.2,1.333333 -9.44,4.053338 v -3.733338 h -6.34667 v 38.826668 h 6.66667 v -13.81334 c 2.29333,2.61334 5.49333,3.84 9.12,3.84 8.32,0 14.45333,-5.76 14.45333,-14.61333 0,-8.8 -6.13333,-14.559998 -14.45333,-14.559998 z m -0.74667,23.466668 c -4.8,0 -8.48,-3.46667 -8.48,-8.90667 0,-5.44 3.68,-8.90667 8.48,-8.90667 4.8,0 8.42667,3.46667 8.42667,8.90667 0,5.44 -3.62667,8.90667 -8.42667,8.90667 z"
           style="font-style:normal;font-variant:normal;font-weight:600;font-stretch:normal;font-size:53.33333206px;font-family:'Montserrat Alternates';-inkscape-font-specification:'Montserrat Alternates, Semi-Bold';font-variant-ligatures:normal;font-variant-caps:normal;font-variant-numeric:normal;font-feature-settings:normal;text-align:start;writing-mode:lr-tb;text-anchor:start;fill:#ffffff;fill-opacity:1"
           id="path837" /><path
           d="m -95.436974,96.073002 c -3.946666,0 -7.306666,1.28 -9.493336,3.626666 V 85.299669 h -6.66666 V 124.873 h 6.66666 v -14.4 c 0,-5.70667 3.2,-8.58667 7.94667,-8.58667 4.266666,0 6.773333,2.45334 6.773333,7.52 V 124.873 h 6.666666 v -16.32 c 0,-8.586665 -5.066666,-12.479998 -11.893333,-12.479998 z"
           style="font-style:normal;font-variant:normal;font-weight:600;font-stretch:normal;font-size:53.33333206px;font-family:'Montserrat Alternates';-inkscape-font-specification:'Montserrat Alternates, Semi-Bold';font-variant-ligatures:normal;font-variant-caps:normal;font-variant-numeric:normal;font-feature-settings:normal;text-align:start;writing-mode:lr-tb;text-anchor:start;fill:#ffffff;fill-opacity:1"
           id="path839" /><path
           d="m -53.54864,96.393002 v 3.466666 c -2.293334,-2.56 -5.493334,-3.786666 -9.12,-3.786666 -8.32,0 -14.4,5.706668 -14.4,14.559998 0,8.85333 6.08,14.61333 14.4,14.61333 3.893333,0 7.2,-1.33333 9.44,-4.05333 v 3.68 h 6.346666 V 96.393002 Z m -8.373333,23.146668 c -4.8,0 -8.426667,-3.46667 -8.426667,-8.90667 0,-5.44 3.626667,-8.90667 8.426667,-8.90667 4.853333,0 8.479999,3.46667 8.479999,8.90667 0,5.44 -3.626666,8.90667 -8.479999,8.90667 z"
           style="font-style:normal;font-variant:normal;font-weight:600;font-stretch:normal;font-size:53.33333206px;font-family:'Montserrat Alternates';-inkscape-font-specification:'Montserrat Alternates, Semi-Bold';font-variant-ligatures:normal;font-variant-caps:normal;font-variant-numeric:normal;font-feature-settings:normal;text-align:start;writing-mode:lr-tb;text-anchor:start;fill:#ffffff;fill-opacity:1"
           id="path841" /><path
           d="m -21.999474,96.073002 c -4.159999,0 -7.626666,1.386666 -9.813333,3.999998 v -3.679998 h -6.346666 V 124.873 h 6.666666 v -14.4 c 0,-5.70667 3.2,-8.58667 7.946667,-8.58667 4.266666,0 6.773333,2.45334 6.773333,7.52 V 124.873 h 6.666666 v -16.32 c 0,-8.586665 -5.066666,-12.479998 -11.893333,-12.479998 z"
           style="font-style:normal;font-variant:normal;font-weight:600;font-stretch:normal;font-size:53.33333206px;font-family:'Montserrat Alternates';-inkscape-font-specification:'Montserrat Alternates, Semi-Bold';font-variant-ligatures:normal;font-variant-caps:normal;font-variant-numeric:normal;font-feature-settings:normal;text-align:start;writing-mode:lr-tb;text-anchor:start;fill:#ffffff;fill-opacity:1"
           id="path843" /></g><g
         aria-label="social"
         style="font-style:normal;font-weight:normal;font-size:40px;line-height:1.25;font-family:sans-serif;letter-spacing:0px;word-spacing:0px;fill:#000000;fill-opacity:1;stroke:none"
         id="text829"><path
           d="m 121.31624,125.13967 c 7.30667,0 11.57334,-3.14667 11.57334,-8 0,-10.77334 -18.18667,-5.06667 -18.18667,-12.64 0,-2.66667 2.24,-4.640002 7.30667,-4.640002 2.88,0 5.81333,0.693332 8.26666,2.400002 l 1.65334,-3.040002 c -2.34667,-1.6 -6.29334,-2.613333 -9.92,-2.613333 -7.14667,0 -11.09334,3.413335 -11.09334,7.999995 0,11.09334 18.18667,5.33334 18.18667,12.64 0,2.77334 -2.18667,4.58667 -7.52,4.58667 -3.94667,0 -7.73333,-1.38667 -9.97333,-3.14667 l -1.70667,2.98667 c 2.29333,1.97333 6.77333,3.46667 11.41333,3.46667 z"
           style="font-style:normal;font-variant:normal;font-weight:normal;font-stretch:normal;font-size:53.33333206px;font-family:'Montserrat Alternates';-inkscape-font-specification:'Montserrat Alternates, Normal';font-variant-ligatures:normal;font-variant-caps:normal;font-variant-numeric:normal;font-feature-settings:normal;text-align:start;writing-mode:lr-tb;text-anchor:start;fill:#ffffff"
           id="path846" /><path
           d="m 151.30458,125.13967 c 8.21333,0 14.23999,-5.97334 14.23999,-14.29334 0,-8.32 -6.02666,-14.239995 -14.23999,-14.239995 -8.21334,0 -14.29334,5.919995 -14.29334,14.239995 0,8.32 6.08,14.29334 14.29334,14.29334 z m 0,-3.36 c -5.97334,0 -10.45334,-4.37334 -10.45334,-10.93334 0,-6.56 4.48,-10.933328 10.45334,-10.933328 5.97333,0 10.4,4.373328 10.4,10.933328 0,6.56 -4.42667,10.93334 -10.4,10.93334 z"
           style="font-style:normal;font-variant:normal;font-weight:normal;font-stretch:normal;font-size:53.33333206px;font-family:'Montserrat Alternates';-inkscape-font-specification:'Montserrat Alternates, Normal';font-variant-ligatures:normal;font-variant-caps:normal;font-variant-numeric:normal;font-feature-settings:normal;text-align:start;writing-mode:lr-tb;text-anchor:start;fill:#ffffff"
           id="path848" /><path
           d="m 184.90207,125.13967 c 4.74667,0 8.74667,-1.92 10.98667,-5.54667 l -2.82667,-1.92 c -1.92,2.82667 -4.90666,4.10667 -8.16,4.10667 -6.13333,0 -10.61333,-4.32 -10.61333,-10.93334 0,-6.56 4.48,-10.933328 10.61333,-10.933328 3.25334,0 6.24,1.333328 8.16,4.159998 l 2.82667,-1.92 c -2.24,-3.679998 -6.24,-5.546665 -10.98667,-5.546665 -8.37333,0 -14.45333,5.866665 -14.45333,14.239995 0,8.37334 6.08,14.29334 14.45333,14.29334 z"
           style="font-style:normal;font-variant:normal;font-weight:normal;font-stretch:normal;font-size:53.33333206px;font-family:'Montserrat Alternates';-inkscape-font-specification:'Montserrat Alternates, Normal';font-variant-ligatures:normal;font-variant-caps:normal;font-variant-numeric:normal;font-feature-settings:normal;text-align:start;writing-mode:lr-tb;text-anchor:start;fill:#ffffff"
           id="path850" /><path
           d="m 205.19541,90.686335 c 1.6,0 2.77333,-1.226666 2.77333,-2.773333 0,-1.44 -1.22667,-2.613333 -2.77333,-2.613333 -1.54667,0 -2.77334,1.226666 -2.77334,2.666666 0,1.493334 1.22667,2.72 2.77334,2.72 z m -1.92,34.186665 h 3.78666 V 96.819668 h -3.78666 z"
           style="font-style:normal;font-variant:normal;font-weight:normal;font-stretch:normal;font-size:53.33333206px;font-family:'Montserrat Alternates';-inkscape-font-specification:'Montserrat Alternates, Normal';font-variant-ligatures:normal;font-variant-caps:normal;font-variant-numeric:normal;font-feature-settings:normal;text-align:start;writing-mode:lr-tb;text-anchor:start;fill:#ffffff"
           id="path852" /><path
           d="M 239.46374,96.819668 V 102.153 c -2.34667,-3.626665 -6.18667,-5.546665 -10.66667,-5.546665 -8,0 -13.97333,5.759995 -13.97333,14.239995 0,8.48 5.97333,14.29334 13.97333,14.29334 4.64,0 8.53334,-2.02667 10.82667,-5.81334 v 5.54667 h 3.62667 V 96.819668 Z m -10.34667,24.960002 c -5.97333,0 -10.45333,-4.37334 -10.45333,-10.93334 0,-6.56 4.48,-10.933328 10.45333,-10.933328 5.92,0 10.4,4.373328 10.4,10.933328 0,6.56 -4.48,10.93334 -10.4,10.93334 z"
           style="font-style:normal;font-variant:normal;font-weight:normal;font-stretch:normal;font-size:53.33333206px;font-family:'Montserrat Alternates';-inkscape-font-specification:'Montserrat Alternates, Normal';font-variant-ligatures:normal;font-variant-caps:normal;font-variant-numeric:normal;font-feature-settings:normal;text-align:start;writing-mode:lr-tb;text-anchor:start;fill:#ffffff"
           id="path854" /><path
           d="m 261.68958,125.13967 c 1.12,0 2.34666,-0.21334 3.41333,-0.58667 l -0.26667,-3.14667 c -0.58666,0.26667 -1.54666,0.48 -2.56,0.48 -3.14666,0 -4.69333,-1.81333 -4.69333,-5.12 V 85.299669 h -3.78667 v 31.786661 c 0,5.01334 2.77334,8.05334 7.89334,8.05334 z"
           style="font-style:normal;font-variant:normal;font-weight:normal;font-stretch:normal;font-size:53.33333206px;font-family:'Montserrat Alternates';-inkscape-font-specification:'Montserrat Alternates, Normal';font-variant-ligatures:normal;font-variant-caps:normal;font-variant-numeric:normal;font-feature-settings:normal;text-align:start;writing-mode:lr-tb;text-anchor:start;fill:#ffffff"
           id="path856" /></g></g></g></svg>
