<svg>
 <symbol id="mastodon-svg-logo" viewBox="-0.147 -0.063 100 100" xmlns="http://www.w3.org/2000/svg">
 <g transform="translate(0 -25.65)" fill="#fff">
 <path d="M49.846 90.064c-7.042 0-12.904-5.028-14.204-11.689H-.001c1.447 26.281 23.213 47.147 49.853 47.147 26.644 0 48.407-20.866 49.854-47.147H64.048c-1.299 6.661-7.16 11.689-14.202 11.689z"/>
 <circle transform="translate(0 25)" cx="49.853" cy="50.587" r="10.341"/>
 <path d="M49.853 25.65c-26.64 0-48.407 20.866-49.854 47.148h35.643c1.3-6.66 7.164-11.689 14.205-11.689 7.042 0 12.901 5.029 14.201 11.69h35.658C98.26 46.515 76.497 25.65 49.852 25.65zm-8.482 8.852c3.09 0 5.43 1.189 6.978 3.565l1.504 2.521 1.504-2.521c1.547-2.376 3.888-3.565 6.978-3.565 2.671 0 4.822.938 6.465 2.77 1.593 1.831 2.387 4.308 2.387 7.423v15.242h-6.04V45.142c0-3.118-1.312-4.7-3.937-4.7-2.902 0-4.355 1.876-4.355 5.589v8.098H46.85V46.03c0-3.713-1.454-5.59-4.356-5.59-2.624 0-3.937 1.583-3.937 4.701v14.795h-6.04V44.695c0-3.115.794-5.592 2.388-7.423 1.643-1.832 3.793-2.77 6.464-2.77z"/>
 </g>
 </symbol>
</svg>