<?xml version="1.0" standalone="no"?>
  <!DOCTYPE svg PUBLIC "-//W3C//DTD SVG 1.1//EN" "http://www.w3.org/Graphics/SVG/1.1/DTD/svg11.dtd" >
  <svg>
  <metadata>
  Created by font-carrier
  </metadata>
  <defs>
  <font id="BreezeSans-Medium" horiz-adv-x="1572" vert-adv-y="1572" >
    <font-face
      
      font-family="BreezeSans"
      
      font-weight="400"
      
      font-stretch="normal"
      
      units-per-em="1000"
      
      ascent="930"
      
      descent="-270"
      
    />
      <missing-glyph />

      

      
      <glyph glyph-name="uni2e" unicode="&#x2e;" d="M205 60Q205 28 184.50 9Q164-10 130-10Q96-10 75.50 9Q55 28 55 60Q55 92 75.50 111Q96 130 130 130Q164 130 184.50 111Q205 92 205 60Z"  horiz-adv-x="260" vert-adv-y="1000"  />

      
      <glyph glyph-name="uni3a" unicode="&#x3a;" d="M205 60Q205 28 184.50 9Q164-10 130-10Q96-10 75.50 9Q55 28 55 60Q55 92 75.50 111Q96 130 130 130Q164 130 184.50 111Q205 92 205 60M205 440Q205 408 184.50 389Q164 370 130 370Q96 370 75.50 389Q55 408 55 440Q55 472 75.50 491Q96 510 130 510Q164 510 184.50 491Q205 472 205 440Z"  horiz-adv-x="260" vert-adv-y="1000"  />

      
      <glyph glyph-name="uni2c" unicode="&#x2c;" d="M8-124Q24-95 36.50-68Q49-41 58-12Q67 17 71.50 51Q76 85 77 129L199 119Q199 90 192 53Q185 16 171-22.50Q157-61 136.50-98Q116-135 88-165L8-124Z"  horiz-adv-x="260" vert-adv-y="1000"  />

      
      <glyph glyph-name="uni3b" unicode="&#x3b;" d="M8-124Q24-95 36.50-68Q49-41 58-12Q67 17 71.50 51Q76 85 77 129L199 119Q199 90 192 53Q185 16 171-22.50Q157-61 136.50-98Q116-135 88-165L8-124M214 440Q214 408 193.50 389Q173 370 139 370Q105 370 84.50 389Q64 408 64 440Q64 472 84.50 491Q105 510 139 510Q173 510 193.50 491Q214 472 214 440Z"  horiz-adv-x="260" vert-adv-y="1000"  />

      
      <glyph glyph-name="uni3f" unicode="&#x3f;" d="M160 217Q160 252 169 280Q178 308 192.50 331Q207 354 225.50 373Q244 392 262 410Q283 430 298 445.50Q313 461 322 475Q331 489 335.50 502.50Q340 516 340 531Q340 571 310.50 593Q281 615 234 615Q193 615 153 599Q113 583 75 554L27 633Q43 649 65 664Q87 679 113.50 691Q140 703 171.50 710Q203 717 238 717Q285 717 326 703.50Q367 690 397 665.50Q427 641 444 606.50Q461 572 461 530Q461 501 453 478.50Q445 456 431.50 436.50Q418 417 401 400Q384 383 366 367Q350 352 334.50 336.50Q319 321 306 303.50Q293 286 284.50 265Q276 244 274 217L160 217M292 60Q292 28 271.50 9Q251-10 217-10Q183-10 162.50 9Q142 28 142 60Q142 92 162.50 111Q183 130 217 130Q251 130 271.50 111Q292 92 292 60Z"  horiz-adv-x="515" vert-adv-y="1000"  />

      
      <glyph glyph-name="uni21" unicode="&#x21;" d="M198 217L83 217L83 705L198 715L198 217M215 60Q215 28 194.50 9Q174-10 140-10Q106-10 85.50 9Q65 28 65 60Q65 92 85.50 111Q106 130 140 130Q174 130 194.50 111Q215 92 215 60Z"  horiz-adv-x="280" vert-adv-y="1000"  />

      
      <glyph glyph-name="unibf" unicode="&#xbf;" d="M488-113Q472-129 450-144Q428-159 401.50-171Q375-183 343.50-190Q312-197 277-197Q230-197 189-183.50Q148-170 118-145.50Q88-121 71-86.50Q54-52 54-10Q54 18 62 41Q70 64 83.50 83.50Q97 103 114 120Q131 137 149 153Q165 168 180.50 183.50Q196 199 209 216.50Q222 234 230.50 255Q239 276 241 303L355 303Q355 268 346 240Q337 212 322.50 189Q308 166 289.50 147Q271 128 253 110Q232 90 217 74.50Q202 59 193 45Q184 31 179.50 17.50Q175 4 175-11Q175-51 204.50-73Q234-95 281-95Q322-95 362-79Q402-63 440-34L488-113M373 460Q373 428 352.50 409Q332 390 298 390Q264 390 243.50 409Q223 428 223 460Q223 492 243.50 511Q264 530 298 530Q332 530 352.50 511Q373 492 373 460Z"  horiz-adv-x="515" vert-adv-y="1000"  />

      
      <glyph glyph-name="unia1" unicode="&#xa1;" d="M197-185L82-195L82 303L197 303L197-185M215 460Q215 428 194.50 409Q174 390 140 390Q106 390 85.50 409Q65 428 65 460Q65 492 85.50 511Q106 530 140 530Q174 530 194.50 511Q215 492 215 460Z"  horiz-adv-x="280" vert-adv-y="1000"  />

      
      <glyph glyph-name="uni27" unicode="&#x27;" d="M150 436L61 436L46 699L164 710L150 436Z"  horiz-adv-x="210" vert-adv-y="1000"  />

      
      <glyph glyph-name="uni22" unicode="&#x22;" d="M150 436L61 436L46 699L164 710L150 436M343 436L254 436L239 699L357 710L343 436Z"  horiz-adv-x="403" vert-adv-y="1000"  />

      
      <glyph glyph-name="uni203C" unicode="&#x203C;" d="M198 217L83 217L83 705L198 715L198 217M215 60Q215 28 194.50 9Q174-10 140-10Q106-10 85.50 9Q65 28 65 60Q65 92 85.50 111Q106 130 140 130Q174 130 194.50 111Q215 92 215 60M473 217L358 217L358 705L473 715L473 217M490 60Q490 28 469.50 9Q449-10 415-10Q381-10 360.50 9Q340 28 340 60Q340 92 360.50 111Q381 130 415 130Q449 130 469.50 111Q490 92 490 60Z"  horiz-adv-x="555" vert-adv-y="1000"  />

      
      <glyph glyph-name="uni2047" unicode="&#x2047;" d="M160 217Q160 252 169 280Q178 308 192.50 331Q207 354 225.50 373Q244 392 262 410Q283 430 298 445.50Q313 461 322 475Q331 489 335.50 502.50Q340 516 340 531Q340 571 310.50 593Q281 615 234 615Q193 615 153 599Q113 583 75 554L27 633Q43 649 65 664Q87 679 113.50 691Q140 703 171.50 710Q203 717 238 717Q285 717 326 703.50Q367 690 397 665.50Q427 641 444 606.50Q461 572 461 530Q461 501 453 478.50Q445 456 431.50 436.50Q418 417 401 400Q384 383 366 367Q350 352 334.50 336.50Q319 321 306 303.50Q293 286 284.50 265Q276 244 274 217L160 217M292 60Q292 28 271.50 9Q251-10 217-10Q183-10 162.50 9Q142 28 142 60Q142 92 162.50 111Q183 130 217 130Q251 130 271.50 111Q292 92 292 60M647 217Q647 252 656 280Q665 308 679.50 331Q694 354 712.50 373Q731 392 749 410Q770 430 785 445.50Q800 461 809 475Q818 489 822.50 502.50Q827 516 827 531Q827 571 797.50 593Q768 615 721 615Q680 615 640 599Q600 583 562 554L514 633Q530 649 552 664Q574 679 600.50 691Q627 703 658.50 710Q690 717 725 717Q772 717 813 703.50Q854 690 884 665.50Q914 641 931 606.50Q948 572 948 530Q948 501 940 478.50Q932 456 918.50 436.50Q905 417 888 400Q871 383 853 367Q837 352 821.50 336.50Q806 321 793 303.50Q780 286 771.50 265Q763 244 761 217L647 217M779 60Q779 28 758.50 9Q738-10 704-10Q670-10 649.50 9Q629 28 629 60Q629 92 649.50 111Q670 130 704 130Q738 130 758.50 111Q779 92 779 60Z"  horiz-adv-x="1002" vert-adv-y="1000"  />

      
      <glyph glyph-name="uni2048" unicode="&#x2048;" d="M160 217Q160 252 169 280Q178 308 192.50 331Q207 354 225.50 373Q244 392 262 410Q283 430 298 445.50Q313 461 322 475Q331 489 335.50 502.50Q340 516 340 531Q340 571 310.50 593Q281 615 234 615Q193 615 153 599Q113 583 75 554L27 633Q43 649 65 664Q87 679 113.50 691Q140 703 171.50 710Q203 717 238 717Q285 717 326 703.50Q367 690 397 665.50Q427 641 444 606.50Q461 572 461 530Q461 501 453 478.50Q445 456 431.50 436.50Q418 417 401 400Q384 383 366 367Q350 352 334.50 336.50Q319 321 306 303.50Q293 286 284.50 265Q276 244 274 217L160 217M292 60Q292 28 271.50 9Q251-10 217-10Q183-10 162.50 9Q142 28 142 60Q142 92 162.50 111Q183 130 217 130Q251 130 271.50 111Q292 92 292 60M697 217L582 217L582 705L697 715L697 217M714 60Q714 28 693.50 9Q673-10 639-10Q605-10 584.50 9Q564 28 564 60Q564 92 584.50 111Q605 130 639 130Q673 130 693.50 111Q714 92 714 60Z"  horiz-adv-x="779" vert-adv-y="1000"  />

      
      <glyph glyph-name="uni2049" unicode="&#x2049;" d="M198 217L83 217L83 705L198 715L198 217M215 60Q215 28 194.50 9Q174-10 140-10Q106-10 85.50 9Q65 28 65 60Q65 92 85.50 111Q106 130 140 130Q174 130 194.50 111Q215 92 215 60M410 217Q410 252 419 280Q428 308 442.50 331Q457 354 475.50 373Q494 392 512 410Q533 430 548 445.50Q563 461 572 475Q581 489 585.50 502.50Q590 516 590 531Q590 571 560.50 593Q531 615 484 615Q443 615 403 599Q363 583 325 554L277 633Q293 649 315 664Q337 679 363.50 691Q390 703 421.50 710Q453 717 488 717Q535 717 576 703.50Q617 690 647 665.50Q677 641 694 606.50Q711 572 711 530Q711 501 703 478.50Q695 456 681.50 436.50Q668 417 651 400Q634 383 616 367Q600 352 584.50 336.50Q569 321 556 303.50Q543 286 534.50 265Q526 244 524 217L410 217M542 60Q542 28 521.50 9Q501-10 467-10Q433-10 412.50 9Q392 28 392 60Q392 92 412.50 111Q433 130 467 130Q501 130 521.50 111Q542 92 542 60Z"  horiz-adv-x="765" vert-adv-y="1000"  />

      
      <glyph glyph-name="uni2025" unicode="&#x2025;" d="M205 60Q205 28 184.50 9Q164-10 130-10Q96-10 75.50 9Q55 28 55 60Q55 92 75.50 111Q96 130 130 130Q164 130 184.50 111Q205 92 205 60M466 60Q466 28 445.50 9Q425-10 391-10Q357-10 336.50 9Q316 28 316 60Q316 92 336.50 111Q357 130 391 130Q425 130 445.50 111Q466 92 466 60Z"  horiz-adv-x="521" vert-adv-y="1000"  />

      
      <glyph glyph-name="uni2026" unicode="&#x2026;" d="M205 60Q205 28 184.50 9Q164-10 130-10Q96-10 75.50 9Q55 28 55 60Q55 92 75.50 111Q96 130 130 130Q164 130 184.50 111Q205 92 205 60M466 60Q466 28 445.50 9Q425-10 391-10Q357-10 336.50 9Q316 28 316 60Q316 92 336.50 111Q357 130 391 130Q425 130 445.50 111Q466 92 466 60M728 60Q728 28 707.50 9Q687-10 653-10Q619-10 598.50 9Q578 28 578 60Q578 92 598.50 111Q619 130 653 130Q687 130 707.50 111Q728 92 728 60Z"  horiz-adv-x="783" vert-adv-y="1000"  />

      
      <glyph glyph-name="uniF63F" unicode="&#xF63F;" d="M122 170Q122 199 128.50 222Q135 245 146 263Q157 281 170 296Q183 311 197 323Q230 354 243.50 373.50Q257 393 257 414Q257 442 236 457Q215 472 184 472Q153 472 123 459Q93 446 63 423L18 497Q44 521 87 543Q130 565 189 565Q228 565 261 554.50Q294 544 318 524.50Q342 505 356 477.50Q370 450 370 416Q370 393 364 375Q358 357 348 342Q338 327 325 314Q312 301 298 288Q269 261 250 235.50Q231 210 228 170L122 170M245 52Q245 24 226.50 7Q208-10 176-10Q144-10 125.50 7Q107 24 107 52Q107 81 125.50 97.50Q144 114 176 114Q208 114 226.50 97.50Q245 81 245 52Z"  horiz-adv-x="415" vert-adv-y="1000"  />

      
      <glyph glyph-name="uniF63E" unicode="&#xF63E;" d="M193 52Q193 24 174.50 7Q156-10 124-10Q92-10 73.50 7Q55 24 55 52Q55 81 73.50 97.50Q92 114 124 114Q156 114 174.50 97.50Q193 81 193 52M178 170L69 170L69 554L178 563L178 170Z"  horiz-adv-x="248" vert-adv-y="1000"  />

      
      <glyph glyph-name="uniF642" unicode="&#xF642;" d="M397 58Q371 34 328 12Q285-10 226-10Q187-10 154 0.50Q121 11 97 30.50Q73 50 59 77.50Q45 105 45 139Q45 185 66.50 213Q88 241 117 267Q146 294 165 319.50Q184 345 187 385L293 385Q293 356 286.50 333Q280 310 269 292Q258 274 244.50 259Q231 244 218 232Q185 201 171.50 181.50Q158 162 158 141Q158 113 179 98Q200 83 231 83Q262 83 292 96Q322 109 352 132L397 58M308 503Q308 474 289.50 457.50Q271 441 239 441Q207 441 188.50 457.50Q170 474 170 503Q170 531 188.50 548Q207 565 239 565Q271 565 289.50 548Q308 531 308 503Z"  horiz-adv-x="415" vert-adv-y="1000"  />

      
      <glyph glyph-name="uniF643" unicode="&#xF643;" d="M178 2L69-8L69 385L178 385L178 2M193 503Q193 474 174 457.50Q155 441 124 441Q93 441 74 457.50Q55 474 55 503Q55 532 74 548.50Q93 565 124 565Q155 565 174 548.50Q193 532 193 503Z"  horiz-adv-x="248" vert-adv-y="1000"  />

      
      <glyph glyph-name="uni30" unicode="&#x30;" d="M339 110Q364 130 378.50 164.50Q393 199 399 245Q405 291 405 345Q405 399 399 445Q393 491 378.50 525.50Q364 560 339.50 579.50Q315 599 279 599Q243 599 219 579.50Q195 560 180.50 525.50Q166 491 160 445Q154 399 154 345Q154 291 160 245Q166 199 180.50 164.50Q195 130 219 110.50Q243 91 279 91Q315 91 339 110M465 97Q436 48 389.50 19Q343-10 279-10Q214-10 168 19Q122 48 92.50 97Q63 146 49 210Q35 274 35 345Q35 415 49 479.50Q63 544 92.50 593Q122 642 168 671Q214 700 279 700Q343 700 389.50 671Q436 642 465.50 593Q495 544 509 479.50Q523 415 523 345Q523 274 509 210Q495 146 465 97Z"  horiz-adv-x="558" vert-adv-y="1000"  />

      
      <glyph glyph-name="uni31" unicode="&#x31;" d="M394 0L278 0L278 573L110 509L80 602L299 690L394 690L394 0Z"  horiz-adv-x="558" vert-adv-y="1000"  />

      
      <glyph glyph-name="uni32" unicode="&#x32;" d="M487 0L62 0Q60 13 58.50 25Q57 37 57 52Q57 105 74 146.50Q91 188 118 221.50Q145 255 178 283Q211 311 244 336Q269 355 292.50 374Q316 393 333.50 412.50Q351 432 361.50 453.50Q372 475 372 500Q372 545 342.50 572Q313 599 263 599Q225 599 187 581Q149 563 112 528L57 609Q102 653 155.50 676.50Q209 700 269 700Q315 700 355.50 686Q396 672 426 646Q456 620 473.50 583Q491 546 491 500Q491 461 478 429.50Q465 398 444 371.50Q423 345 395.50 322.50Q368 300 339 278Q315 260 291 241Q267 222 246 200.50Q225 179 208.50 154Q192 129 183 99L487 99L487 0Z"  horiz-adv-x="558" vert-adv-y="1000"  />

      
      <glyph glyph-name="uni33" unicode="&#x33;" d="M77 162Q92 147 111.50 134.50Q131 122 154 112Q177 102 201.50 96.50Q226 91 251 91Q306 91 343 118Q380 145 380 196Q380 223 368.50 244Q357 265 337.50 279.50Q318 294 292 301.50Q266 309 236 309L180 309L180 406L226 406Q251 406 273.50 412.50Q296 419 312.50 431.50Q329 444 339 462.50Q349 481 349 506Q349 550 320.50 574.50Q292 599 249 599Q210 599 172 579.50Q134 560 100 528L45 609Q90 654 142.50 677Q195 700 256 700Q304 700 343 686Q382 672 409.50 647.50Q437 623 452.50 590Q468 557 468 520Q468 463 435.50 425Q403 387 351 361Q379 351 405.50 335.50Q432 320 453 298.50Q474 277 486.50 248Q499 219 499 182Q499 139 481.50 104Q464 69 431.50 43.50Q399 18 354.50 4Q310-10 256-10Q193-10 132 11Q71 32 22 81L77 162Z"  horiz-adv-x="558" vert-adv-y="1000"  />

      
      <glyph glyph-name="uni34" unicode="&#x34;" d="M442 0L338 0L338 153L33 153L27 213L341 690L442 690L442 247L518 247L518 153L442 153L442 0M338 247L338 527L157 247L338 247Z"  horiz-adv-x="558" vert-adv-y="1000"  />

      
      <glyph glyph-name="uni35" unicode="&#x35;" d="M94 161Q129 127 167 109Q205 91 250 91Q308 91 344.50 122Q381 153 381 214Q381 247 369.50 271.50Q358 296 339.50 311.50Q321 327 296.50 334.50Q272 342 246 342Q223 342 192.50 335Q162 328 132 310L79 348L91 690L453 690L453 591L196 591L189 417Q232 434 281 434Q324 434 364 418.50Q404 403 434 374.50Q464 346 482 305.50Q500 265 500 214Q500 163 482 122Q464 81 431.50 51.50Q399 22 355 6Q311-10 259-10Q200-10 144 12Q88 34 41 81L94 161Z"  horiz-adv-x="558" vert-adv-y="1000"  />

      
      <glyph glyph-name="uni36" unicode="&#x36;" d="M445 555Q416 575 380.50 587Q345 599 313 599Q276 599 249 582Q222 565 204.50 535Q187 505 177.50 463.50Q168 422 166 374Q198 404 237.50 421.50Q277 439 322 439Q364 439 401 423Q438 407 465.50 378Q493 349 509 309Q525 269 525 220Q525 169 508 127Q491 85 460.50 54.50Q430 24 388 7Q346-10 297-10Q232-10 186 18.50Q140 47 110 94.50Q80 142 66 204Q52 266 52 333Q52 369 57 410.50Q62 452 73.50 493Q85 534 104 571.50Q123 609 151.50 637.50Q180 666 219 683Q258 700 309 700Q398 700 483 645L445 555M224 326Q192 310 167 284Q175 190 208 140.50Q241 91 299 91Q351 91 381.50 127.50Q412 164 412 219Q412 274 380.50 308.50Q349 343 295 343Q257 343 224 326Z"  horiz-adv-x="558" vert-adv-y="1000"  />

      
      <glyph glyph-name="uni37" unicode="&#x37;" d="M171 0Q171 82 188.50 163Q206 244 233.50 319.50Q261 395 294.50 463.50Q328 532 360 591L54 591L54 690L495 690L501 623Q462 555 423.50 482.50Q385 410 354 332.50Q323 255 303.50 171.50Q284 88 284 0L171 0Z"  horiz-adv-x="558" vert-adv-y="1000"  />

      
      <glyph glyph-name="uni38" unicode="&#x38;" d="M472 426Q446 385 395 362Q449 339 483.50 296.50Q518 254 518 188Q518 144 500.50 107.50Q483 71 451.50 45Q420 19 376 4.50Q332-10 279-10Q226-10 182 4.50Q138 19 106.50 45Q75 71 57.50 107.50Q40 144 40 188Q40 254 74 296Q109 339 163 362Q112 385 85.50 426.50Q59 468 59 518Q59 554 73.50 586.50Q88 619 116.50 644.50Q145 670 185.50 685Q226 700 279 700Q331 700 372 685Q413 670 441 644.50Q469 619 484 586.50Q499 554 499 518Q499 468 472 426M371 116Q406 147 406 198Q406 249 371 281.50Q336 314 279 314Q222 314 187 281.50Q152 249 152 198Q152 147 187 116.50Q222 86 279 86Q336 86 371 116M356 436Q385 464 385 506Q385 525 379 542.50Q373 560 360 573.50Q347 587 327 595.50Q307 604 279 604Q251 604 231 595.50Q211 587 198 573.50Q185 560 179 542.50Q173 525 173 506Q173 464 202 436Q231 408 279 408Q327 408 356 436Z"  horiz-adv-x="558" vert-adv-y="1000"  />

      
      <glyph glyph-name="uni39" unicode="&#x39;" d="M87 145Q121 124 160.50 107.50Q200 91 243 91Q282 91 310 107.50Q338 124 356.50 153.50Q375 183 384.50 223.50Q394 264 397 313Q358 283 321 267.50Q284 252 242 252Q198 252 161 268.50Q124 285 97 314.50Q70 344 54.50 384Q39 424 39 471Q39 516 54 557.50Q69 599 97.50 630.50Q126 662 167.50 681Q209 700 263 700Q329 700 376 671.50Q423 643 453 595Q483 547 497 483.50Q511 420 511 350Q511 281 497 216.50Q483 152 452 101.50Q421 51 370.50 20.50Q320-10 248-10Q193-10 141.50 8Q90 26 50 55L87 145M336 364Q370 381 395 407Q386 511 349 555Q312 599 263 599Q237 599 216 588.50Q195 578 181 560.50Q167 543 159.50 519.50Q152 496 152 470Q152 413 184 380.50Q216 348 267 348Q303 348 336 364Z"  horiz-adv-x="558" vert-adv-y="1000"  />

      
      <glyph glyph-name="uniF800" unicode="&#xF800;" d="M347 110Q372 130 386.50 164.50Q401 199 407 245Q413 291 413 345Q413 399 407 445Q401 491 386.50 525.50Q372 560 347.50 579.50Q323 599 287 599Q251 599 227 579.50Q203 560 188.50 525.50Q174 491 168 445Q162 399 162 345Q162 291 168 245Q174 199 188.50 164.50Q203 130 227 110.50Q251 91 287 91Q323 91 347 110M473 97Q444 48 397.50 19Q351-10 287-10Q222-10 176 19Q130 48 100.50 97Q71 146 57 210Q43 274 43 345Q43 415 57 479.50Q71 544 100.50 593Q130 642 176 671Q222 700 287 700Q351 700 397.50 671Q444 642 473.50 593Q503 544 517 479.50Q531 415 531 345Q531 274 517 210Q503 146 473 97Z"  horiz-adv-x="574" vert-adv-y="1000"  />

      
      <glyph glyph-name="uniF801" unicode="&#xF801;" d="M343 0L227 0L227 573L59 509L29 602L248 690L343 690L343 0Z"  horiz-adv-x="435" vert-adv-y="1000"  />

      
      <glyph glyph-name="uniF802" unicode="&#xF802;" d="M467 0L42 0Q40 13 38.50 25Q37 37 37 52Q37 105 54 146.50Q71 188 98 221.50Q125 255 158 283Q191 311 224 336Q249 355 272.50 374Q296 393 313.50 412.50Q331 432 341.50 453.50Q352 475 352 500Q352 545 322.50 572Q293 599 243 599Q205 599 167 581Q129 563 92 528L37 609Q82 653 135.50 676.50Q189 700 249 700Q295 700 335.50 686Q376 672 406 646Q436 620 453.50 583Q471 546 471 500Q471 461 458 429.50Q445 398 424 371.50Q403 345 375.50 322.50Q348 300 319 278Q295 260 271 241Q247 222 226 200.50Q205 179 188.50 154Q172 129 163 99L467 99L467 0Z"  horiz-adv-x="521" vert-adv-y="1000"  />

      
      <glyph glyph-name="uniF803" unicode="&#xF803;" d="M74 162Q89 147 108.50 134.50Q128 122 151 112Q174 102 198.50 96.50Q223 91 248 91Q303 91 340 118Q377 145 377 196Q377 223 365.50 244Q354 265 334.50 279.50Q315 294 289 301.50Q263 309 233 309L177 309L177 406L223 406Q248 406 270.50 412.50Q293 419 309.50 431.50Q326 444 336 462.50Q346 481 346 506Q346 550 317.50 574.50Q289 599 246 599Q207 599 169 579.50Q131 560 97 528L42 609Q87 654 139.50 677Q192 700 253 700Q301 700 340 686Q379 672 406.50 647.50Q434 623 449.50 590Q465 557 465 520Q465 463 432.50 425Q400 387 348 361Q376 351 402.50 335.50Q429 320 450 298.50Q471 277 483.50 248Q496 219 496 182Q496 139 478.50 104Q461 69 428.50 43.50Q396 18 351.50 4Q307-10 253-10Q190-10 129 11Q68 32 19 81L74 162Z"  horiz-adv-x="530" vert-adv-y="1000"  />

      
      <glyph glyph-name="uniF804" unicode="&#xF804;" d="M445 0L341 0L341 153L36 153L30 213L344 690L445 690L445 247L521 247L521 153L445 153L445 0M341 247L341 527L160 247L341 247Z"  horiz-adv-x="565" vert-adv-y="1000"  />

      
      <glyph glyph-name="uniF805" unicode="&#xF805;" d="M88 161Q123 127 161 109Q199 91 244 91Q302 91 338.50 122Q375 153 375 214Q375 247 363.50 271.50Q352 296 333.50 311.50Q315 327 290.50 334.50Q266 342 240 342Q217 342 186.50 335Q156 328 126 310L73 348L85 690L447 690L447 591L190 591L183 417Q226 434 275 434Q318 434 358 418.50Q398 403 428 374.50Q458 346 476 305.50Q494 265 494 214Q494 163 476 122Q458 81 425.50 51.50Q393 22 349 6Q305-10 253-10Q194-10 138 12Q82 34 35 81L88 161Z"  horiz-adv-x="524" vert-adv-y="1000"  />

      
      <glyph glyph-name="uniF806" unicode="&#xF806;" d="M441 555Q412 575 376.50 587Q341 599 309 599Q272 599 245 582Q218 565 200.50 535Q183 505 173.50 463.50Q164 422 162 374Q194 404 233.50 421.50Q273 439 318 439Q360 439 397 423Q434 407 461.50 378Q489 349 505 309Q521 269 521 220Q521 169 504 127Q487 85 456.50 54.50Q426 24 384 7Q342-10 293-10Q228-10 182 18.50Q136 47 106 94.50Q76 142 62 204Q48 266 48 333Q48 369 53 410.50Q58 452 69.50 493Q81 534 100 571.50Q119 609 147.50 637.50Q176 666 215 683Q254 700 305 700Q394 700 479 645L441 555M220 326Q188 310 163 284Q171 190 204 140.50Q237 91 295 91Q347 91 377.50 127.50Q408 164 408 219Q408 274 376.50 308.50Q345 343 291 343Q253 343 220 326Z"  horiz-adv-x="555" vert-adv-y="1000"  />

      
      <glyph glyph-name="uniF807" unicode="&#xF807;" d="M131 0Q131 82 148.50 163Q166 244 193.50 319.50Q221 395 254.50 463.50Q288 532 320 591L14 591L14 690L455 690L461 623Q422 555 383.50 482.50Q345 410 314 332.50Q283 255 263.50 171.50Q244 88 244 0L131 0Z"  horiz-adv-x="474" vert-adv-y="1000"  />

      
      <glyph glyph-name="uniF808" unicode="&#xF808;" d="M485 426Q459 385 408 362Q462 339 496.50 296.50Q531 254 531 188Q531 144 513.50 107.50Q496 71 464.50 45Q433 19 389 4.50Q345-10 292-10Q239-10 195 4.50Q151 19 119.50 45Q88 71 70.50 107.50Q53 144 53 188Q53 254 87 296Q122 339 176 362Q125 385 98.50 426.50Q72 468 72 518Q72 554 86.50 586.50Q101 619 129.50 644.50Q158 670 198.50 685Q239 700 292 700Q344 700 385 685Q426 670 454 644.50Q482 619 497 586.50Q512 554 512 518Q512 468 485 426M384 116Q419 147 419 198Q419 249 384 281.50Q349 314 292 314Q235 314 200 281.50Q165 249 165 198Q165 147 200 116.50Q235 86 292 86Q349 86 384 116M369 436Q398 464 398 506Q398 525 392 542.50Q386 560 373 573.50Q360 587 340 595.50Q320 604 292 604Q264 604 244 595.50Q224 587 211 573.50Q198 560 192 542.50Q186 525 186 506Q186 464 215 436Q244 408 292 408Q340 408 369 436Z"  horiz-adv-x="584" vert-adv-y="1000"  />

      
      <glyph glyph-name="uniF809" unicode="&#xF809;" d="M87 145Q121 124 160.50 107.50Q200 91 243 91Q282 91 310 107.50Q338 124 356.50 153.50Q375 183 384.50 223.50Q394 264 397 313Q358 283 321 267.50Q284 252 242 252Q198 252 161 268.50Q124 285 97 314.50Q70 344 54.50 384Q39 424 39 471Q39 516 54 557.50Q69 599 97.50 630.50Q126 662 167.50 681Q209 700 263 700Q329 700 376 671.50Q423 643 453 595Q483 547 497 483.50Q511 420 511 350Q511 281 497 216.50Q483 152 452 101.50Q421 51 370.50 20.50Q320-10 248-10Q193-10 141.50 8Q90 26 50 55L87 145M336 364Q370 381 395 407Q386 511 349 555Q312 599 263 599Q237 599 216 588.50Q195 578 181 560.50Q167 543 159.50 519.50Q152 496 152 470Q152 413 184 380.50Q216 348 267 348Q303 348 336 364Z"  horiz-adv-x="554" vert-adv-y="1000"  />

      
      <glyph glyph-name="uniF832" unicode="&#xF832;" d="M305 102Q325 119 336.50 146Q348 173 353 207.50Q358 242 358 277Q358 313 353 347.50Q348 382 336.50 409Q325 436 305 452.50Q285 469 255 469Q225 469 205 452.50Q185 436 173.50 409Q162 382 157 347.50Q152 313 152 277Q152 242 157 207.50Q162 173 173.50 146Q185 119 205 102.50Q225 86 255 86Q285 86 305 102M419 75Q393 36 352 13Q311-10 255-10Q199-10 158 13Q117 36 90.50 75.50Q64 115 51 167Q38 219 38 277Q38 335 51 387Q64 439 90.50 478.50Q117 518 158 541.50Q199 565 255 565Q311 565 352 541.50Q393 518 419.50 478.50Q446 439 459 387Q472 335 472 277Q472 219 459 167Q446 115 419 75Z"  horiz-adv-x="510" vert-adv-y="1000"  />

      
      <glyph glyph-name="uniF833" unicode="&#xF833;" d="M359 0L245 0L245 443L107 394L78 482L272 555L359 555L359 0Z"  horiz-adv-x="510" vert-adv-y="1000"  />

      
      <glyph glyph-name="uniF834" unicode="&#xF834;" d="M436 0L66 0Q64 14 62.50 26Q61 38 61 49Q61 92 76.50 126.50Q92 161 116 189.50Q140 218 169 241Q198 264 225 284Q244 297 261.50 310.50Q279 324 292.50 338Q306 352 314 368Q322 384 322 402Q322 432 301 450.50Q280 469 245 469Q215 469 181 453.50Q147 438 114 409L59 487Q100 526 149.50 545.50Q199 565 249 565Q289 565 323 553.50Q357 542 382 520.50Q407 499 421.50 469Q436 439 436 403Q436 370 424.50 343.50Q413 317 394.50 294.50Q376 272 352 253.50Q328 235 304 218Q281 202 260 186.50Q239 171 223 156Q207 141 196.50 125.50Q186 110 185 94L436 94L436 0Z"  horiz-adv-x="510" vert-adv-y="1000"  />

      
      <glyph glyph-name="uniF835" unicode="&#xF835;" d="M94 143Q119 119 159 102.50Q199 86 239 86Q282 86 308 106Q334 126 334 161Q334 199 306 220.50Q278 242 233 242L167 242L167 332L224 332Q263 332 287.50 351Q312 370 312 404Q312 436 289.50 453Q267 470 234 470Q205 470 172.50 456Q140 442 110 416L56 491Q96 528 143 546.50Q190 565 241 565Q284 565 317.50 552.50Q351 540 374.50 519Q398 498 410.50 471Q423 444 423 415Q423 374 400 342Q377 310 341 290Q362 282 381 269Q400 256 414.50 238.50Q429 221 437.50 198.50Q446 176 446 150Q446 118 432.50 89.50Q419 61 393.50 38.50Q368 16 329.50 3Q291-10 242-10Q191-10 137 7Q83 24 39 66L94 143Z"  horiz-adv-x="510" vert-adv-y="1000"  />

      
      <glyph glyph-name="uniF836" unicode="&#xF836;" d="M401 0L299 0L299 117L40 117L33 173L307 555L401 555L401 205L469 205L469 117L401 117L401 0M299 205L299 403L158 205L299 205Z"  horiz-adv-x="510" vert-adv-y="1000"  />

      
      <glyph glyph-name="uniF837" unicode="&#xF837;" d="M102 142Q133 114 168 99.50Q203 85 237 85Q279 85 307.50 107.50Q336 130 336 174Q336 196 328 213Q320 230 306 242Q292 254 273.50 260Q255 266 234 266Q215 266 187.50 260.50Q160 255 134 241L80 277L90 555L414 555L414 462L188 462L184 342Q217 352 254 352Q295 352 330.50 339Q366 326 391.50 303Q417 280 431.50 246.50Q446 213 446 173Q446 132 431 98.50Q416 65 388.50 41Q361 17 323 3.50Q285-10 239-10Q187-10 137.50 8Q88 26 46 64L102 142Z"  horiz-adv-x="510" vert-adv-y="1000"  />

      
      <glyph glyph-name="uniF838" unicode="&#xF838;" d="M393 434Q367 450 337 460Q307 470 281 470Q253 470 232 457Q211 444 196 422.50Q181 401 172.50 372Q164 343 162 311Q188 331 218.50 342.50Q249 354 284 354Q321 354 353.50 341Q386 328 410.50 304.50Q435 281 449 248Q463 215 463 176Q463 135 448.50 101Q434 67 408 42.50Q382 18 346.50 4Q311-10 269-10Q213-10 171.50 12.50Q130 35 103 73Q76 111 62.50 161.50Q49 212 49 269Q49 324 62 377Q75 430 102 472Q129 514 172 539.50Q215 565 275 565Q313 565 353.50 553.50Q394 542 432 519L393 434M209 253Q183 241 164 218Q167 189 174.50 164.50Q182 140 195.50 121Q209 102 227 91.50Q245 81 269 81Q287 81 302 88Q318 95 329.50 107.50Q341 120 347.50 137.50Q354 155 354 175Q354 214 329 239.50Q304 265 262 265Q236 265 209 253Z"  horiz-adv-x="510" vert-adv-y="1000"  />

      
      <glyph glyph-name="uniF839" unicode="&#xF839;" d="M162 0Q162 64 176.50 127.50Q191 191 214 250.50Q237 310 265 363.50Q293 417 320 462L61 462L61 555L446 555L453 494Q421 442 389 384Q357 326 331 264Q305 202 289 135.50Q273 69 273 0L162 0Z"  horiz-adv-x="510" vert-adv-y="1000"  />

      
      <glyph glyph-name="uniF83A" unicode="&#xF83A;" d="M423 345Q403 312 365 293Q407 274 433.50 238.50Q460 203 460 153Q460 115 444 84.50Q428 54 400 33Q372 12 334.50 1Q297-10 255-10Q213-10 175.50 1Q138 12 110.50 33Q83 54 66.50 84.50Q50 115 50 153Q50 203 76 238Q103 274 145 293Q107 312 86.50 345.50Q66 379 66 417Q66 450 80.50 477.50Q95 505 120.50 524.50Q146 544 180.50 554.50Q215 565 255 565Q295 565 329.50 554.50Q364 544 389.50 524.50Q415 505 429.50 477.50Q444 450 444 417Q444 379 423 345M323 99Q352 121 352 162Q352 202 323.50 225Q295 248 254 248Q214 248 185.50 225Q157 202 157 162Q157 121 185.50 99Q214 77 254 77Q295 77 323 99M314 354Q339 374 339 408Q339 441 315 459.50Q291 478 255 478Q220 478 195.50 459.50Q171 441 171 408Q171 374 196.50 354.50Q222 335 255 335Q289 335 314 354Z"  horiz-adv-x="510" vert-adv-y="1000"  />

      
      <glyph glyph-name="uniF83B" unicode="&#xF83B;" d="M92 129Q121 112 156.50 98.50Q192 85 226 85Q255 85 276.50 98.50Q298 112 312.50 133.50Q327 155 335 183.50Q343 212 345 242Q322 224 290.50 213.50Q259 203 227 203Q191 203 158.50 216Q126 229 102 252Q78 275 64 308Q50 341 50 380Q50 417 63.50 450.50Q77 484 102 509.50Q127 535 163 550Q199 565 244 565Q301 565 341.50 541Q382 517 407.50 477.50Q433 438 445 387.50Q457 337 457 283Q457 227 444 174.50Q431 122 403.50 81Q376 40 332 15Q288-10 226-10Q136-10 54 44L92 129M298 303Q326 314 344 336Q337 398 310 435.50Q283 473 241 473Q204 473 182 446Q160 419 160 382Q160 340 185.50 316Q211 292 247 292Q271 292 298 303Z"  horiz-adv-x="510" vert-adv-y="1000"  />

      
      <glyph glyph-name="uniF83C" unicode="&#xF83C;" d="M311 102Q331 119 342.50 146Q354 173 359 207.50Q364 242 364 277Q364 313 359 347.50Q354 382 342.50 409Q331 436 311 452.50Q291 469 261 469Q231 469 211 452.50Q191 436 179.50 409Q168 382 163 347.50Q158 313 158 277Q158 242 163 207.50Q168 173 179.50 146Q191 119 211 102.50Q231 86 261 86Q291 86 311 102M425 75Q399 36 358 13Q317-10 261-10Q205-10 164 13Q123 36 96.50 75.50Q70 115 57 167Q44 219 44 277Q44 335 57 387Q70 439 96.50 478.50Q123 518 164 541.50Q205 565 261 565Q317 565 358 541.50Q399 518 425.50 478.50Q452 439 465 387Q478 335 478 277Q478 219 465 167Q452 115 425 75Z"  horiz-adv-x="522" vert-adv-y="1000"  />

      
      <glyph glyph-name="uniF83D" unicode="&#xF83D;" d="M295 0L181 0L181 443L43 394L14 482L208 555L295 555L295 0Z"  horiz-adv-x="362" vert-adv-y="1000"  />

      
      <glyph glyph-name="uniF83E" unicode="&#xF83E;" d="M407 0L37 0Q35 14 33.50 26Q32 38 32 49Q32 92 47.50 126.50Q63 161 87 189.50Q111 218 140 241Q169 264 196 284Q215 297 232.50 310.50Q250 324 263.50 338Q277 352 285 368Q293 384 293 402Q293 432 272 450.50Q251 469 216 469Q186 469 152 453.50Q118 438 85 409L30 487Q71 526 120.50 545.50Q170 565 220 565Q260 565 294 553.50Q328 542 353 520.50Q378 499 392.50 469Q407 439 407 403Q407 370 395.50 343.50Q384 317 365.50 294.50Q347 272 323 253.50Q299 235 275 218Q252 202 231 186.50Q210 171 194 156Q178 141 167.50 125.50Q157 110 156 94L407 94L407 0Z"  horiz-adv-x="442" vert-adv-y="1000"  />

      
      <glyph glyph-name="uniF83F" unicode="&#xF83F;" d="M74 143Q99 119 139 102.50Q179 86 219 86Q262 86 288 106Q314 126 314 161Q314 199 286 220.50Q258 242 213 242L147 242L147 332L204 332Q243 332 267.50 351Q292 370 292 404Q292 436 269.50 453Q247 470 214 470Q185 470 152.50 456Q120 442 90 416L36 491Q76 528 123 546.50Q170 565 221 565Q264 565 297.50 552.50Q331 540 354.50 519Q378 498 390.50 471Q403 444 403 415Q403 374 380 342Q357 310 321 290Q342 282 361 269Q380 256 394.50 238.50Q409 221 417.50 198.50Q426 176 426 150Q426 118 412.50 89.50Q399 61 373.50 38.50Q348 16 309.50 3Q271-10 222-10Q171-10 117 7Q63 24 19 66L74 143Z"  horiz-adv-x="461" vert-adv-y="1000"  />

      
      <glyph glyph-name="uniF840" unicode="&#xF840;" d="M391 0L289 0L289 117L30 117L23 173L297 555L391 555L391 205L459 205L459 117L391 117L391 0M289 205L289 403L148 205L289 205Z"  horiz-adv-x="485" vert-adv-y="1000"  />

      
      <glyph glyph-name="uniF841" unicode="&#xF841;" d="M92 142Q123 114 158 99.50Q193 85 227 85Q269 85 297.50 107.50Q326 130 326 174Q326 196 318 213Q310 230 296 242Q282 254 263.50 260Q245 266 224 266Q205 266 177.50 260.50Q150 255 124 241L70 277L80 555L404 555L404 462L178 462L174 342Q207 352 244 352Q285 352 320.50 339Q356 326 381.50 303Q407 280 421.50 246.50Q436 213 436 173Q436 132 421 98.50Q406 65 378.50 41Q351 17 313 3.50Q275-10 229-10Q177-10 127.50 8Q78 26 36 64L92 142Z"  horiz-adv-x="467" vert-adv-y="1000"  />

      
      <glyph glyph-name="uniF842" unicode="&#xF842;" d="M393 434Q367 450 337 460Q307 470 281 470Q253 470 232 457Q211 444 196 422.50Q181 401 172.50 372Q164 343 162 311Q188 331 218.50 342.50Q249 354 284 354Q321 354 353.50 341Q386 328 410.50 304.50Q435 281 449 248Q463 215 463 176Q463 135 448.50 101Q434 67 408 42.50Q382 18 346.50 4Q311-10 269-10Q213-10 171.50 12.50Q130 35 103 73Q76 111 62.50 161.50Q49 212 49 269Q49 324 62 377Q75 430 102 472Q129 514 172 539.50Q215 565 275 565Q313 565 353.50 553.50Q394 542 432 519L393 434M209 253Q183 241 164 218Q167 189 174.50 164.50Q182 140 195.50 121Q209 102 227 91.50Q245 81 269 81Q287 81 302 88Q318 95 329.50 107.50Q341 120 347.50 137.50Q354 155 354 175Q354 214 329 239.50Q304 265 262 265Q236 265 209 253Z"  horiz-adv-x="487" vert-adv-y="1000"  />

      
      <glyph glyph-name="uniF843" unicode="&#xF843;" d="M115 0Q115 64 129.50 127.50Q144 191 167 250.50Q190 310 218 363.50Q246 417 273 462L14 462L14 555L399 555L406 494Q374 442 342 384Q310 326 284 264Q258 202 242 135.50Q226 69 226 0L115 0Z"  horiz-adv-x="415" vert-adv-y="1000"  />

      
      <glyph glyph-name="uniF844" unicode="&#xF844;" d="M419 345Q399 312 361 293Q403 274 429.50 238.50Q456 203 456 153Q456 115 440 84.50Q424 54 396 33Q368 12 330.50 1Q293-10 251-10Q209-10 171.50 1Q134 12 106.50 33Q79 54 62.50 84.50Q46 115 46 153Q46 203 72 238Q99 274 141 293Q103 312 82.50 345.50Q62 379 62 417Q62 450 76.50 477.50Q91 505 116.50 524.50Q142 544 176.50 554.50Q211 565 251 565Q291 565 325.50 554.50Q360 544 385.50 524.50Q411 505 425.50 477.50Q440 450 440 417Q440 379 419 345M319 99Q348 121 348 162Q348 202 319.50 225Q291 248 250 248Q210 248 181.50 225Q153 202 153 162Q153 121 181.50 99Q210 77 250 77Q291 77 319 99M310 354Q335 374 335 408Q335 441 311 459.50Q287 478 251 478Q216 478 191.50 459.50Q167 441 167 408Q167 374 192.50 354.50Q218 335 251 335Q285 335 310 354Z"  horiz-adv-x="492" vert-adv-y="1000"  />

      
      <glyph glyph-name="uniF845" unicode="&#xF845;" d="M76 129Q105 112 140.50 98.50Q176 85 210 85Q239 85 260.50 98.50Q282 112 296.50 133.50Q311 155 319 183.50Q327 212 329 242Q306 224 274.50 213.50Q243 203 211 203Q175 203 142.50 216Q110 229 86 252Q62 275 48 308Q34 341 34 380Q34 417 47.50 450.50Q61 484 86 509.50Q111 535 147 550Q183 565 228 565Q285 565 325.50 541Q366 517 391.50 477.50Q417 438 429 387.50Q441 337 441 283Q441 227 428 174.50Q415 122 387.50 81Q360 40 316 15Q272-10 210-10Q120-10 38 44L76 129M282 303Q310 314 328 336Q321 398 294 435.50Q267 473 225 473Q188 473 166 446Q144 419 144 382Q144 340 169.50 316Q195 292 231 292Q255 292 282 303Z"  horiz-adv-x="480" vert-adv-y="1000"  />

      
      <glyph glyph-name="uni2080" unicode="&#x2080;" d="M200 74Q232 74 250.50 106Q269 138 269 197Q269 256 250.50 288Q232 320 200 320Q168 320 149.50 288Q131 256 131 197Q131 138 149.50 106Q168 74 200 74M323 47Q302 20 271 5Q240-10 200-10Q160-10 129 5Q98 20 77 47.50Q56 75 45 113Q34 151 34 197Q34 243 45 281Q56 319 77 346.50Q98 374 129 389Q160 404 200 404Q240 404 271 389Q302 374 323 346.50Q344 319 355 281Q366 243 366 197Q366 151 355 113Q344 75 323 47Z"  horiz-adv-x="400" vert-adv-y="1000"  />

      
      <glyph glyph-name="uni2081" unicode="&#x2081;" d="M286 0L191 0L191 298L90 262L63 336L218 394L286 394L286 0Z"  horiz-adv-x="400" vert-adv-y="1000"  />

      
      <glyph glyph-name="uni2082" unicode="&#x2082;" d="M337 0L57 0Q56 5 55.50 12Q55 19 55 27Q55 56 64.50 80Q74 104 89.50 124.50Q105 145 124 162Q143 179 162 194Q191 217 213.50 238Q236 259 236 280Q236 298 222.50 309Q209 320 186 320Q162 320 137.50 309Q113 298 94 281L48 347Q77 373 116 388.50Q155 404 195 404Q224 404 249.50 395.50Q275 387 293.50 371.50Q312 356 322.50 334Q333 312 333 285Q333 262 325.50 244Q318 226 304.50 209.50Q291 193 273 178Q255 163 234 147Q203 123 187 108Q171 93 163 79L337 79L337 0Z"  horiz-adv-x="400" vert-adv-y="1000"  />

      
      <glyph glyph-name="uni2083" unicode="&#x2083;" d="M139 164L139 238L178 238Q201 238 218.50 248Q236 258 236 280Q236 301 220 310.50Q204 320 184 320Q161 320 137 309Q113 298 94 281L48 347Q77 373 116 388.50Q155 404 195 404Q222 404 247 397Q272 390 291 376.50Q310 363 321.50 343.50Q333 324 333 299Q333 267 314.50 244Q296 221 267 204Q305 192 325.50 166.50Q346 141 346 106Q346 77 332.50 55.50Q319 34 297 19.50Q275 5 246.50-2.50Q218-10 187-10Q145-10 106.50 3.50Q68 17 35 46L82 110Q103 92 129 82Q155 72 182 72Q213 72 231 85Q249 98 249 121Q249 164 188 164L139 164Z"  horiz-adv-x="400" vert-adv-y="1000"  />

      
      <glyph glyph-name="uni2084" unicode="&#x2084;" d="M319 0L234 0L234 77L38 77L31 130L209 394L319 394L319 151L373 151L373 77L319 77L319 0M234 151L234 307L133 151L234 151Z"  horiz-adv-x="400" vert-adv-y="1000"  />

      
      <glyph glyph-name="uni2085" unicode="&#x2085;" d="M318 315L158 315L156 248Q167 250 177.50 251.50Q188 253 201 253Q232 253 258 245Q284 237 303.50 221Q323 205 334 181.50Q345 158 345 127Q345 94 332 68.50Q319 43 297 25.50Q275 8 246-1Q217-10 184-10Q142-10 103.50 4.50Q65 19 38 43L81 105Q129 72 179 72Q211 72 231 85.50Q251 99 251 128Q251 157 230.50 170.50Q210 184 179 184Q159 184 141.50 179Q124 174 112 166L73 190L80 394L318 394L318 315Z"  horiz-adv-x="400" vert-adv-y="1000"  />

      
      <glyph glyph-name="uni2086" unicode="&#x2086;" d="M304 306Q285 315 266 320Q247 325 227 325Q181 325 159.50 298Q138 271 134 228Q154 242 178.50 250.50Q203 259 229 259Q257 259 281.50 249Q306 239 323.50 221.50Q341 204 351 179.50Q361 155 361 127Q361 95 349 69.50Q337 44 316.50 26.50Q296 9 269.50-0.50Q243-10 214-10Q170-10 138 6Q106 22 85 50Q64 78 54 115.50Q44 153 44 196Q44 241 55 279.50Q66 318 88.50 345.50Q111 373 144 388.50Q177 404 221 404Q249 404 277.50 397Q306 390 333 375L304 306M205 190Q170 190 135 168Q138 124 156.50 95Q175 66 213 66Q239 66 256 81Q273 97 273 126Q273 157 254 173.50Q235 190 205 190Z"  horiz-adv-x="400" vert-adv-y="1000"  />

      
      <glyph glyph-name="uni2087" unicode="&#x2087;" d="M126 0Q126 38 136 80Q146 122 161.50 163.50Q177 205 196.50 244Q216 283 235 315L62 315L62 394L343 394L348 347Q326 312 303 270Q280 228 261.50 182.50Q243 137 231 90.50Q219 44 219 0L126 0Z"  horiz-adv-x="400" vert-adv-y="1000"  />

      
      <glyph glyph-name="uni2088" unicode="&#x2088;" d="M328 241Q312 218 285 206Q317 193 337.50 168Q358 143 358 107Q358 78 345 56.50Q332 35 310.50 20Q289 5 260-2.50Q231-10 200-10Q168-10 139.50-2.50Q111 5 89.50 20Q68 35 55 56.50Q42 78 42 107Q42 143 63 168Q84 193 115 206Q89 218 72.50 241Q56 264 56 294Q56 345 96.50 374.50Q137 404 200 404Q263 404 303.50 374.50Q344 345 344 294Q344 264 328 241M248 78Q268 91 268 117Q268 143 248 157Q228 171 200 171Q173 171 153 157Q133 143 133 117Q133 91 153 78Q173 65 200 65Q228 65 248 78M241 251Q258 263 258 286Q258 308 242 320Q226 332 200 332Q175 332 159 320Q143 308 143 286Q143 263 159.50 251Q176 239 200 239Q225 239 241 251Z"  horiz-adv-x="400" vert-adv-y="1000"  />

      
      <glyph glyph-name="uni2089" unicode="&#x2089;" d="M79 92Q99 80 124 74Q149 68 171 68Q195 68 211.50 76Q228 84 238.50 97.50Q249 111 254.50 127.50Q260 144 262 161Q244 149 219.50 142Q195 135 172 135Q145 135 121 144Q97 153 79 170Q61 187 50 211.50Q39 236 39 266Q39 298 50.50 323.50Q62 349 82.50 367Q103 385 130 394.50Q157 404 187 404Q227 404 258 388Q289 372 310 344Q331 316 341.50 278Q352 240 352 197Q352 151 340.50 113Q329 75 306 47.50Q283 20 249.50 5Q216-10 173-10Q142-10 109-2.50Q76 5 49 22L79 92M262 223Q258 273 239 300.50Q220 328 187 328Q158 328 142.50 310.50Q127 293 127 267Q127 239 144.50 221.50Q162 204 197 204Q211 204 227.50 208Q244 212 262 223Z"  horiz-adv-x="400" vert-adv-y="1000"  />

      
      <glyph glyph-name="uni2070" unicode="&#x2070;" d="M200 370Q232 370 250.50 402Q269 434 269 493Q269 552 250.50 584Q232 616 200 616Q168 616 149.50 584Q131 552 131 493Q131 434 149.50 402Q168 370 200 370M323 343Q302 316 271 301Q240 286 200 286Q160 286 129 301Q98 316 77 343.50Q56 371 45 409Q34 447 34 493Q34 539 45 577Q56 615 77 642.50Q98 670 129 685Q160 700 200 700Q240 700 271 685Q302 670 323 642.50Q344 615 355 577Q366 539 366 493Q366 447 355 409Q344 371 323 343Z"  horiz-adv-x="400" vert-adv-y="1000"  />

      
      <glyph glyph-name="unib9" unicode="&#xb9;" d="M286 296L191 296L191 594L90 558L63 632L218 690L286 690L286 296Z"  horiz-adv-x="400" vert-adv-y="1000"  />

      
      <glyph glyph-name="unib2" unicode="&#xb2;" d="M337 296L57 296Q56 301 55.50 308Q55 315 55 323Q55 352 64.50 376Q74 400 89.50 420.50Q105 441 124 458Q143 475 162 490Q191 513 213.50 534Q236 555 236 576Q236 594 222.50 605Q209 616 186 616Q162 616 137.50 605Q113 594 94 577L48 643Q77 669 116 684.50Q155 700 195 700Q224 700 249.50 691.50Q275 683 293.50 667.50Q312 652 322.50 630Q333 608 333 581Q333 558 325.50 540Q318 522 304.50 505.50Q291 489 273 474Q255 459 234 443Q203 419 187 404Q171 389 163 375L337 375L337 296Z"  horiz-adv-x="400" vert-adv-y="1000"  />

      
      <glyph glyph-name="unib3" unicode="&#xb3;" d="M139 460L139 534L178 534Q201 534 218.50 544Q236 554 236 576Q236 597 220 606.50Q204 616 184 616Q161 616 137 605Q113 594 94 577L48 643Q77 669 116 684.50Q155 700 195 700Q222 700 247 693Q272 686 291 672.50Q310 659 321.50 639.50Q333 620 333 595Q333 563 314.50 540Q296 517 267 500Q305 488 325.50 462.50Q346 437 346 402Q346 373 332.50 351.50Q319 330 297 315.50Q275 301 246.50 293.50Q218 286 187 286Q145 286 106.50 299.50Q68 313 35 342L82 406Q103 388 129 378Q155 368 182 368Q213 368 231 381Q249 394 249 417Q249 460 188 460L139 460Z"  horiz-adv-x="400" vert-adv-y="1000"  />

      
      <glyph glyph-name="uni2074" unicode="&#x2074;" d="M319 296L234 296L234 373L38 373L31 426L209 690L319 690L319 447L373 447L373 373L319 373L319 296M234 447L234 603L133 447L234 447Z"  horiz-adv-x="400" vert-adv-y="1000"  />

      
      <glyph glyph-name="uni2075" unicode="&#x2075;" d="M318 611L158 611L156 544Q167 546 177.50 547.50Q188 549 201 549Q232 549 258 541Q284 533 303.50 517Q323 501 334 477.50Q345 454 345 423Q345 390 332 364.50Q319 339 297 321.50Q275 304 246 295Q217 286 184 286Q142 286 103.50 300.50Q65 315 38 339L81 401Q129 368 179 368Q211 368 231 381.50Q251 395 251 424Q251 453 230.50 466.50Q210 480 179 480Q159 480 141.50 475Q124 470 112 462L73 486L80 690L318 690L318 611Z"  horiz-adv-x="400" vert-adv-y="1000"  />

      
      <glyph glyph-name="uni2076" unicode="&#x2076;" d="M304 602Q285 611 266 616Q247 621 227 621Q181 621 159.50 594Q138 567 134 524Q154 538 178.50 546.50Q203 555 229 555Q257 555 281.50 545Q306 535 323.50 517.50Q341 500 351 475.50Q361 451 361 423Q361 391 349 365.50Q337 340 316.50 322.50Q296 305 269.50 295.50Q243 286 214 286Q170 286 138 302Q106 318 85 346Q64 374 54 411.50Q44 449 44 492Q44 537 55 575.50Q66 614 88.50 641.50Q111 669 144 684.50Q177 700 221 700Q249 700 277.50 693Q306 686 333 671L304 602M205 486Q170 486 135 464Q138 420 156.50 391Q175 362 213 362Q239 362 256 377Q273 393 273 422Q273 453 254 469.50Q235 486 205 486Z"  horiz-adv-x="400" vert-adv-y="1000"  />

      
      <glyph glyph-name="uni2077" unicode="&#x2077;" d="M126 296Q126 334 136 376Q146 418 161.50 459.50Q177 501 196.50 540Q216 579 235 611L62 611L62 690L343 690L348 643Q326 608 303 566Q280 524 261.50 478.50Q243 433 231 386.50Q219 340 219 296L126 296Z"  horiz-adv-x="400" vert-adv-y="1000"  />

      
      <glyph glyph-name="uni2078" unicode="&#x2078;" d="M328 537Q312 514 285 502Q317 489 337.50 464Q358 439 358 403Q358 374 345 352.50Q332 331 310.50 316Q289 301 260 293.50Q231 286 200 286Q168 286 139.50 293.50Q111 301 89.50 316Q68 331 55 352.50Q42 374 42 403Q42 439 63 464Q84 489 115 502Q89 514 72.50 537Q56 560 56 590Q56 641 96.50 670.50Q137 700 200 700Q263 700 303.50 670.50Q344 641 344 590Q344 560 328 537M248 374Q268 387 268 413Q268 439 248 453Q228 467 200 467Q173 467 153 453Q133 439 133 413Q133 387 153 374Q173 361 200 361Q228 361 248 374M241 547Q258 559 258 582Q258 604 242 616Q226 628 200 628Q175 628 159 616Q143 604 143 582Q143 559 159.50 547Q176 535 200 535Q225 535 241 547Z"  horiz-adv-x="400" vert-adv-y="1000"  />

      
      <glyph glyph-name="uni2079" unicode="&#x2079;" d="M79 388Q99 376 124 370Q149 364 171 364Q195 364 211.50 372Q228 380 238.50 393.50Q249 407 254.50 423.50Q260 440 262 457Q244 445 219.50 438Q195 431 172 431Q145 431 121 440Q97 449 79 466Q61 483 50 507.50Q39 532 39 562Q39 594 50.50 619.50Q62 645 82.50 663Q103 681 130 690.50Q157 700 187 700Q227 700 258 684Q289 668 310 640Q331 612 341.50 574Q352 536 352 493Q352 447 340.50 409Q329 371 306 343.50Q283 316 249.50 301Q216 286 173 286Q142 286 109 293.50Q76 301 49 318L79 388M262 519Q258 569 239 596.50Q220 624 187 624Q158 624 142.50 606.50Q127 589 127 563Q127 535 144.50 517.50Q162 500 197 500Q211 500 227.50 504Q244 508 262 519Z"  horiz-adv-x="400" vert-adv-y="1000"  />

      
      <glyph glyph-name="uni2044" unicode="&#x2044;" d="M-57 0L-160 0L179 690L282 690L-57 0Z"  horiz-adv-x="122" vert-adv-y="1000"  />

      
      <glyph glyph-name="uni25" unicode="&#x25;" d="M343 0L240 0L579 690L682 690L343 0M723 74Q755 74 773.50 106Q792 138 792 197Q792 256 773.50 288Q755 320 723 320Q691 320 672.50 288Q654 256 654 197Q654 138 672.50 106Q691 74 723 74M846 47Q825 20 794 5Q763-10 723-10Q683-10 652 5Q621 20 600 47.50Q579 75 568 113Q557 151 557 197Q557 243 568 281Q579 319 600 346.50Q621 374 652 389Q683 404 723 404Q763 404 794 389Q825 374 846 346.50Q867 319 878 281Q889 243 889 197Q889 151 878 113Q867 75 846 47M200 370Q232 370 250.50 402Q269 434 269 493Q269 552 250.50 584Q232 616 200 616Q168 616 149.50 584Q131 552 131 493Q131 434 149.50 402Q168 370 200 370M323 343Q302 316 271 301Q240 286 200 286Q160 286 129 301Q98 316 77 343.50Q56 371 45 409Q34 447 34 493Q34 539 45 577Q56 615 77 642.50Q98 670 129 685Q160 700 200 700Q240 700 271 685Q302 670 323 642.50Q344 615 355 577Q366 539 366 493Q366 447 355 409Q344 371 323 343Z"  horiz-adv-x="923" vert-adv-y="1000"  />

      
      <glyph glyph-name="uni2030" unicode="&#x2030;" d="M343 0L240 0L579 690L682 690L343 0M722 74Q754 74 772.50 106Q791 138 791 197Q791 256 772.50 288Q754 320 722 320Q690 320 671.50 288Q653 256 653 197Q653 138 671.50 106Q690 74 722 74M845 47Q824 20 793 5Q762-10 722-10Q682-10 651 5Q620 20 599 47.50Q578 75 567 113Q556 151 556 197Q556 243 567 281Q578 319 599 346.50Q620 374 651 389Q682 404 722 404Q762 404 793 389Q824 374 845 346.50Q866 319 877 281Q888 243 888 197Q888 151 877 113Q866 75 845 47M1128 74Q1160 74 1178.50 106Q1197 138 1197 197Q1197 256 1178.50 288Q1160 320 1128 320Q1096 320 1077.50 288Q1059 256 1059 197Q1059 138 1077.50 106Q1096 74 1128 74M1251 47Q1230 20 1199 5Q1168-10 1128-10Q1088-10 1057 5Q1026 20 1005 47.50Q984 75 973 113Q962 151 962 197Q962 243 973 281Q984 319 1005 346.50Q1026 374 1057 389Q1088 404 1128 404Q1168 404 1199 389Q1230 374 1251 346.50Q1272 319 1283 281Q1294 243 1294 197Q1294 151 1283 113Q1272 75 1251 47M200 370Q232 370 250.50 402Q269 434 269 493Q269 552 250.50 584Q232 616 200 616Q168 616 149.50 584Q131 552 131 493Q131 434 149.50 402Q168 370 200 370M323 343Q302 316 271 301Q240 286 200 286Q160 286 129 301Q98 316 77 343.50Q56 371 45 409Q34 447 34 493Q34 539 45 577Q56 615 77 642.50Q98 670 129 685Q160 700 200 700Q240 700 271 685Q302 670 323 642.50Q344 615 355 577Q366 539 366 493Q366 447 355 409Q344 371 323 343Z"  horiz-adv-x="1328" vert-adv-y="1000"  />

      
      <glyph glyph-name="unibd" unicode="&#xbd;" d="M299 0L196 0L535 690L638 690L299 0M835 0L555 0Q554 5 553.50 12Q553 19 553 27Q553 56 562.50 80Q572 104 587.50 124.50Q603 145 622 162Q641 179 660 194Q689 217 711.50 238Q734 259 734 280Q734 298 720.50 309Q707 320 684 320Q660 320 635.50 309Q611 298 592 281L546 347Q575 373 614 388.50Q653 404 693 404Q722 404 747.50 395.50Q773 387 791.50 371.50Q810 356 820.50 334Q831 312 831 285Q831 262 823.50 244Q816 226 802.50 209.50Q789 193 771 178Q753 163 732 147Q701 123 685 108Q669 93 661 79L835 79L835 0M268 296L173 296L173 594L72 558L45 632L200 690L268 690L268 296Z"  horiz-adv-x="923" vert-adv-y="1000"  />

      
      <glyph glyph-name="uni2153" unicode="&#x2153;" d="M299 0L196 0L535 690L638 690L299 0M634 164L634 238L673 238Q696 238 713.50 248Q731 258 731 280Q731 301 715 310.50Q699 320 679 320Q656 320 632 309Q608 298 589 281L543 347Q572 373 611 388.50Q650 404 690 404Q717 404 742 397Q767 390 786 376.50Q805 363 816.50 343.50Q828 324 828 299Q828 267 809.50 244Q791 221 762 204Q800 192 820.50 166.50Q841 141 841 106Q841 77 827.50 55.50Q814 34 792 19.50Q770 5 741.50-2.50Q713-10 682-10Q640-10 601.50 3.50Q563 17 530 46L577 110Q598 92 624 82Q650 72 677 72Q708 72 726 85Q744 98 744 121Q744 164 683 164L634 164M268 296L173 296L173 594L72 558L45 632L200 690L268 690L268 296Z"  horiz-adv-x="923" vert-adv-y="1000"  />

      
      <glyph glyph-name="uni2154" unicode="&#x2154;" d="M343 0L240 0L579 690L682 690L343 0M679 164L679 238L718 238Q741 238 758.50 248Q776 258 776 280Q776 301 760 310.50Q744 320 724 320Q701 320 677 309Q653 298 634 281L588 347Q617 373 656 388.50Q695 404 735 404Q762 404 787 397Q812 390 831 376.50Q850 363 861.50 343.50Q873 324 873 299Q873 267 854.50 244Q836 221 807 204Q845 192 865.50 166.50Q886 141 886 106Q886 77 872.50 55.50Q859 34 837 19.50Q815 5 786.50-2.50Q758-10 727-10Q685-10 646.50 3.50Q608 17 575 46L622 110Q643 92 669 82Q695 72 722 72Q753 72 771 85Q789 98 789 121Q789 164 728 164L679 164M331 296L51 296Q50 301 49.50 308Q49 315 49 323Q49 352 58.50 376Q68 400 83.50 420.50Q99 441 118 458Q137 475 156 490Q185 513 207.50 534Q230 555 230 576Q230 594 216.50 605Q203 616 180 616Q156 616 131.50 605Q107 594 88 577L42 643Q71 669 110 684.50Q149 700 189 700Q218 700 243.50 691.50Q269 683 287.50 667.50Q306 652 316.50 630Q327 608 327 581Q327 558 319.50 540Q312 522 298.50 505.50Q285 489 267 474Q249 459 228 443Q197 419 181 404Q165 389 157 375L331 375L331 296Z"  horiz-adv-x="923" vert-adv-y="1000"  />

      
      <glyph glyph-name="unibc" unicode="&#xbc;" d="M325 0L222 0L561 690L664 690L325 0M778 0L693 0L693 77L497 77L490 130L668 394L778 394L778 151L832 151L832 77L778 77L778 0M693 151L693 307L592 151L693 151M289 296L194 296L194 594L93 558L66 632L221 690L289 690L289 296Z"  horiz-adv-x="923" vert-adv-y="1000"  />

      
      <glyph glyph-name="unibe" unicode="&#xbe;" d="M361 0L258 0L597 690L700 690L361 0M815 0L730 0L730 77L534 77L527 130L705 394L815 394L815 151L869 151L869 77L815 77L815 0M730 151L730 307L629 151L730 151M157 460L157 534L196 534Q219 534 236.50 544Q254 554 254 576Q254 597 238 606.50Q222 616 202 616Q179 616 155 605Q131 594 112 577L66 643Q95 669 134 684.50Q173 700 213 700Q240 700 265 693Q290 686 309 672.50Q328 659 339.50 639.50Q351 620 351 595Q351 563 332.50 540Q314 517 285 500Q323 488 343.50 462.50Q364 437 364 402Q364 373 350.50 351.50Q337 330 315 315.50Q293 301 264.50 293.50Q236 286 205 286Q163 286 124.50 299.50Q86 313 53 342L100 406Q121 388 147 378Q173 368 200 368Q231 368 249 381Q267 394 267 417Q267 460 206 460L157 460Z"  horiz-adv-x="923" vert-adv-y="1000"  />

      
      <glyph glyph-name="uni2155" unicode="&#x2155;" d="M309 0L206 0L545 690L648 690L309 0M819 315L659 315L657 248Q668 250 678.50 251.50Q689 253 702 253Q733 253 759 245Q785 237 804.50 221Q824 205 835 181.50Q846 158 846 127Q846 94 833 68.50Q820 43 798 25.50Q776 8 747-1Q718-10 685-10Q643-10 604.50 4.50Q566 19 539 43L582 105Q630 72 680 72Q712 72 732 85.50Q752 99 752 128Q752 157 731.50 170.50Q711 184 680 184Q660 184 642.50 179Q625 174 613 166L574 190L581 394L819 394L819 315M278 296L183 296L183 594L82 558L55 632L210 690L278 690L278 296Z"  horiz-adv-x="923" vert-adv-y="1000"  />

      
      <glyph glyph-name="uni2156" unicode="&#x2156;" d="M346 0L243 0L582 690L685 690L346 0M856 315L696 315L694 248Q705 250 715.50 251.50Q726 253 739 253Q770 253 796 245Q822 237 841.50 221Q861 205 872 181.50Q883 158 883 127Q883 94 870 68.50Q857 43 835 25.50Q813 8 784-1Q755-10 722-10Q680-10 641.50 4.50Q603 19 576 43L619 105Q667 72 717 72Q749 72 769 85.50Q789 99 789 128Q789 157 768.50 170.50Q748 184 717 184Q697 184 679.50 179Q662 174 650 166L611 190L618 394L856 394L856 315M333 296L53 296Q52 301 51.50 308Q51 315 51 323Q51 352 60.50 376Q70 400 85.50 420.50Q101 441 120 458Q139 475 158 490Q187 513 209.50 534Q232 555 232 576Q232 594 218.50 605Q205 616 182 616Q158 616 133.50 605Q109 594 90 577L44 643Q73 669 112 684.50Q151 700 191 700Q220 700 245.50 691.50Q271 683 289.50 667.50Q308 652 318.50 630Q329 608 329 581Q329 558 321.50 540Q314 522 300.50 505.50Q287 489 269 474Q251 459 230 443Q199 419 183 404Q167 389 159 375L333 375L333 296Z"  horiz-adv-x="923" vert-adv-y="1000"  />

      
      <glyph glyph-name="uni2157" unicode="&#x2157;" d="M347 0L244 0L583 690L686 690L347 0M857 315L697 315L695 248Q706 250 716.50 251.50Q727 253 740 253Q771 253 797 245Q823 237 842.50 221Q862 205 873 181.50Q884 158 884 127Q884 94 871 68.50Q858 43 836 25.50Q814 8 785-1Q756-10 723-10Q681-10 642.50 4.50Q604 19 577 43L620 105Q668 72 718 72Q750 72 770 85.50Q790 99 790 128Q790 157 769.50 170.50Q749 184 718 184Q698 184 680.50 179Q663 174 651 166L612 190L619 394L857 394L857 315M143 460L143 534L182 534Q205 534 222.50 544Q240 554 240 576Q240 597 224 606.50Q208 616 188 616Q165 616 141 605Q117 594 98 577L52 643Q81 669 120 684.50Q159 700 199 700Q226 700 251 693Q276 686 295 672.50Q314 659 325.50 639.50Q337 620 337 595Q337 563 318.50 540Q300 517 271 500Q309 488 329.50 462.50Q350 437 350 402Q350 373 336.50 351.50Q323 330 301 315.50Q279 301 250.50 293.50Q222 286 191 286Q149 286 110.50 299.50Q72 313 39 342L86 406Q107 388 133 378Q159 368 186 368Q217 368 235 381Q253 394 253 417Q253 460 192 460L143 460Z"  horiz-adv-x="923" vert-adv-y="1000"  />

      
      <glyph glyph-name="uni2158" unicode="&#x2158;" d="M367 0L264 0L603 690L706 690L367 0M877 315L717 315L715 248Q726 250 736.50 251.50Q747 253 760 253Q791 253 817 245Q843 237 862.50 221Q882 205 893 181.50Q904 158 904 127Q904 94 891 68.50Q878 43 856 25.50Q834 8 805-1Q776-10 743-10Q701-10 662.50 4.50Q624 19 597 43L640 105Q688 72 738 72Q770 72 790 85.50Q810 99 810 128Q810 157 789.50 170.50Q769 184 738 184Q718 184 700.50 179Q683 174 671 166L632 190L639 394L877 394L877 315M312 296L227 296L227 373L31 373L24 426L202 690L312 690L312 447L366 447L366 373L312 373L312 296M227 447L227 603L126 447L227 447Z"  horiz-adv-x="923" vert-adv-y="1000"  />

      
      <glyph glyph-name="uni2159" unicode="&#x2159;" d="M302 0L199 0L538 690L641 690L302 0M772 306Q753 315 734 320Q715 325 695 325Q649 325 627.50 298Q606 271 602 228Q622 242 646.50 250.50Q671 259 697 259Q725 259 749.50 249Q774 239 791.50 221.50Q809 204 819 179.50Q829 155 829 127Q829 95 817 69.50Q805 44 784.50 26.50Q764 9 737.50-0.50Q711-10 682-10Q638-10 606 6Q574 22 553 50Q532 78 522 115.50Q512 153 512 196Q512 241 523 279.50Q534 318 556.50 345.50Q579 373 612 388.50Q645 404 689 404Q717 404 745.50 397Q774 390 801 375L772 306M673 190Q638 190 603 168Q606 124 624.50 95Q643 66 681 66Q707 66 724 81Q741 97 741 126Q741 157 722 173.50Q703 190 673 190M271 296L176 296L176 594L75 558L48 632L203 690L271 690L271 296Z"  horiz-adv-x="923" vert-adv-y="1000"  />

      
      <glyph glyph-name="uni215A" unicode="&#x215A;" d="M346 0L243 0L582 690L685 690L346 0M817 306Q798 315 779 320Q760 325 740 325Q694 325 672.50 298Q651 271 647 228Q667 242 691.50 250.50Q716 259 742 259Q770 259 794.50 249Q819 239 836.50 221.50Q854 204 864 179.50Q874 155 874 127Q874 95 862 69.50Q850 44 829.50 26.50Q809 9 782.50-0.50Q756-10 727-10Q683-10 651 6Q619 22 598 50Q577 78 567 115.50Q557 153 557 196Q557 241 568 279.50Q579 318 601.50 345.50Q624 373 657 388.50Q690 404 734 404Q762 404 790.50 397Q819 390 846 375L817 306M718 190Q683 190 648 168Q651 124 669.50 95Q688 66 726 66Q752 66 769 81Q786 97 786 126Q786 157 767 173.50Q748 190 718 190M329 611L169 611L167 544Q178 546 188.50 547.50Q199 549 212 549Q243 549 269 541Q295 533 314.50 517Q334 501 345 477.50Q356 454 356 423Q356 390 343 364.50Q330 339 308 321.50Q286 304 257 295Q228 286 195 286Q153 286 114.50 300.50Q76 315 49 339L92 401Q140 368 190 368Q222 368 242 381.50Q262 395 262 424Q262 453 241.50 466.50Q221 480 190 480Q170 480 152.50 475Q135 470 123 462L84 486L91 690L329 690L329 611Z"  horiz-adv-x="923" vert-adv-y="1000"  />

      
      <glyph glyph-name="uni2150" unicode="&#x2150;" d="M284 0L181 0L520 690L623 690L284 0M614 0Q614 38 624 80Q634 122 649.50 163.50Q665 205 684.50 244Q704 283 723 315L550 315L550 394L831 394L836 347Q814 312 791 270Q768 228 749.50 182.50Q731 137 719 90.50Q707 44 707 0L614 0M254 296L159 296L159 594L58 558L31 632L186 690L254 690L254 296Z"  horiz-adv-x="923" vert-adv-y="1000"  />

      
      <glyph glyph-name="uniF507" unicode="&#xF507;" d="M339 0L236 0L575 690L678 690L339 0M669 0Q669 38 679 80Q689 122 704.50 163.50Q720 205 739.50 244Q759 283 778 315L605 315L605 394L886 394L891 347Q869 312 846 270Q823 228 804.50 182.50Q786 137 774 90.50Q762 44 762 0L669 0M326 296L46 296Q45 301 44.50 308Q44 315 44 323Q44 352 53.50 376Q63 400 78.50 420.50Q94 441 113 458Q132 475 151 490Q180 513 202.50 534Q225 555 225 576Q225 594 211.50 605Q198 616 175 616Q151 616 126.50 605Q102 594 83 577L37 643Q66 669 105 684.50Q144 700 184 700Q213 700 238.50 691.50Q264 683 282.50 667.50Q301 652 311.50 630Q322 608 322 581Q322 558 314.50 540Q307 522 293.50 505.50Q280 489 262 474Q244 459 223 443Q192 419 176 404Q160 389 152 375L326 375L326 296Z"  horiz-adv-x="923" vert-adv-y="1000"  />

      
      <glyph glyph-name="uniF508" unicode="&#xF508;" d="M339 0L236 0L575 690L678 690L339 0M669 0Q669 38 679 80Q689 122 704.50 163.50Q720 205 739.50 244Q759 283 778 315L605 315L605 394L886 394L891 347Q869 312 846 270Q823 228 804.50 182.50Q786 137 774 90.50Q762 44 762 0L669 0M139 460L139 534L178 534Q201 534 218.50 544Q236 554 236 576Q236 597 220 606.50Q204 616 184 616Q161 616 137 605Q113 594 94 577L48 643Q77 669 116 684.50Q155 700 195 700Q222 700 247 693Q272 686 291 672.50Q310 659 321.50 639.50Q333 620 333 595Q333 563 314.50 540Q296 517 267 500Q305 488 325.50 462.50Q346 437 346 402Q346 373 332.50 351.50Q319 330 297 315.50Q275 301 246.50 293.50Q218 286 187 286Q145 286 106.50 299.50Q68 313 35 342L82 406Q103 388 129 378Q155 368 182 368Q213 368 231 381Q249 394 249 417Q249 460 188 460L139 460Z"  horiz-adv-x="923" vert-adv-y="1000"  />

      
      <glyph glyph-name="uniF509" unicode="&#xF509;" d="M359 0L256 0L595 690L698 690L359 0M689 0Q689 38 699 80Q709 122 724.50 163.50Q740 205 759.50 244Q779 283 798 315L625 315L625 394L906 394L911 347Q889 312 866 270Q843 228 824.50 182.50Q806 137 794 90.50Q782 44 782 0L689 0M304 296L219 296L219 373L23 373L16 426L194 690L304 690L304 447L358 447L358 373L304 373L304 296M219 447L219 603L118 447L219 447Z"  horiz-adv-x="923" vert-adv-y="1000"  />

      
      <glyph glyph-name="uniF50A" unicode="&#xF50A;" d="M334 0L231 0L570 690L673 690L334 0M664 0Q664 38 674 80Q684 122 699.50 163.50Q715 205 734.50 244Q754 283 773 315L600 315L600 394L881 394L886 347Q864 312 841 270Q818 228 799.50 182.50Q781 137 769 90.50Q757 44 757 0L664 0M318 611L158 611L156 544Q167 546 177.50 547.50Q188 549 201 549Q232 549 258 541Q284 533 303.50 517Q323 501 334 477.50Q345 454 345 423Q345 390 332 364.50Q319 339 297 321.50Q275 304 246 295Q217 286 184 286Q142 286 103.50 300.50Q65 315 38 339L81 401Q129 368 179 368Q211 368 231 381.50Q251 395 251 424Q251 453 230.50 466.50Q210 480 179 480Q159 480 141.50 475Q124 470 112 462L73 486L80 690L318 690L318 611Z"  horiz-adv-x="923" vert-adv-y="1000"  />

      
      <glyph glyph-name="uniF50B" unicode="&#xF50B;" d="M338 0L235 0L574 690L677 690L338 0M668 0Q668 38 678 80Q688 122 703.50 163.50Q719 205 738.50 244Q758 283 777 315L604 315L604 394L885 394L890 347Q868 312 845 270Q822 228 803.50 182.50Q785 137 773 90.50Q761 44 761 0L668 0M298 602Q279 611 260 616Q241 621 221 621Q175 621 153.50 594Q132 567 128 524Q148 538 172.50 546.50Q197 555 223 555Q251 555 275.50 545Q300 535 317.50 517.50Q335 500 345 475.50Q355 451 355 423Q355 391 343 365.50Q331 340 310.50 322.50Q290 305 263.50 295.50Q237 286 208 286Q164 286 132 302Q100 318 79 346Q58 374 48 411.50Q38 449 38 492Q38 537 49 575.50Q60 614 82.50 641.50Q105 669 138 684.50Q171 700 215 700Q243 700 271.50 693Q300 686 327 671L298 602M199 486Q164 486 129 464Q132 420 150.50 391Q169 362 207 362Q233 362 250 377Q267 393 267 422Q267 453 248 469.50Q229 486 199 486Z"  horiz-adv-x="923" vert-adv-y="1000"  />

      
      <glyph glyph-name="uni215B" unicode="&#x215B;" d="M298 0L195 0L534 690L637 690L298 0M804 241Q788 218 761 206Q793 193 813.50 168Q834 143 834 107Q834 78 821 56.50Q808 35 786.50 20Q765 5 736-2.50Q707-10 676-10Q644-10 615.50-2.50Q587 5 565.50 20Q544 35 531 56.50Q518 78 518 107Q518 143 539 168Q560 193 591 206Q565 218 548.50 241Q532 264 532 294Q532 345 572.50 374.50Q613 404 676 404Q739 404 779.50 374.50Q820 345 820 294Q820 264 804 241M724 78Q744 91 744 117Q744 143 724 157Q704 171 676 171Q649 171 629 157Q609 143 609 117Q609 91 629 78Q649 65 676 65Q704 65 724 78M717 251Q734 263 734 286Q734 308 718 320Q702 332 676 332Q651 332 635 320Q619 308 619 286Q619 263 635.50 251Q652 239 676 239Q701 239 717 251M268 296L173 296L173 594L72 558L45 632L200 690L268 690L268 296Z"  horiz-adv-x="923" vert-adv-y="1000"  />

      
      <glyph glyph-name="uni215C" unicode="&#x215C;" d="M347 0L244 0L583 690L686 690L347 0M853 241Q837 218 810 206Q842 193 862.50 168Q883 143 883 107Q883 78 870 56.50Q857 35 835.50 20Q814 5 785-2.50Q756-10 725-10Q693-10 664.50-2.50Q636 5 614.50 20Q593 35 580 56.50Q567 78 567 107Q567 143 588 168Q609 193 640 206Q614 218 597.50 241Q581 264 581 294Q581 345 621.50 374.50Q662 404 725 404Q788 404 828.50 374.50Q869 345 869 294Q869 264 853 241M773 78Q793 91 793 117Q793 143 773 157Q753 171 725 171Q698 171 678 157Q658 143 658 117Q658 91 678 78Q698 65 725 65Q753 65 773 78M766 251Q783 263 783 286Q783 308 767 320Q751 332 725 332Q700 332 684 320Q668 308 668 286Q668 263 684.50 251Q701 239 725 239Q750 239 766 251M143 460L143 534L182 534Q205 534 222.50 544Q240 554 240 576Q240 597 224 606.50Q208 616 188 616Q165 616 141 605Q117 594 98 577L52 643Q81 669 120 684.50Q159 700 199 700Q226 700 251 693Q276 686 295 672.50Q314 659 325.50 639.50Q337 620 337 595Q337 563 318.50 540Q300 517 271 500Q309 488 329.50 462.50Q350 437 350 402Q350 373 336.50 351.50Q323 330 301 315.50Q279 301 250.50 293.50Q222 286 191 286Q149 286 110.50 299.50Q72 313 39 342L86 406Q107 388 133 378Q159 368 186 368Q217 368 235 381Q253 394 253 417Q253 460 192 460L143 460Z"  horiz-adv-x="923" vert-adv-y="1000"  />

      
      <glyph glyph-name="uni215D" unicode="&#x215D;" d="M342 0L239 0L578 690L681 690L342 0M848 241Q832 218 805 206Q837 193 857.50 168Q878 143 878 107Q878 78 865 56.50Q852 35 830.50 20Q809 5 780-2.50Q751-10 720-10Q688-10 659.50-2.50Q631 5 609.50 20Q588 35 575 56.50Q562 78 562 107Q562 143 583 168Q604 193 635 206Q609 218 592.50 241Q576 264 576 294Q576 345 616.50 374.50Q657 404 720 404Q783 404 823.50 374.50Q864 345 864 294Q864 264 848 241M768 78Q788 91 788 117Q788 143 768 157Q748 171 720 171Q693 171 673 157Q653 143 653 117Q653 91 673 78Q693 65 720 65Q748 65 768 78M761 251Q778 263 778 286Q778 308 762 320Q746 332 720 332Q695 332 679 320Q663 308 663 286Q663 263 679.50 251Q696 239 720 239Q745 239 761 251M325 611L165 611L163 544Q174 546 184.50 547.50Q195 549 208 549Q239 549 265 541Q291 533 310.50 517Q330 501 341 477.50Q352 454 352 423Q352 390 339 364.50Q326 339 304 321.50Q282 304 253 295Q224 286 191 286Q149 286 110.50 300.50Q72 315 45 339L88 401Q136 368 186 368Q218 368 238 381.50Q258 395 258 424Q258 453 237.50 466.50Q217 480 186 480Q166 480 148.50 475Q131 470 119 462L80 486L87 690L325 690L325 611Z"  horiz-adv-x="923" vert-adv-y="1000"  />

      
      <glyph glyph-name="uni215E" unicode="&#x215E;" d="M305 0L202 0L541 690L644 690L305 0M811 241Q795 218 768 206Q800 193 820.50 168Q841 143 841 107Q841 78 828 56.50Q815 35 793.50 20Q772 5 743-2.50Q714-10 683-10Q651-10 622.50-2.50Q594 5 572.50 20Q551 35 538 56.50Q525 78 525 107Q525 143 546 168Q567 193 598 206Q572 218 555.50 241Q539 264 539 294Q539 345 579.50 374.50Q620 404 683 404Q746 404 786.50 374.50Q827 345 827 294Q827 264 811 241M731 78Q751 91 751 117Q751 143 731 157Q711 171 683 171Q656 171 636 157Q616 143 616 117Q616 91 636 78Q656 65 683 65Q711 65 731 78M724 251Q741 263 741 286Q741 308 725 320Q709 332 683 332Q658 332 642 320Q626 308 626 286Q626 263 642.50 251Q659 239 683 239Q708 239 724 251M146 296Q146 334 156 376Q166 418 181.50 459.50Q197 501 216.50 540Q236 579 255 611L82 611L82 690L363 690L368 643Q346 608 323 566Q300 524 281.50 478.50Q263 433 251 386.50Q239 340 239 296L146 296Z"  horiz-adv-x="923" vert-adv-y="1000"  />

      
      <glyph glyph-name="uni2151" unicode="&#x2151;" d="M298 0L195 0L534 690L637 690L298 0M569 92Q589 80 614 74Q639 68 661 68Q685 68 701.50 76Q718 84 728.50 97.50Q739 111 744.50 127.50Q750 144 752 161Q734 149 709.50 142Q685 135 662 135Q635 135 611 144Q587 153 569 170Q551 187 540 211.50Q529 236 529 266Q529 298 540.50 323.50Q552 349 572.50 367Q593 385 620 394.50Q647 404 677 404Q717 404 748 388Q779 372 800 344Q821 316 831.50 278Q842 240 842 197Q842 151 830.50 113Q819 75 796 47.50Q773 20 739.50 5Q706-10 663-10Q632-10 599-2.50Q566 5 539 22L569 92M752 223Q748 273 729 300.50Q710 328 677 328Q648 328 632.50 310.50Q617 293 617 267Q617 239 634.50 221.50Q652 204 687 204Q701 204 717.50 208Q734 212 752 223M268 296L173 296L173 594L72 558L45 632L200 690L268 690L268 296Z"  horiz-adv-x="923" vert-adv-y="1000"  />

      
      <glyph glyph-name="uniF50D" unicode="&#xF50D;" d="M342 0L239 0L578 690L681 690L342 0M613 92Q633 80 658 74Q683 68 705 68Q729 68 745.50 76Q762 84 772.50 97.50Q783 111 788.50 127.50Q794 144 796 161Q778 149 753.50 142Q729 135 706 135Q679 135 655 144Q631 153 613 170Q595 187 584 211.50Q573 236 573 266Q573 298 584.50 323.50Q596 349 616.50 367Q637 385 664 394.50Q691 404 721 404Q761 404 792 388Q823 372 844 344Q865 316 875.50 278Q886 240 886 197Q886 151 874.50 113Q863 75 840 47.50Q817 20 783.50 5Q750-10 707-10Q676-10 643-2.50Q610 5 583 22L613 92M796 223Q792 273 773 300.50Q754 328 721 328Q692 328 676.50 310.50Q661 293 661 267Q661 239 678.50 221.50Q696 204 731 204Q745 204 761.50 208Q778 212 796 223M330 296L50 296Q49 301 48.50 308Q48 315 48 323Q48 352 57.50 376Q67 400 82.50 420.50Q98 441 117 458Q136 475 155 490Q184 513 206.50 534Q229 555 229 576Q229 594 215.50 605Q202 616 179 616Q155 616 130.50 605Q106 594 87 577L41 643Q70 669 109 684.50Q148 700 188 700Q217 700 242.50 691.50Q268 683 286.50 667.50Q305 652 315.50 630Q326 608 326 581Q326 558 318.50 540Q311 522 297.50 505.50Q284 489 266 474Q248 459 227 443Q196 419 180 404Q164 389 156 375L330 375L330 296Z"  horiz-adv-x="923" vert-adv-y="1000"  />

      
      <glyph glyph-name="uniF50E" unicode="&#xF50E;" d="M364 0L261 0L600 690L703 690L364 0M634 92Q654 80 679 74Q704 68 726 68Q750 68 766.50 76Q783 84 793.50 97.50Q804 111 809.50 127.50Q815 144 817 161Q799 149 774.50 142Q750 135 727 135Q700 135 676 144Q652 153 634 170Q616 187 605 211.50Q594 236 594 266Q594 298 605.50 323.50Q617 349 637.50 367Q658 385 685 394.50Q712 404 742 404Q782 404 813 388Q844 372 865 344Q886 316 896.50 278Q907 240 907 197Q907 151 895.50 113Q884 75 861 47.50Q838 20 804.50 5Q771-10 728-10Q697-10 664-2.50Q631 5 604 22L634 92M817 223Q813 273 794 300.50Q775 328 742 328Q713 328 697.50 310.50Q682 293 682 267Q682 239 699.50 221.50Q717 204 752 204Q766 204 782.50 208Q799 212 817 223M309 296L224 296L224 373L28 373L21 426L199 690L309 690L309 447L363 447L363 373L309 373L309 296M224 447L224 603L123 447L224 447Z"  horiz-adv-x="923" vert-adv-y="1000"  />

      
      <glyph glyph-name="uniF50F" unicode="&#xF50F;" d="M338 0L235 0L574 690L677 690L338 0M608 92Q628 80 653 74Q678 68 700 68Q724 68 740.50 76Q757 84 767.50 97.50Q778 111 783.50 127.50Q789 144 791 161Q773 149 748.50 142Q724 135 701 135Q674 135 650 144Q626 153 608 170Q590 187 579 211.50Q568 236 568 266Q568 298 579.50 323.50Q591 349 611.50 367Q632 385 659 394.50Q686 404 716 404Q756 404 787 388Q818 372 839 344Q860 316 870.50 278Q881 240 881 197Q881 151 869.50 113Q858 75 835 47.50Q812 20 778.50 5Q745-10 702-10Q671-10 638-2.50Q605 5 578 22L608 92M791 223Q787 273 768 300.50Q749 328 716 328Q687 328 671.50 310.50Q656 293 656 267Q656 239 673.50 221.50Q691 204 726 204Q740 204 756.50 208Q773 212 791 223M321 611L161 611L159 544Q170 546 180.50 547.50Q191 549 204 549Q235 549 261 541Q287 533 306.50 517Q326 501 337 477.50Q348 454 348 423Q348 390 335 364.50Q322 339 300 321.50Q278 304 249 295Q220 286 187 286Q145 286 106.50 300.50Q68 315 41 339L84 401Q132 368 182 368Q214 368 234 381.50Q254 395 254 424Q254 453 233.50 466.50Q213 480 182 480Q162 480 144.50 475Q127 470 115 462L76 486L83 690L321 690L321 611Z"  horiz-adv-x="923" vert-adv-y="1000"  />

      
      <glyph glyph-name="uniF510" unicode="&#xF510;" d="M302 0L199 0L538 690L641 690L302 0M572 92Q592 80 617 74Q642 68 664 68Q688 68 704.50 76Q721 84 731.50 97.50Q742 111 747.50 127.50Q753 144 755 161Q737 149 712.50 142Q688 135 665 135Q638 135 614 144Q590 153 572 170Q554 187 543 211.50Q532 236 532 266Q532 298 543.50 323.50Q555 349 575.50 367Q596 385 623 394.50Q650 404 680 404Q720 404 751 388Q782 372 803 344Q824 316 834.50 278Q845 240 845 197Q845 151 833.50 113Q822 75 799 47.50Q776 20 742.50 5Q709-10 666-10Q635-10 602-2.50Q569 5 542 22L572 92M755 223Q751 273 732 300.50Q713 328 680 328Q651 328 635.50 310.50Q620 293 620 267Q620 239 637.50 221.50Q655 204 690 204Q704 204 720.50 208Q737 212 755 223M142 296Q142 334 152 376Q162 418 177.50 459.50Q193 501 212.50 540Q232 579 251 611L78 611L78 690L359 690L364 643Q342 608 319 566Q296 524 277.50 478.50Q259 433 247 386.50Q235 340 235 296L142 296Z"  horiz-adv-x="923" vert-adv-y="1000"  />

      
      <glyph glyph-name="uniF511" unicode="&#xF511;" d="M344 0L241 0L580 690L683 690L344 0M615 92Q635 80 660 74Q685 68 707 68Q731 68 747.50 76Q764 84 774.50 97.50Q785 111 790.50 127.50Q796 144 798 161Q780 149 755.50 142Q731 135 708 135Q681 135 657 144Q633 153 615 170Q597 187 586 211.50Q575 236 575 266Q575 298 586.50 323.50Q598 349 618.50 367Q639 385 666 394.50Q693 404 723 404Q763 404 794 388Q825 372 846 344Q867 316 877.50 278Q888 240 888 197Q888 151 876.50 113Q865 75 842 47.50Q819 20 785.50 5Q752-10 709-10Q678-10 645-2.50Q612 5 585 22L615 92M798 223Q794 273 775 300.50Q756 328 723 328Q694 328 678.50 310.50Q663 293 663 267Q663 239 680.50 221.50Q698 204 733 204Q747 204 763.50 208Q780 212 798 223M326 537Q310 514 283 502Q315 489 335.50 464Q356 439 356 403Q356 374 343 352.50Q330 331 308.50 316Q287 301 258 293.50Q229 286 198 286Q166 286 137.50 293.50Q109 301 87.50 316Q66 331 53 352.50Q40 374 40 403Q40 439 61 464Q82 489 113 502Q87 514 70.50 537Q54 560 54 590Q54 641 94.50 670.50Q135 700 198 700Q261 700 301.50 670.50Q342 641 342 590Q342 560 326 537M246 374Q266 387 266 413Q266 439 246 453Q226 467 198 467Q171 467 151 453Q131 439 131 413Q131 387 151 374Q171 361 198 361Q226 361 246 374M239 547Q256 559 256 582Q256 604 240 616Q224 628 198 628Q173 628 157 616Q141 604 141 582Q141 559 157.50 547Q174 535 198 535Q223 535 239 547Z"  horiz-adv-x="923" vert-adv-y="1000"  />

      
      <glyph glyph-name="uniF69E" unicode="&#xF69E;" d="M286 0L190 0L464 555L560 555L286 0M609 72Q619 81 625 94Q631 107 633.50 123.50Q636 140 636 156Q636 172 633.50 188.50Q631 205 625 218Q619 231 609.50 239.50Q600 248 586 248Q572 248 562.50 239.50Q553 231 547 218Q541 205 538.50 188.50Q536 172 536 156Q536 140 538.50 123.50Q541 107 547 94Q553 81 562.50 72.50Q572 64 586 64Q600 64 609 72M689 40Q672 17 646.50 3.50Q621-10 586-10Q551-10 525.50 3.50Q500 17 483 40Q466 63 457.50 93Q449 123 449 156Q449 189 457.50 219Q466 249 483 272Q500 295 525.50 308.50Q551 322 586 322Q621 322 646.50 308.50Q672 295 689 272Q706 249 714.50 219Q723 189 723 156Q723 123 714.50 93Q706 63 689 40M186 315Q196 324 202 337Q208 350 210.50 366.50Q213 383 213 399Q213 415 210.50 431.50Q208 448 202 461Q196 474 186.50 482.50Q177 491 163 491Q149 491 139.50 482.50Q130 474 124 461Q118 448 115.50 431.50Q113 415 113 399Q113 383 115.50 366.50Q118 350 124 337Q130 324 139.50 315.50Q149 307 163 307Q177 307 186 315M266 283Q249 260 223.50 246.50Q198 233 163 233Q128 233 102.50 246.50Q77 260 60 283Q43 306 34.50 336Q26 366 26 399Q26 432 34.50 462Q43 492 60 515Q77 538 102.50 551.50Q128 565 163 565Q198 565 223.50 551.50Q249 538 266 515Q283 492 291.50 462Q300 432 300 399Q300 366 291.50 336Q283 306 266 283Z"  horiz-adv-x="749" vert-adv-y="1000"  />

      
      <glyph glyph-name="uniF69F" unicode="&#xF69F;" d="M286 0L190 0L464 555L560 555L286 0M609 72Q619 81 625 94Q631 107 633.50 123.50Q636 140 636 156Q636 172 633.50 188.50Q631 205 625 218Q619 231 609.50 239.50Q600 248 586 248Q572 248 562.50 239.50Q553 231 547 218Q541 205 538.50 188.50Q536 172 536 156Q536 140 538.50 123.50Q541 107 547 94Q553 81 562.50 72.50Q572 64 586 64Q600 64 609 72M689 40Q672 17 646.50 3.50Q621-10 586-10Q551-10 525.50 3.50Q500 17 483 40Q466 63 457.50 93Q449 123 449 156Q449 189 457.50 219Q466 249 483 272Q500 295 525.50 308.50Q551 322 586 322Q621 322 646.50 308.50Q672 295 689 272Q706 249 714.50 219Q723 189 723 156Q723 123 714.50 93Q706 63 689 40M932 72Q942 81 948 94Q954 107 956.50 123.50Q959 140 959 156Q959 172 956.50 188.50Q954 205 948 218Q942 231 932.50 239.50Q923 248 909 248Q895 248 885.50 239.50Q876 231 870 218Q864 205 861.50 188.50Q859 172 859 156Q859 140 861.50 123.50Q864 107 870 94Q876 81 885.50 72.50Q895 64 909 64Q923 64 932 72M1012 40Q995 17 969.50 3.50Q944-10 909-10Q874-10 848.50 3.50Q823 17 806 40Q789 63 780.50 93Q772 123 772 156Q772 189 780.50 219Q789 249 806 272Q823 295 848.50 308.50Q874 322 909 322Q944 322 969.50 308.50Q995 295 1012 272Q1029 249 1037.50 219Q1046 189 1046 156Q1046 123 1037.50 93Q1029 63 1012 40M186 315Q196 324 202 337Q208 350 210.50 366.50Q213 383 213 399Q213 415 210.50 431.50Q208 448 202 461Q196 474 186.50 482.50Q177 491 163 491Q149 491 139.50 482.50Q130 474 124 461Q118 448 115.50 431.50Q113 415 113 399Q113 383 115.50 366.50Q118 350 124 337Q130 324 139.50 315.50Q149 307 163 307Q177 307 186 315M266 283Q249 260 223.50 246.50Q198 233 163 233Q128 233 102.50 246.50Q77 260 60 283Q43 306 34.50 336Q26 366 26 399Q26 432 34.50 462Q43 492 60 515Q77 538 102.50 551.50Q128 565 163 565Q198 565 223.50 551.50Q249 538 266 515Q283 492 291.50 462Q300 432 300 399Q300 366 291.50 336Q283 306 266 283Z"  horiz-adv-x="1072" vert-adv-y="1000"  />

      
      <glyph glyph-name="uni24" unicode="&#x24;" d="M321-118L236-126L236-8Q179-5 121 11.50Q63 28 11 60L53 146Q99 121 145 106Q191 91 236 87L236 313Q198 327 160.50 343Q123 359 93.50 381.50Q64 404 46 435.50Q28 467 28 513Q28 556 44 589Q60 622 88 645Q116 668 154 681.50Q192 695 236 698L236 800L321 808L321 696Q369 691 417 676.50Q465 662 503 639L462 553Q429 570 392.50 582Q356 594 321 600L321 393Q361 378 398.50 361Q436 344 464.50 320.50Q493 297 510 264.50Q527 232 527 187Q527 107 473 55.50Q419 4 321-7L321-118M236 602Q217 600 199.50 594Q182 588 168.50 578.50Q155 569 146.50 554.50Q138 540 138 521Q138 502 146 487.50Q154 473 167.50 461Q181 449 198.50 440Q216 431 236 423L236 602M321 89Q366 97 391.50 121Q417 145 417 182Q417 219 391.50 241Q366 263 321 281L321 89Z"  horiz-adv-x="558" vert-adv-y="1000"  />

      
      <glyph glyph-name="unia2" unicode="&#xa2;" d="M365-118L280-126L280 22Q180 36 123.50 106.50Q67 177 67 289Q67 399 122.50 470.50Q178 542 280 556L280 695L365 703L365 557Q406 552 441.50 539Q477 526 505 509L469 426Q411 456 365 463L365 116Q394 120 421 129.50Q448 139 474 154L510 70Q479 50 441.50 38Q404 26 365 22L365-118M280 459Q232 445 205.50 402Q179 359 179 289Q179 225 203.50 180Q228 135 280 120L280 459Z"  horiz-adv-x="558" vert-adv-y="1000"  />

      
      <glyph glyph-name="unia3" unicode="&#xa3;" d="M530 0L80 0L73 68Q98 90 113 114.50Q128 139 136 163Q144 187 146.50 209.50Q149 232 149 250Q149 278 146 308L50 308L50 389L133 389Q129 412 126.50 436.50Q124 461 124 486Q124 527 135 565.50Q146 604 171 634Q196 664 236 682Q276 700 335 700Q399 700 448 678.50Q497 657 537 625L484 544Q447 572 414.50 586Q382 600 340 600Q294 600 266.50 573Q239 546 239 481Q239 457 241.50 434.50Q244 412 248 389L400 389L400 308L259 308Q261 293 262 278Q263 263 263 249Q263 169 223 99L530 99L530 0Z"  horiz-adv-x="558" vert-adv-y="1000"  />

      
      <glyph glyph-name="unia5" unicode="&#xa5;" d="M488 113L338 113L338 0L220 0L220 113L70 113L70 192L220 192L220 265L70 265L70 344L193 344L19 690L144 690L279 393L415 690L539 690L364 344L488 344L488 265L338 265L338 192L488 192L488 113Z"  horiz-adv-x="558" vert-adv-y="1000"  />

      
      <glyph glyph-name="uni20AC" unicode="&#x20AC;" d="M553 32Q509 12 470 1Q431-10 380-10Q320-10 276 7.50Q232 25 201.50 56.50Q171 88 152 132Q133 176 124 230L35 230L35 309L116 309L116 382L35 382L35 461L124 461Q133 514 152 558Q171 602 201.50 633.50Q232 665 276 682.50Q320 700 380 700Q431 700 470 689Q509 678 553 658L521 566Q476 586 440.50 592.50Q405 599 382 599Q322 599 289.50 563Q257 527 244 461L423 461L414 382L234 382L234 309L407 309L398 230L244 230Q257 162 289.50 126.50Q322 91 382 91Q405 91 440.50 97.50Q476 104 521 124L553 32Z"  horiz-adv-x="558" vert-adv-y="1000"  />

      
      <glyph glyph-name="uni20AB" unicode="&#x20AB;" d="M390 0Q388 10 386 22.50Q384 35 382 50Q350 24 311 7Q272-10 226-10Q178-10 139.50 11Q101 32 74 68Q47 104 33 152Q19 200 19 254Q19 311 34 361Q49 411 78 448.50Q107 486 149.50 508Q192 530 246 530Q316 530 374 487L374 588L220 588L220 666L374 666L374 743L487 753L487 666L564 666L564 588L487 588L487 133Q487 104 488.50 68Q490 32 498 0L390 0M374 406Q321 436 269 436Q233 436 207.50 422Q182 408 165 383Q148 358 140 325Q132 292 132 253Q132 176 163 130Q194 84 257 84Q284 84 314.50 92.50Q345 101 374 118L374 406M517-161L53-161L53-83L517-83L517-161Z"  horiz-adv-x="558" vert-adv-y="1000"  />

      
      <glyph glyph-name="uni20B8" unicode="&#x20B8;" d="M337 0L220 0L220 418L26 418L26 516L531 516L531 418L337 418L337 0M531 592L26 592L26 690L531 690L531 592Z"  horiz-adv-x="558" vert-adv-y="1000"  />

      
      <glyph glyph-name="uni20B9" unicode="&#x20B9;" d="M405-14Q339 55 284 120Q229 185 176 263L57 263L57 347L199 347Q247 347 278.50 370.50Q310 394 321 434L57 434L57 518L320 518Q310 557 280 581.50Q250 606 205 606L57 606L57 690L500 690L500 606L392 606Q409 588 422 566Q435 544 440 518L500 518L500 434L442 434Q432 377 393.50 336.50Q355 296 295 279Q317 250 339 224Q361 198 384.50 171.50Q408 145 434.50 117.50Q461 90 492 60L405-14Z"  horiz-adv-x="558" vert-adv-y="1000"  />

      
      <glyph glyph-name="uni20AE" unicode="&#x20AE;" d="M337 0L220 0L220 168L93 134L73 208L220 248L220 328L73 288L53 362L220 407L220 592L26 592L26 690L531 690L531 592L337 592L337 439L466 475L486 400L337 360L337 280L486 320L506 246L337 200L337 0Z"  horiz-adv-x="558" vert-adv-y="1000"  />

      
      <glyph glyph-name="uni20B1" unicode="&#x20B1;" d="M177 0L62 0L62 429L10 429L10 509L62 509L62 690L268 690Q314 690 353 677.50Q392 665 421.50 641.50Q451 618 470.50 584.50Q490 551 497 509L548 509L548 429L497 429Q484 344 423 296Q362 248 270 248L177 248L177 0M260 343Q305 343 337 365.50Q369 388 379 429L177 429L177 343L260 343M379 509Q366 559 328.50 577Q291 595 236 595L177 595L177 509L379 509Z"  horiz-adv-x="558" vert-adv-y="1000"  />

      
      <glyph glyph-name="uni20B2" unicode="&#x20B2;" d="M534 44Q496 23 446 7.50Q396-8 339-10L339-117L242-126L242-1Q188 12 145.50 42Q103 72 74 116.50Q45 161 30 218Q15 275 15 342Q15 400 27.50 457Q40 514 67.50 561Q95 608 138 642.50Q181 677 242 691L242 799L339 808L339 699Q403 697 449 678.50Q495 660 533 638L491 547Q447 570 411.50 582Q376 594 339 596L339 392L534 392L534 44M242 580Q212 566 190.50 542.50Q169 519 155.50 488Q142 457 136 420.50Q130 384 130 345Q130 304 136 266.50Q142 229 155.50 198Q169 167 190.50 143.50Q212 120 242 107L242 580M339 91Q360 92 381.50 96Q403 100 425 107L425 296L339 296L339 91Z"  horiz-adv-x="558" vert-adv-y="1000"  />

      
      <glyph glyph-name="uni20B4" unicode="&#x20B4;" d="M517 61Q463 26 401 8Q339-10 279-10Q229-10 188.50 2Q148 14 118.50 37Q89 60 73 92.50Q57 125 57 167Q57 185 59.50 200Q62 215 67 229L19 229L19 308L122 308Q150 326 184 343.50Q218 361 251 381L19 381L19 460L365 460Q376 473 382.50 487.50Q389 502 389 521Q389 561 358 582Q327 603 278 603Q239 603 198 589.50Q157 576 114 551L77 638Q117 664 170.50 682Q224 700 284 700Q327 700 365.50 689.50Q404 679 433.50 657Q463 635 480.50 602.50Q498 570 498 527Q498 506 494 490Q490 474 483 460L539 460L539 381L416 381Q384 358 346 341.50Q308 325 276 308L539 308L539 229L183 229Q168 206 168 174Q168 133 197 110Q226 87 284 87Q329 87 380.50 102Q432 117 480 148L517 61Z"  horiz-adv-x="558" vert-adv-y="1000"  />

      
      <glyph glyph-name="uni20A9" unicode="&#x20A9;" d="M750 0L639 0L539 292L414 292L321 0L210 0L132 292L22 292L22 367L112 367L26 690L144 690L223 367L336 367L426 643L529 643L623 367L740 367L818 690L934 690L848 367L938 367L938 292L828 292L750 0M272 168L312 292L241 292L272 168M514 367L475 482L438 367L514 367M692 164L722 292L648 292L692 164Z"  horiz-adv-x="960" vert-adv-y="1000"  />

      
      <glyph glyph-name="uni20B5" unicode="&#x20B5;" d="M553 52Q513 28 469 12.50Q425-3 374-8L374-118L289-126L289-6Q218 3 169.50 36Q121 69 91 117Q61 165 48 224Q35 283 35 344Q35 405 48 464.50Q61 524 91 572.50Q121 621 169.50 654Q218 687 289 696L289 800L374 808L374 698Q425 693 469 677.50Q513 662 553 638L511 547Q476 565 443.50 577.50Q411 590 374 595L374 95Q411 99 443.50 112Q476 125 511 143L553 52M289 590Q251 580 225 557Q199 534 183 501.50Q167 469 159.50 428.50Q152 388 152 344Q152 300 159.50 259.50Q167 219 183 187Q199 155 225 132Q251 109 289 99L289 590Z"  horiz-adv-x="558" vert-adv-y="1000"  />

      
      <glyph glyph-name="uni20BA" unicode="&#x20BA;" d="M534 329Q523 261 499 202Q475 143 428 97.50Q381 52 307 23.50Q233-5 124-10L124 336L46 314L25 388L124 416L124 491L26 463L5 537L124 570L124 690L238 690L238 603L351 635L372 561L238 523L238 448L371 486L392 412L238 368L238 110Q317 127 362.50 183.50Q408 240 425 329L534 329Z"  horiz-adv-x="558" vert-adv-y="1000"  />

      
      <glyph glyph-name="uni20AA" unicode="&#x20AA;" d="M628 218L512 218L512 423Q512 465 505.50 496.50Q499 528 482.50 549Q466 570 438.50 580.50Q411 591 370 591L198 591L198 0L82 0L82 690L378 690Q448 690 496 673.50Q544 657 573 623.50Q602 590 615 540Q628 490 628 423L628 218M843 267Q843 200 830 150Q817 100 788 66.50Q759 33 711 16.50Q663 0 593 0L297 0L297 472L413 472L413 99L585 99Q626 99 653.50 109.50Q681 120 697.50 141Q714 162 720.50 193.50Q727 225 727 267L727 690L843 690L843 267Z"  horiz-adv-x="925" vert-adv-y="1000"  />

      
      <glyph glyph-name="uni20A1" unicode="&#x20A1;" d="M558 52Q515 26 471 11.50Q427-3 378-8L360-120L278-120L297-7Q259-4 226 7L205-120L123-120L150 45Q117 70 94 103Q71 136 56.50 175Q42 214 35.50 257Q29 300 29 344Q29 403 41 459.50Q53 516 80.50 562.50Q108 609 151.50 642.50Q195 676 258 690L277 802L359 802L341 699Q360 699 378 697Q396 695 413 692L432 802L514 802L492 669Q509 662 525 654.50Q541 647 558 637L516 546Q505 551 495 556Q485 561 474 566L396 96Q428 103 457 115Q486 127 516 143L558 52M243 112Q274 96 313 92L397 592Q371 598 343 598Q338 598 335 598Q332 598 324 597L243 112M238 573Q186 544 164 483.50Q142 423 142 344Q142 297 149 256.50Q156 216 173 184L238 573Z"  horiz-adv-x="558" vert-adv-y="1000"  />

      
      <glyph glyph-name="uni20A6" unicode="&#x20A6;" d="M614 0L515 0L377 230L203 230L203 0L104 0L104 230L22 230L22 309L104 309L104 382L22 382L22 461L104 461L104 690L203 690L340 461L515 461L515 690L614 690L614 461L696 461L696 382L614 382L614 309L696 309L696 230L614 230L614 0M330 309L286 382L203 382L203 309L330 309M515 309L515 382L387 382L431 309L515 309M239 461L203 521L203 461L239 461M515 169L515 230L478 230L515 169Z"  horiz-adv-x="718" vert-adv-y="1000"  />

      
      <glyph glyph-name="uni20AD" unicode="&#x20AD;" d="M469-14Q437 17 402.50 55.50Q368 94 333 136Q298 178 265 221Q232 264 205 305L205 0L88 0L88 308L22 308L22 389L88 389L88 690L205 690L205 395L411 690L541 690L315 389L533 389L533 308L327 308Q352 277 381 243Q410 209 440 176.50Q470 144 499 114Q528 84 553 62L469-14Z"  horiz-adv-x="558" vert-adv-y="1000"  />

      
      <glyph glyph-name="uni20A0" unicode="&#x20A0;" d="M551 0L265 0L265 196L235 196Q177 196 134.50 216Q92 236 63.50 270.50Q35 305 21 350.50Q7 396 7 447Q7 498 21 544Q35 590 63.50 624.50Q92 659 135 679.50Q178 700 235 700Q280 700 317.50 689.50Q355 679 383 662L347 580Q317 594 292.50 599.50Q268 605 242 605Q207 605 183 592Q159 579 144 557Q129 535 122 506.50Q115 478 115 448Q115 417 122 388.50Q129 360 144 338Q159 316 183 303Q207 290 242 290L265 290L265 489L551 489L551 397L369 397L369 290L509 290L509 198L369 198L369 92L551 92L551 0Z"  horiz-adv-x="558" vert-adv-y="1000"  />

      
      <glyph glyph-name="uni20A2" unicode="&#x20A2;" d="M553 52Q507 24 454.50 7Q402-10 340-10Q254-10 196 20.50Q138 51 102 100.50Q66 150 50.50 214Q35 278 35 344Q35 411 50.50 475Q66 539 102 589Q138 639 196 669.50Q254 700 340 700Q402 700 454.50 683Q507 666 553 638L511 547Q469 569 430 583Q391 597 343 597Q290 597 253.50 576.50Q217 556 194.50 521.50Q172 487 162 441Q152 395 152 344Q152 270 173.50 209.50Q195 149 245 118L245 411L332 420L343 341Q374 380 406.50 402Q439 424 479 424Q493 424 508 421.50Q523 419 538 414L515 317Q499 322 485.50 323.50Q472 325 463 325Q427 325 401.50 312.50Q376 300 349 277L349 93Q395 94 432.50 108Q470 122 511 143L553 52Z"  horiz-adv-x="558" vert-adv-y="1000"  />

      
      <glyph glyph-name="uni20A5" unicode="&#x20A5;" d="M633 0Q625 32 623 68Q621 104 621 133L621 320Q621 378 605 407Q589 436 553 436Q530 436 506.50 424.50Q483 413 462 395L454 366Q455 353 455 343Q455 333 455 327L455 133Q455 104 457 68Q459 32 467 0L377 0Q370 23 367.50 50Q365 77 365 102L291-147L213-147L346 298L346 320Q346 378 330 407Q314 436 278 436Q253 436 228 424Q203 412 180 393L180 0L71 0L71 516L162 526L171 461Q203 490 238 510Q273 530 312 530Q373 530 407 470L467 670L544 670L492 495Q514 510 539 520Q564 530 594 530Q660 530 695 478Q730 426 730 327L730 133Q730 104 732 68Q734 32 742 0L633 0Z"  horiz-adv-x="797" vert-adv-y="1000"  />

      
      <glyph glyph-name="uni20A8" unicode="&#x20A8;" d="M533-14Q466 52 411.50 119.50Q357 187 304 262L199 262L199 0L82 0L82 690L340 690Q391 690 434 675Q477 660 508 632.50Q539 605 556.50 565Q574 525 574 475Q574 397 533.50 348.50Q493 300 424 280Q472 218 519.50 164.50Q567 111 620 61L533-14M329 357Q385 357 419 387.50Q453 418 453 474Q453 531 419 561.50Q385 592 329 592L199 592L199 357L329 357M1009 396Q928 438 864 438Q849 438 833.50 435Q818 432 805.50 426Q793 420 785.50 410Q778 400 778 385Q778 370 786.50 358.50Q795 347 809 338.50Q823 330 842.50 322.50Q862 315 885 307Q916 296 947 284Q978 272 1003 253.50Q1028 235 1043 208Q1058 181 1058 141Q1058 67 1003.50 28.50Q949-10 852-10Q801-10 751.50 2Q702 14 658 40L693 124Q733 103 774 92.50Q815 82 853 82Q897 82 921 95.50Q945 109 945 136Q945 152 936 163.50Q927 175 912 184.50Q897 194 876.50 202Q856 210 833 218Q801 229 771 241.50Q741 254 717.50 272Q694 290 679.50 315.50Q665 341 665 379Q665 417 680.50 445.50Q696 474 722.50 492.50Q749 511 784.50 520.50Q820 530 860 530Q916 530 963 515Q1010 500 1044 480L1009 396Z"  horiz-adv-x="1094" vert-adv-y="1000"  />

      
      <glyph glyph-name="unia4" unicode="&#xa4;" d="M532 150L469 88L393 165Q368 151 340 143Q312 135 279 135Q246 135 218 143Q190 151 165 165L89 88L26 150L100 226Q65 278 65 344Q65 410 100 462L26 538L89 600L165 523Q190 537 218 545Q246 553 279 553Q312 553 340 545Q368 537 393 523L469 600L532 538L458 462Q493 410 493 344Q493 278 458 226L532 150M279 231Q332 231 362 263.50Q392 296 392 344Q392 392 362 424.50Q332 457 279 457Q226 457 196 424.50Q166 392 166 344Q166 296 196 263.50Q226 231 279 231Z"  horiz-adv-x="558" vert-adv-y="1000"  />

      
      <glyph glyph-name="uni20B0" unicode="&#x20B0;" d="M459 196Q465 178 468.50 159Q472 140 472 120Q472 64 439.50 27Q407-10 336-10Q313-10 289.50-5.50Q266-1 244 9L264 87Q277 82 291.50 79.50Q306 77 318 77Q349 77 363.50 91Q378 105 378 128Q378 141 373.50 157.50Q369 174 364 190L340 261L265 170L202 265L129 177L23 177L203 396L265 299L307 352L281 426Q273 449 267 467Q261 485 257.50 500Q254 515 252 528.50Q250 542 250 556Q250 585 259 611Q268 637 286 657Q304 677 330 688.50Q356 700 390 700Q417 700 442 690Q467 680 485.50 661.50Q504 643 515 617.50Q526 592 526 561Q526 514 503 470.50Q480 427 448 389L408 341L459 196M375 435Q398 462 415 495Q432 528 432 556Q432 579 420 592.50Q408 606 389 606Q371 606 358.50 591.50Q346 577 346 551Q346 529 354 499.50Q362 470 375 435Z"  horiz-adv-x="558" vert-adv-y="1000"  />

      
      <glyph glyph-name="uni20B6" unicode="&#x20B6;" d="M634 12Q607 0 583.50-5Q560-10 534-10Q448-10 407.50 41.50Q367 93 367 193L367 431L232 431L232 0L118 0L118 431L12 431L12 520L118 520L118 743L232 753L232 520L367 520L367 646L481 656L481 520L613 520L613 431L481 431L481 209Q481 184 483.50 161.50Q486 139 493.50 121.50Q501 104 515.50 94Q530 84 553 84Q567 84 582.50 86.50Q598 89 614 94L634 12Z"  horiz-adv-x="651" vert-adv-y="1000"  />

      
      <glyph glyph-name="uni20B7" unicode="&#x20B7;" d="M288-10Q286-5 285.50-0.50Q285 4 284 9Q248 9 217 15Q218 9 219 3.50Q220-2 222-10L165-10Q160 10 159 27Q124 37 93 52L93-10L37-10L37 207L79 213L87 184Q101 197 117 205.50Q133 214 152 214Q171 214 184 205Q197 196 205 180Q220 195 237.50 204.50Q255 214 275 214Q307 214 322.50 189.50Q338 165 338 128L338 82Q375 93 392.50 117Q410 141 410 173Q410 201 397.50 220.50Q385 240 363.50 255Q342 270 313 282.50Q284 295 251 307Q204 324 165 341Q126 358 97.50 380.50Q69 403 53 433.50Q37 464 37 508Q37 556 55.50 592Q74 628 106 652Q138 676 181 688Q224 700 274 700Q334 700 392 684Q450 668 500 639L459 547Q414 570 366.50 584.50Q319 599 275 599Q251 599 229 594Q207 589 190.50 579.50Q174 570 164.50 554.50Q155 539 155 518Q155 496 166 480Q177 464 196.50 451Q216 438 241.50 427.50Q267 417 297 406Q336 391 375.50 373.50Q415 356 447.50 331Q480 306 500.50 271Q521 236 521 187Q521 112 472.50 69Q424 26 339 13Q340 8 341 3Q342-2 344-10L288-10M282 123Q282 144 274.50 153Q267 162 253 162Q233 162 214 146Q215 141 215.50 136Q216 131 216 126L216 78Q244 73 282 73L282 123M159 123Q159 162 131 162Q121 162 112 158Q103 154 93 147L93 112Q125 98 159 89L159 123Z"  horiz-adv-x="558" vert-adv-y="1000"  />

      
      <glyph glyph-name="uni20B3" unicode="&#x20B3;" d="M551 0L435 0L381 186L175 186L120 0L7 0L65 186L13 186L13 262L89 262L112 335L13 335L13 411L136 411L224 690L335 690L422 411L546 411L546 335L446 335L469 262L546 262L546 186L493 186L551 0M359 262L338 335L219 335L197 262L359 262M316 411L279 539L241 411L316 411Z"  horiz-adv-x="558" vert-adv-y="1000"  />

      
      <glyph glyph-name="uni20A3" unicode="&#x20A3;" d="M239 0L122 0L122 107L22 107L22 188L122 188L122 690L536 690L536 592L239 592L239 402L474 402L474 304L239 304L239 188L339 188L339 107L239 107L239 0Z"  horiz-adv-x="558" vert-adv-y="1000"  />

      
      <glyph glyph-name="uni20A4" unicode="&#x20A4;" d="M530 0L80 0L73 68Q107 99 124 133Q141 167 146 201L50 201L50 280L147 280Q145 299 142.50 317Q140 335 138 353L50 353L50 432L126 432Q124 445 124 458.50Q124 472 124 486Q124 527 135 565.50Q146 604 171 634Q196 664 236 682Q276 700 335 700Q399 700 448 678.50Q497 657 537 625L484 544Q447 572 414.50 586Q382 600 340 600Q294 600 266.50 573Q239 546 239 481Q239 457 242 432L400 432L400 353L254 353Q256 336 258 317.50Q260 299 261 280L400 280L400 201L260 201Q251 146 223 99L530 99L530 0Z"  horiz-adv-x="558" vert-adv-y="1000"  />

      
      <glyph glyph-name="uni20A7" unicode="&#x20A7;" d="M1103 361Q1067 380 1033.50 389.50Q1000 399 973 399Q947 399 926 388Q905 377 905 352Q905 328 926.50 313Q948 298 980 286Q1010 275 1040.50 262.50Q1071 250 1095 232Q1119 214 1134 187.50Q1149 161 1149 122Q1149 87 1134 62Q1119 37 1095 21Q1071 5 1040-2.50Q1009-10 976-10Q938-10 903-0.50Q868 9 836 24Q810 8 785.50-1Q761-10 728-10Q688-10 659.50 5.50Q631 21 612.50 48.50Q594 76 585.50 114Q577 152 577 197L577 388L507 388Q484 326 428.50 290.50Q373 255 292 255L197 255L197 0L82 0L82 690L292 690Q342 690 383.50 675Q425 660 455 632.50Q485 605 502 565.50Q519 526 521 477L577 477L577 603L686 613L686 477L894 477Q912 482 931.50 484.50Q951 487 971 487Q1013 487 1056 475.50Q1099 464 1136 441L1103 361M679 213Q679 148 694.50 116Q710 84 752 84Q775 84 793 92.50Q811 101 830 118Q858 102 897.50 89.50Q937 77 972 77Q1001 77 1020.50 88.50Q1040 100 1040 122Q1040 149 1010.50 165.50Q981 182 938 198Q864 224 830 256.50Q796 289 796 345Q796 369 803 388L679 388L679 213M280 352Q336 352 370.50 382.50Q405 413 405 473Q405 533 370.50 562.50Q336 592 280 592L197 592L197 352L280 352Z"  horiz-adv-x="1185" vert-adv-y="1000"  />

      
      <glyph glyph-name="uni20AF" unicode="&#x20AF;" d="M401 601Q356 600 310.50 588.50Q265 577 219 556L180 643Q231 669 287 684.50Q343 700 401 700Q476 700 540.50 673.50Q605 647 652 599Q699 551 726 484.50Q753 418 753 338Q753 271 733.50 208Q714 145 676 96.50Q638 48 582.50 19Q527-10 456-10Q399-10 361.50 7.50Q324 25 296 49Q268 22 235 6Q202-10 159-10Q124-10 97.50 1Q71 12 54 30Q37 48 28.50 71.50Q20 95 20 121Q20 149 30 172.50Q40 196 57.50 213Q75 230 99 239.50Q123 249 152 249Q191 249 220.50 233.50Q250 218 273 196Q285 224 293.50 250Q302 276 311 306L401 601M794-232L682-232L821 287Q834 335 855.50 370.50Q877 406 905.50 429.50Q934 453 967.50 465Q1001 477 1037 477Q1077 477 1113.50 462.50Q1150 448 1177.50 420.50Q1205 393 1221 352.50Q1237 312 1237 261Q1237 211 1221 162.50Q1205 114 1173 76Q1141 38 1093.50 14Q1046-10 983-10Q944-10 914.50-1.50Q885 7 862 20L794-232M397 224Q386 190 375.50 167Q365 144 355 129Q375 113 398.50 103.50Q422 94 453 94Q496 94 530 114Q564 134 587.50 167.50Q611 201 623 245Q635 289 635 337Q635 372 628 408.50Q621 445 605.50 477.50Q590 510 566 536.50Q542 563 508 579L397 224M883 99Q904 89 928.50 83.50Q953 78 974 78Q1012 78 1040.50 95Q1069 112 1088.50 139Q1108 166 1117.50 199Q1127 232 1127 265Q1127 324 1100.50 352Q1074 380 1039 380Q1002 380 972.50 349Q943 318 926 257L883 99M161 79Q195 79 228 118Q211 136 195.50 148Q180 160 160 160Q142 160 130.50 149.50Q119 139 119 119Q119 99 131 89Q143 79 161 79Z"  horiz-adv-x="1278" vert-adv-y="1000"  />

      
      <glyph glyph-name="uniF639" unicode="&#xF639;" d="M304-90L224-97L224-9Q176-5 130 8.50Q84 22 39 51L78 136Q113 116 151 102Q189 88 224 83L224 241Q193 251 162.50 264Q132 277 107.50 296Q83 315 67.50 341.50Q52 368 52 407Q52 443 65.50 470.50Q79 498 102.50 517.50Q126 537 157 548.50Q188 560 224 563L224 626L304 633L304 561Q342 556 379 543.50Q416 531 451 511L412 427Q355 458 304 468L304 320Q334 310 363.50 297Q393 284 417 264.50Q441 245 455.50 218Q470 191 470 154Q470 86 424.50 45Q379 4 304-6L304-90M224 472Q196 469 177.50 454Q159 439 159 414Q159 390 176.50 374.50Q194 359 224 348L224 472M304 85Q331 91 347.50 106.50Q364 122 364 146Q364 171 348 186Q332 201 304 212L304 85Z"  horiz-adv-x="510" vert-adv-y="1000"  />

      
      <glyph glyph-name="uniF63A" unicode="&#xF63A;" d="M323-85L243-92L243 21Q167 34 122.50 89Q78 144 78 232Q78 317 121.50 373.50Q165 430 243 442L243 549L323 556L323 442Q352 438 378 427.50Q404 417 426 403L393 325Q372 336 355 343.50Q338 351 323 354L323 110Q357 117 397 140L431 61Q380 28 323 21L323-85M243 351Q214 339 198 308.50Q182 278 182 232Q182 189 196.50 157.50Q211 126 243 113L243 351Z"  horiz-adv-x="510" vert-adv-y="1000"  />

      
      <glyph glyph-name="uniF63B" unicode="&#xF63B;" d="M448 0L78 0L72 61Q91 78 102.50 97Q114 116 120 134Q126 152 128 168.50Q130 185 130 199Q130 210 129.50 220.50Q129 231 127 244L54 244L54 319L117 319Q111 358 111 393Q111 427 120.50 458.50Q130 490 151 513.50Q172 537 205 551Q238 565 285 565Q339 565 380 547Q421 529 455 503L406 426Q377 448 351 460Q325 472 296 472Q265 472 244.50 452.50Q224 433 224 391Q224 355 230 319L341 319L341 244L239 244Q242 220 242 199Q242 143 217 93L448 93L448 0Z"  horiz-adv-x="510" vert-adv-y="1000"  />

      
      <glyph glyph-name="uniF63C" unicode="&#xF63C;" d="M425 79L309 79L309 0L201 0L201 79L85 79L85 150L201 150L201 199L85 199L85 270L175 270L18 555L138 555L256 317L376 555L492 555L335 270L425 270L425 199L309 199L309 150L425 150L425 79Z"  horiz-adv-x="510" vert-adv-y="1000"  />

      
      <glyph glyph-name="uniF638" unicode="&#xF638;" d="M478 29Q436 11 398 0.50Q360-10 318-10Q270-10 233 4Q196 18 169.50 43.50Q143 69 126.50 104Q110 139 102 181L32 181L32 252L95 252L95 301L32 301L32 372L102 372Q117 459 169.50 512Q222 565 319 565Q361 565 398.50 554.50Q436 544 478 526L448 440Q407 457 373.50 464Q340 471 321 471Q279 471 249 446Q219 421 211 372L362 372L355 301L203 301L203 252L350 252L344 181L211 181Q219 136 247.50 110Q276 84 321 84Q340 84 373.50 91Q407 98 448 115L478 29Z"  horiz-adv-x="510" vert-adv-y="1000"  />

      
      <glyph glyph-name="uni5e" unicode="&#x5e;" d="M526 314L420 297L279 604L138 297L32 314L224 707L334 707L526 314Z"  horiz-adv-x="558" vert-adv-y="1000"  />

      
      <glyph glyph-name="uni2b" unicode="&#x2b;" d="M496 299L326 299L326 129L232 129L232 299L62 299L62 392L232 392L232 562L326 562L326 392L496 392L496 299Z"  horiz-adv-x="558" vert-adv-y="1000"  />

      
      <glyph glyph-name="uni2212" unicode="&#x2212;" d="M496 299L62 299L62 392L496 392L496 299Z"  horiz-adv-x="558" vert-adv-y="1000"  />

      
      <glyph glyph-name="unib1" unicode="&#xb1;" d="M496 5L62 5L62 98L496 98L496 5M496 344L326 344L326 174L232 174L232 344L62 344L62 437L232 437L232 607L326 607L326 437L496 437L496 344Z"  horiz-adv-x="558" vert-adv-y="1000"  />

      
      <glyph glyph-name="uni3d" unicode="&#x3d;" d="M496 195L62 195L62 288L496 288L496 195M496 407L62 407L62 500L496 500L496 407Z"  horiz-adv-x="558" vert-adv-y="1000"  />

      
      <glyph glyph-name="uni2260" unicode="&#x2260;" d="M496 190L256 190L209 86L113 86L160 190L62 190L62 283L203 283L259 407L62 407L62 500L302 500L349 604L445 604L398 500L496 500L496 407L355 407L299 283L496 283L496 190Z"  horiz-adv-x="558" vert-adv-y="1000"  />

      
      <glyph glyph-name="unif7" unicode="&#xf7;" d="M354 164Q354 132 333.50 113Q313 94 279 94Q245 94 224.50 113Q204 132 204 164Q204 196 224.50 215Q245 234 279 234Q313 234 333.50 215Q354 196 354 164M496 299L62 299L62 392L496 392L496 299M354 527Q354 495 333.50 476Q313 457 279 457Q245 457 224.50 476Q204 495 204 527Q204 559 224.50 578Q245 597 279 597Q313 597 333.50 578Q354 559 354 527Z"  horiz-adv-x="558" vert-adv-y="1000"  />

      
      <glyph glyph-name="uni3c" unicode="&#x3c;" d="M468 120L73 288L73 398L468 566L485 460L175 343L485 226L468 120Z"  horiz-adv-x="558" vert-adv-y="1000"  />

      
      <glyph glyph-name="uni3e" unicode="&#x3e;" d="M485 288L90 120L73 226L383 343L73 460L90 566L485 398L485 288Z"  horiz-adv-x="558" vert-adv-y="1000"  />

      
      <glyph glyph-name="uni2264" unicode="&#x2264;" d="M496 5L62 5L62 98L496 98L496 5M468 160L73 328L73 438L468 606L485 500L175 383L485 266L468 160Z"  horiz-adv-x="558" vert-adv-y="1000"  />

      
      <glyph glyph-name="uni2265" unicode="&#x2265;" d="M496 5L62 5L62 98L496 98L496 5M485 328L90 160L73 266L383 383L73 500L90 606L485 438L485 328Z"  horiz-adv-x="558" vert-adv-y="1000"  />

      
      <glyph glyph-name="uni7e" unicode="&#x7e;" d="M522 387Q512 362 498 339Q484 316 465 299Q446 282 423 271.50Q400 261 372 261Q340 261 312.50 273.50Q285 286 262 300Q242 312 223 321.50Q204 331 186 331Q159 331 139.50 309.50Q120 288 102 255L36 304Q46 329 60 352Q74 375 93 392Q112 409 135 419.50Q158 430 186 430Q218 430 245.50 417.50Q273 405 296 391Q316 379 335 369.50Q354 360 372 360Q399 360 418.50 381.50Q438 403 456 436L522 387Z"  horiz-adv-x="558" vert-adv-y="1000"  />

      
      <glyph glyph-name="uni2248" unicode="&#x2248;" d="M522 283Q512 258 498 235Q484 212 465 195Q446 178 423 167.50Q400 157 372 157Q340 157 312.50 169.50Q285 182 262 196Q242 208 223 217.50Q204 227 186 227Q159 227 139.50 205.50Q120 184 102 151L36 200Q46 225 60 248Q74 271 93 288Q112 305 135 315.50Q158 326 186 326Q218 326 245.50 313.50Q273 301 296 287Q316 275 335 265.50Q354 256 372 256Q399 256 418.50 277.50Q438 299 456 332L522 283M522 495Q512 470 498 447Q484 424 465 407Q446 390 423 379.50Q400 369 372 369Q340 369 312.50 381.50Q285 394 262 408Q242 420 223 429.50Q204 439 186 439Q159 439 139.50 417.50Q120 396 102 363L36 412Q46 437 60 460Q74 483 93 500Q112 517 135 527.50Q158 538 186 538Q218 538 245.50 525.50Q273 513 296 499Q316 487 335 477.50Q354 468 372 468Q399 468 418.50 489.50Q438 511 456 544L522 495Z"  horiz-adv-x="558" vert-adv-y="1000"  />

      
      <glyph glyph-name="unid7" unicode="&#xd7;" d="M478 211L411 145L279 276L147 145L80 211L212 343L80 475L147 541L279 409L411 541L478 475L345 343L478 211Z"  horiz-adv-x="558" vert-adv-y="1000"  />

      
      <glyph glyph-name="uni2217" unicode="&#x2217;" d="M476 116L389 66L279 252L169 66L82 116L202 300L4 294L4 392L202 386L82 570L169 620L279 434L389 620L476 570L356 386L554 392L554 294L356 300L476 116Z"  horiz-adv-x="558" vert-adv-y="1000"  />

      
      <glyph glyph-name="uni2236" unicode="&#x2236;" d="M214 177Q214 145 193.50 126Q173 107 139 107Q105 107 84.50 126Q64 145 64 177Q64 209 84.50 228Q105 247 139 247Q173 247 193.50 228Q214 209 214 177M214 514Q214 482 193.50 463Q173 444 139 444Q105 444 84.50 463Q64 482 64 514Q64 546 84.50 565Q105 584 139 584Q173 584 193.50 565Q214 546 214 514Z"  horiz-adv-x="278" vert-adv-y="1000"  />

      
      <glyph glyph-name="uni5f" unicode="&#x5f;" d="M487-164L0-164L0-71L487-71L487-164Z"  horiz-adv-x="487" vert-adv-y="1000"  />

      
      <glyph glyph-name="uni2017" unicode="&#x2017;" d="M487-270L0-270L0-191L487-191L487-270M487-150L0-150L0-71L487-71L487-150Z"  horiz-adv-x="487" vert-adv-y="1000"  />

      
      </font>
</defs>
</svg>
