<?xml version="1.0" standalone="no"?>
  <!DOCTYPE svg PUBLIC "-//W3C//DTD SVG 1.1//EN" "http://www.w3.org/Graphics/SVG/1.1/DTD/svg11.dtd" >
  <svg>
  <metadata>
  Created by font-carrier
  </metadata>
  <defs>
  <font id="BreezeSans" horiz-adv-x="1572" vert-adv-y="1572" >
    <font-face
      
      font-family="BreezeSans"
      
      font-weight="400"
      
      font-stretch="normal"
      
      units-per-em="1000"
      
      ascent="930"
      
      descent="-270"
      
    />
      <missing-glyph />

      

      
      <glyph glyph-name="uni2e" unicode="&#x2e;" d="M171 7Q155-10 124-10Q94-10 77.50 7Q61 24 61 50Q61 77 77.50 94Q94 111 124 111Q155 111 171 94Q187 77 187 50Q187 24 171 7Z"  horiz-adv-x="248" vert-adv-y="1000"  />

      
      <glyph glyph-name="uni3a" unicode="&#x3a;" d="M171 7Q155-10 124-10Q94-10 77.50 7Q61 24 61 50Q61 77 77.50 94Q94 111 124 111Q155 111 171 94Q187 77 187 50Q187 24 171 7M171 403Q155 386 124 386Q94 386 77.50 403Q61 420 61 446Q61 473 77.50 490Q94 507 124 507Q155 507 171 490Q187 473 187 446Q187 420 171 403Z"  horiz-adv-x="248" vert-adv-y="1000"  />

      
      <glyph glyph-name="uni2c" unicode="&#x2c;" d="M11-124Q27-95 39.50-68.50Q52-42 60-15Q68 12 73 42.50Q78 73 79 111L180 103Q180 82 173.50 49.50Q167 17 154-19Q141-55 121-91.50Q101-128 75-156L11-124Z"  horiz-adv-x="248" vert-adv-y="1000"  />

      
      <glyph glyph-name="uni3b" unicode="&#x3b;" d="M11-124Q27-95 39.50-68.50Q52-42 60-15Q68 12 73 42.50Q78 73 79 111L180 103Q180 82 173.50 49.50Q167 17 154-19Q141-55 121-91.50Q101-128 75-156L11-124M171 403Q155 386 124 386Q94 386 77.50 403Q61 420 61 446Q61 473 77.50 490Q94 507 124 507Q155 507 171 490Q187 473 187 446Q187 420 171 403Z"  horiz-adv-x="248" vert-adv-y="1000"  />

      
      <glyph glyph-name="uni3f" unicode="&#x3f;" d="M164 209Q164 246 174 275.50Q184 305 200 329.50Q216 354 235.50 375Q255 396 275 415Q305 444 328 473Q351 502 351 540Q351 564 341.50 581Q332 598 315.50 609.50Q299 621 277.50 626.50Q256 632 232 632Q189 632 147 616Q105 600 68 574L30 640Q43 652 63.50 666Q84 680 109.50 691Q135 702 166 709.50Q197 717 232 717Q276 717 315 704.50Q354 692 383.50 668.50Q413 645 430 612Q447 579 447 538Q447 510 438.50 487.50Q430 465 416.50 445Q403 425 385.50 407.50Q368 390 350 373Q315 341 286.50 303.50Q258 266 253 209L164 209M256 7Q240-10 209-10Q179-10 162.50 7Q146 24 146 50Q146 77 162.50 94Q179 111 209 111Q240 111 256 94Q272 77 272 50Q272 24 256 7Z"  horiz-adv-x="507" vert-adv-y="1000"  />

      
      <glyph glyph-name="uni21" unicode="&#x21;" d="M180 209L91 209L91 707L180 715L180 209M181 7Q165-10 135-10Q105-10 88.50 7Q72 24 72 50Q72 77 88.50 94Q105 111 135 111Q165 111 181.50 94Q198 77 198 50Q198 24 181 7Z"  horiz-adv-x="270" vert-adv-y="1000"  />

      
      <glyph glyph-name="unibf" unicode="&#xbf;" d="M477-123Q463-135 443-149Q423-163 397.50-174Q372-185 341-192.50Q310-200 275-200Q231-200 192-187.50Q153-175 123.50-151.50Q94-128 77-95Q60-62 60-21Q60 7 68.50 29.50Q77 52 90.50 72Q104 92 121.50 109.50Q139 127 157 144Q192 176 220.50 213.50Q249 251 254 308L343 308Q343 271 333 241.50Q323 212 307 187.50Q291 163 271 142Q251 121 232 102Q202 73 179 44Q156 15 156-23Q156-47 165.50-64Q175-81 191.50-92.50Q208-104 229.50-109.50Q251-115 275-115Q318-115 360-99Q402-83 439-57L477-123M344 423Q328 406 298 406Q267 406 251 423Q235 440 235 467Q235 493 251 510Q267 527 298 527Q328 527 344.50 510Q361 493 361 467Q361 440 344 423Z"  horiz-adv-x="507" vert-adv-y="1000"  />

      
      <glyph glyph-name="unia1" unicode="&#xa1;" d="M180-190L91-198L91 308L180 308L180-190M181 423Q165 406 135 406Q104 406 88 423Q72 440 72 467Q72 493 88 510Q104 527 135 527Q165 527 181.50 510Q198 493 198 467Q198 440 181 423Z"  horiz-adv-x="270" vert-adv-y="1000"  />

      
      <glyph glyph-name="uni27" unicode="&#x27;" d="M134 440L66 440L51 698L148 707L134 440Z"  horiz-adv-x="199" vert-adv-y="1000"  />

      
      <glyph glyph-name="uni22" unicode="&#x22;" d="M134 440L66 440L51 698L148 707L134 440M310 440L242 440L227 698L324 707L310 440Z"  horiz-adv-x="375" vert-adv-y="1000"  />

      
      <glyph glyph-name="uni203C" unicode="&#x203C;" d="M180 209L91 209L91 707L180 715L180 209M181 7Q165-10 135-10Q105-10 88.50 7Q72 24 72 50Q72 77 88.50 94Q105 111 135 111Q165 111 181.50 94Q198 77 198 50Q198 24 181 7M447 209L358 209L358 707L447 715L447 209M448 7Q432-10 402-10Q372-10 355.50 7Q339 24 339 50Q339 77 355.50 94Q372 111 402 111Q432 111 448.50 94Q465 77 465 50Q465 24 448 7Z"  horiz-adv-x="537" vert-adv-y="1000"  />

      
      <glyph glyph-name="uni2047" unicode="&#x2047;" d="M164 209Q164 246 174 275.50Q184 305 200 329.50Q216 354 235.50 375Q255 396 275 415Q305 444 328 473Q351 502 351 540Q351 564 341.50 581Q332 598 315.50 609.50Q299 621 277.50 626.50Q256 632 232 632Q189 632 147 616Q105 600 68 574L30 640Q43 652 63.50 666Q84 680 109.50 691Q135 702 166 709.50Q197 717 232 717Q276 717 315 704.50Q354 692 383.50 668.50Q413 645 430 612Q447 579 447 538Q447 510 438.50 487.50Q430 465 416.50 445Q403 425 385.50 407.50Q368 390 350 373Q315 341 286.50 303.50Q258 266 253 209L164 209M256 7Q240-10 209-10Q179-10 162.50 7Q146 24 146 50Q146 77 162.50 94Q179 111 209 111Q240 111 256 94Q272 77 272 50Q272 24 256 7M639 209Q639 246 649 275.50Q659 305 675 329.50Q691 354 710.50 375Q730 396 750 415Q780 444 803 473Q826 502 826 540Q826 564 816.50 581Q807 598 790.50 609.50Q774 621 752.50 626.50Q731 632 707 632Q664 632 622 616Q580 600 543 574L505 640Q518 652 538.50 666Q559 680 584.50 691Q610 702 641 709.50Q672 717 707 717Q751 717 790 704.50Q829 692 858.50 668.50Q888 645 905 612Q922 579 922 538Q922 510 913.50 487.50Q905 465 891.50 445Q878 425 860.50 407.50Q843 390 825 373Q790 341 761.50 303.50Q733 266 728 209L639 209M731 7Q715-10 684-10Q654-10 637.50 7Q621 24 621 50Q621 77 637.50 94Q654 111 684 111Q715 111 731 94Q747 77 747 50Q747 24 731 7Z"  horiz-adv-x="982" vert-adv-y="1000"  />

      
      <glyph glyph-name="uni2048" unicode="&#x2048;" d="M164 209Q164 246 174 275.50Q184 305 200 329.50Q216 354 235.50 375Q255 396 275 415Q305 444 328 473Q351 502 351 540Q351 564 341.50 581Q332 598 315.50 609.50Q299 621 277.50 626.50Q256 632 232 632Q189 632 147 616Q105 600 68 574L30 640Q43 652 63.50 666Q84 680 109.50 691Q135 702 166 709.50Q197 717 232 717Q276 717 315 704.50Q354 692 383.50 668.50Q413 645 430 612Q447 579 447 538Q447 510 438.50 487.50Q430 465 416.50 445Q403 425 385.50 407.50Q368 390 350 373Q315 341 286.50 303.50Q258 266 253 209L164 209M256 7Q240-10 209-10Q179-10 162.50 7Q146 24 146 50Q146 77 162.50 94Q179 111 209 111Q240 111 256 94Q272 77 272 50Q272 24 256 7M660 209L571 209L571 707L660 715L660 209M661 7Q645-10 615-10Q585-10 568.50 7Q552 24 552 50Q552 77 568.50 94Q585 111 615 111Q645 111 661.50 94Q678 77 678 50Q678 24 661 7Z"  horiz-adv-x="750" vert-adv-y="1000"  />

      
      <glyph glyph-name="uni2049" unicode="&#x2049;" d="M180 209L91 209L91 707L180 715L180 209M181 7Q165-10 135-10Q105-10 88.50 7Q72 24 72 50Q72 77 88.50 94Q105 111 135 111Q165 111 181.50 94Q198 77 198 50Q198 24 181 7M406 209Q406 246 416 275.50Q426 305 442 329.50Q458 354 477.50 375Q497 396 517 415Q547 444 570 473Q593 502 593 540Q593 564 583.50 581Q574 598 557.50 609.50Q541 621 519.50 626.50Q498 632 474 632Q431 632 389 616Q347 600 310 574L272 640Q285 652 305.50 666Q326 680 351.50 691Q377 702 408 709.50Q439 717 474 717Q518 717 557 704.50Q596 692 625.50 668.50Q655 645 672 612Q689 579 689 538Q689 510 680.50 487.50Q672 465 658.50 445Q645 425 627.50 407.50Q610 390 592 373Q557 341 528.50 303.50Q500 266 495 209L406 209M498 7Q482-10 451-10Q421-10 404.50 7Q388 24 388 50Q388 77 404.50 94Q421 111 451 111Q482 111 498 94Q514 77 514 50Q514 24 498 7Z"  horiz-adv-x="749" vert-adv-y="1000"  />

      
      <glyph glyph-name="uni2025" unicode="&#x2025;" d="M171 7Q155-10 124-10Q94-10 77.50 7Q61 24 61 50Q61 77 77.50 94Q94 111 124 111Q155 111 171 94Q187 77 187 50Q187 24 171 7M419 7Q403-10 372-10Q342-10 325.50 7Q309 24 309 50Q309 77 325.50 94Q342 111 372 111Q403 111 419 94Q435 77 435 50Q435 24 419 7Z"  horiz-adv-x="496" vert-adv-y="1000"  />

      
      <glyph glyph-name="uni2026" unicode="&#x2026;" d="M171 7Q155-10 124-10Q94-10 77.50 7Q61 24 61 50Q61 77 77.50 94Q94 111 124 111Q155 111 171 94Q187 77 187 50Q187 24 171 7M419 7Q403-10 372-10Q342-10 325.50 7Q309 24 309 50Q309 77 325.50 94Q342 111 372 111Q403 111 419 94Q435 77 435 50Q435 24 419 7M667 7Q651-10 620-10Q590-10 573.50 7Q557 24 557 50Q557 77 573.50 94Q590 111 620 111Q651 111 667 94Q683 77 683 50Q683 24 667 7Z"  horiz-adv-x="744" vert-adv-y="1000"  />

      
      <glyph glyph-name="uniF63F" unicode="&#xF63F;" d="M123 160Q123 191 131 216Q139 241 151 261.50Q163 282 178 298.50Q193 315 208 330Q230 351 247.50 373Q265 395 265 422Q265 453 241 469Q217 485 183 485Q150 485 118 471Q86 457 56 436L20 500Q30 510 46.50 521Q63 532 84 542Q105 552 130.50 558.50Q156 565 185 565Q220 565 251 555Q282 545 305.50 526Q329 507 342.50 480Q356 453 356 420Q356 398 350 380Q344 362 334 347Q324 332 311 318Q298 304 283 291Q251 261 231.50 232Q212 203 209 160L123 160M209 5Q195-10 167-10Q139-10 124 5Q109 20 109 43Q109 67 124 82Q139 97 167 97Q195 97 209.50 82Q224 67 224 43Q224 20 209 5Z"  horiz-adv-x="406" vert-adv-y="1000"  />

      
      <glyph glyph-name="uniF63E" unicode="&#xF63E;" d="M161 5Q147-10 119-10Q91-10 76.50 5Q62 20 62 43Q62 67 76.50 82Q91 97 119 97Q147 97 161.50 82Q176 67 176 43Q176 20 161 5M162 160L76 160L76 555L162 562L162 160Z"  horiz-adv-x="238" vert-adv-y="1000"  />

      
      <glyph glyph-name="uniF642" unicode="&#xF642;" d="M386 55Q375 45 359 33.50Q343 22 322 12.50Q301 3 275.50-3.50Q250-10 221-10Q186-10 155 0Q124 10 100.50 29Q77 48 63.50 75Q50 102 50 135Q50 157 56 175Q62 193 72 208Q82 223 95 236.50Q108 250 123 264Q155 294 174.50 323Q194 352 197 395L283 395Q283 364 275 339Q267 314 255 293.50Q243 273 228 256.50Q213 240 198 225Q176 204 158.50 182Q141 160 141 133Q141 102 165 86Q189 70 223 70Q256 70 288 84Q320 98 350 119L386 55M297 512Q297 488 282 473Q267 458 239 458Q211 458 196.50 473Q182 488 182 512Q182 535 196.50 550Q211 565 239 565Q267 565 282 550Q297 535 297 512Z"  horiz-adv-x="406" vert-adv-y="1000"  />

      
      <glyph glyph-name="uniF643" unicode="&#xF643;" d="M162 0L76-7L76 395L162 395L162 0M161 473Q147 458 119 458Q91 458 76.50 473Q62 488 62 512Q62 535 76.50 550Q91 565 119 565Q147 565 161.50 550Q176 535 176 512Q176 488 161 473Z"  horiz-adv-x="238" vert-adv-y="1000"  />

      
      <glyph glyph-name="uni30" unicode="&#x30;" d="M350 95Q379 117 396.50 154.50Q414 192 421 241Q428 290 428 343Q428 397 421 446Q414 495 396.50 532.50Q379 570 350.50 592Q322 614 279 614Q236 614 207.50 592Q179 570 161.50 532.50Q144 495 137 446Q130 397 130 343Q130 290 137 241Q144 192 161.50 154.50Q179 117 207.50 95Q236 73 279 73Q322 73 350 95M467 97Q438 49 392 19.50Q346-10 279-10Q212-10 166 19.50Q120 49 91 97.50Q62 146 49 210Q36 274 36 343Q36 412 49 476Q62 540 91 589Q120 638 166 667.50Q212 697 279 697Q346 697 392 667.50Q438 638 467 589Q496 540 509 476Q522 412 522 343Q522 274 509 210Q496 146 467 97Z"  horiz-adv-x="558" vert-adv-y="1000"  />

      
      <glyph glyph-name="uni31" unicode="&#x31;" d="M393 0L302 0L302 593L124 527L98 604L308 687L393 687L393 0Z"  horiz-adv-x="558" vert-adv-y="1000"  />

      
      <glyph glyph-name="uni32" unicode="&#x32;" d="M477 0L54 0Q52 13 51 25.50Q50 38 50 49Q50 104 67.50 146.50Q85 189 113.50 222.50Q142 256 176.50 282.50Q211 309 246 333Q274 352 300 370.50Q326 389 345.50 409.50Q365 430 376.50 453Q388 476 388 504Q388 553 353.50 583.50Q319 614 263 614Q219 614 179 595Q139 576 102 542L55 609Q104 655 157 676Q210 697 265 697Q311 697 350.50 683.50Q390 670 419 644.50Q448 619 465 583.50Q482 548 482 503Q482 461 467.50 428Q453 395 429 368Q405 341 374.50 318.50Q344 296 313 274Q285 254 257.50 234Q230 214 207.50 191.50Q185 169 169 142Q153 115 147 82L477 82L477 0Z"  horiz-adv-x="558" vert-adv-y="1000"  />

      
      <glyph glyph-name="uni33" unicode="&#x33;" d="M70 145Q85 130 106 117Q127 104 151 94.50Q175 85 201.50 79Q228 73 254 73Q283 73 309.50 80.50Q336 88 356 103Q376 118 387.50 139.50Q399 161 399 190Q399 220 386 243Q373 266 351.50 282.50Q330 299 301 307.50Q272 316 240 316L182 316L182 397L229 397Q257 397 282.50 404Q308 411 327 425Q346 439 357 460Q368 481 368 508Q368 559 333.50 586.50Q299 614 251 614Q211 614 170.50 595.50Q130 577 92 542L45 609Q93 655 146 676Q199 697 253 697Q301 697 340 682Q379 667 406 641.50Q433 616 447.50 583Q462 550 462 514Q462 460 431.50 422Q401 384 348 360Q377 349 403 333Q429 317 449 295.50Q469 274 481 246.50Q493 219 493 185Q493 147 477 111.50Q461 76 430.50 49Q400 22 355.50 6Q311-10 254-10Q227-10 197-5.50Q167-1 137 9.50Q107 20 77.50 37Q48 54 23 78L70 145Z"  horiz-adv-x="558" vert-adv-y="1000"  />

      
      <glyph glyph-name="uni34" unicode="&#x34;" d="M442 0L355 0L355 159L35 159L30 207L355 687L442 687L442 237L523 237L523 159L442 159L442 0M355 237L355 553L142 237L355 237Z"  horiz-adv-x="558" vert-adv-y="1000"  />

      
      <glyph glyph-name="uni35" unicode="&#x35;" d="M93 144Q129 111 169.50 92Q210 73 261 73Q326 73 367.50 106.50Q409 140 409 208Q409 244 396.50 271Q384 298 363 315Q342 332 315 340.50Q288 349 258 349Q232 349 196.50 341.50Q161 334 124 313L85 342L98 687L457 687L457 605L184 605L176 407Q199 417 227 422.50Q255 428 282 428Q325 428 365 413Q405 398 436 370Q467 342 485 301.50Q503 261 503 210Q503 161 486 120.50Q469 80 438 51Q407 22 362.50 6Q318-10 264-10Q205-10 152 10.50Q99 31 49 78L93 144Z"  horiz-adv-x="558" vert-adv-y="1000"  />

      
      <glyph glyph-name="uni36" unicode="&#x36;" d="M439 570Q409 591 373 602.50Q337 614 306 614Q263 614 233 593Q203 572 184 537Q165 502 155.50 456Q146 410 144 361Q178 395 221 414.50Q264 434 313 434Q358 434 395.50 417.50Q433 401 460 371.50Q487 342 502 301.50Q517 261 517 214Q517 164 500 122.50Q483 81 453 51.50Q423 22 382 6Q341-10 293-10Q228-10 182.50 18.50Q137 47 108 94Q79 141 65.50 202.50Q52 264 52 330Q52 363 56 403Q60 443 70 484Q80 525 97.50 563Q115 601 143 631Q171 661 210 679Q249 697 302 697Q343 697 386 685Q429 673 473 644L439 570M211 332Q174 313 146 282Q154 183 193 128Q232 73 298 73Q326 73 349 83Q373 94 389 112.50Q405 131 414 157Q423 183 423 214Q423 276 389 313.50Q355 351 294 351Q249 351 211 332Z"  horiz-adv-x="558" vert-adv-y="1000"  />

      
      <glyph glyph-name="uni37" unicode="&#x37;" d="M181 0Q181 85 200 168.50Q219 252 249 329.50Q279 407 315 476.50Q351 546 384 605L53 605L53 687L491 687L496 629Q455 558 414.50 484Q374 410 342.50 332Q311 254 291.50 171Q272 88 272 0L181 0Z"  horiz-adv-x="558" vert-adv-y="1000"  />

      
      <glyph glyph-name="uni38" unicode="&#x38;" d="M465 425Q438 384 386 361Q413 350 436 333.50Q459 317 476.50 295.50Q494 274 504 246.50Q514 219 514 185Q514 141 496.50 105.50Q479 70 447.50 44Q416 18 373 4Q330-10 279-10Q228-10 185 4Q142 18 110.50 44Q79 70 61.50 105.50Q44 141 44 185Q44 219 54 246.50Q64 274 81.50 295.50Q99 317 122 333Q145 350 172 361Q120 384 92.50 425.50Q65 467 65 517Q65 553 80 585.50Q95 618 122.50 642.50Q150 667 189.50 682Q229 697 279 697Q328 697 368 682Q408 667 435.50 642.50Q463 618 478 585.50Q493 553 493 517Q493 467 465 425M384 105Q423 139 423 193Q423 248 384.50 284Q346 320 279 320Q212 320 173.50 284Q135 248 135 193Q135 139 173.50 105Q212 71 279 71Q346 71 384 105M368 430Q402 462 402 509Q402 528 395.50 547.50Q389 567 374 582Q359 597 335.50 606.50Q312 616 279 616Q245 616 221.50 606.50Q198 597 183.50 582Q169 567 162.50 547.50Q156 528 156 508Q156 462 189.50 430.50Q223 399 279 399Q335 399 368 430Z"  horiz-adv-x="558" vert-adv-y="1000"  />

      
      <glyph glyph-name="uni39" unicode="&#x39;" d="M83 128Q117 108 158 90.50Q199 73 245 73Q291 73 322.50 93.50Q354 114 374 149Q394 184 403 230Q412 276 414 328Q380 295 338 275Q296 255 247 255Q203 255 165.50 271Q128 287 100.50 316Q73 345 57 385Q41 425 41 473Q41 518 55.50 558.50Q70 599 98.50 629.50Q127 660 168.50 678.50Q210 697 264 697Q330 697 376 669Q422 641 451 593.50Q480 546 493 483.50Q506 421 506 352Q506 286 493.50 221Q481 156 451 105Q421 54 371 22Q321-10 247-10Q195-10 144.50 6.50Q94 23 50 54L83 128M345 357Q383 376 411 406Q406 465 391 505Q376 545 355.50 569Q335 593 310 603.50Q285 614 259 614Q229 614 206 603Q183 592 167.50 572.50Q152 553 143.50 527.50Q135 502 135 473Q135 408 171.50 373Q208 338 265 338Q308 338 345 357Z"  horiz-adv-x="558" vert-adv-y="1000"  />

      
      <glyph glyph-name="uniF800" unicode="&#xF800;" d="M359 95Q388 117 405.50 154.50Q423 192 430 241Q437 290 437 343Q437 397 430 446Q423 495 405.50 532.50Q388 570 359.50 592Q331 614 288 614Q245 614 216.50 592Q188 570 170.50 532.50Q153 495 146 446Q139 397 139 343Q139 290 146 241Q153 192 170.50 154.50Q188 117 216.50 95Q245 73 288 73Q331 73 359 95M476 97Q447 49 401 19.50Q355-10 288-10Q221-10 175 19.50Q129 49 100 97.50Q71 146 58 210Q45 274 45 343Q45 412 58 476Q71 540 100 589Q129 638 175 667.50Q221 697 288 697Q355 697 401 667.50Q447 638 476 589Q505 540 518 476Q531 412 531 343Q531 274 518 210Q505 146 476 97Z"  horiz-adv-x="576" vert-adv-y="1000"  />

      
      <glyph glyph-name="uniF801" unicode="&#xF801;" d="M324 0L233 0L233 593L55 527L29 604L239 687L324 687L324 0Z"  horiz-adv-x="425" vert-adv-y="1000"  />

      
      <glyph glyph-name="uniF802" unicode="&#xF802;" d="M473 0L50 0Q48 13 47 25.50Q46 38 46 49Q46 104 63.50 146.50Q81 189 109.50 222.50Q138 256 172.50 282.50Q207 309 242 333Q270 352 296 370.50Q322 389 341.50 409.50Q361 430 372.50 453Q384 476 384 504Q384 553 349.50 583.50Q315 614 259 614Q215 614 175 595Q135 576 98 542L51 609Q100 655 153 676Q206 697 261 697Q307 697 346.50 683.50Q386 670 415 644.50Q444 619 461 583.50Q478 548 478 503Q478 461 463.50 428Q449 395 425 368Q401 341 370.50 318.50Q340 296 309 274Q281 254 253.50 234Q226 214 203.50 191.50Q181 169 165 142Q149 115 143 82L473 82L473 0Z"  horiz-adv-x="532" vert-adv-y="1000"  />

      
      <glyph glyph-name="uniF803" unicode="&#xF803;" d="M66 145Q81 130 102 117Q123 104 147 94.50Q171 85 197.50 79Q224 73 250 73Q279 73 305.50 80.50Q332 88 352 103Q372 118 383.50 139.50Q395 161 395 190Q395 220 382 243Q369 266 347.50 282.50Q326 299 297 307.50Q268 316 236 316L178 316L178 397L225 397Q253 397 278.50 404Q304 411 323 425Q342 439 353 460Q364 481 364 508Q364 559 329.50 586.50Q295 614 247 614Q207 614 166.50 595.50Q126 577 88 542L41 609Q89 655 142 676Q195 697 249 697Q297 697 336 682Q375 667 402 641.50Q429 616 443.50 583Q458 550 458 514Q458 460 427.50 422Q397 384 344 360Q373 349 399 333Q425 317 445 295.50Q465 274 477 246.50Q489 219 489 185Q489 147 473 111.50Q457 76 426.50 49Q396 22 351.50 6Q307-10 250-10Q223-10 193-5.50Q163-1 133 9.50Q103 20 73.50 37Q44 54 19 78L66 145Z"  horiz-adv-x="530" vert-adv-y="1000"  />

      
      <glyph glyph-name="uniF804" unicode="&#xF804;" d="M442 0L355 0L355 159L35 159L30 207L355 687L442 687L442 237L523 237L523 159L442 159L442 0M355 237L355 553L142 237L355 237Z"  horiz-adv-x="568" vert-adv-y="1000"  />

      
      <glyph glyph-name="uniF805" unicode="&#xF805;" d="M78 144Q114 111 154.50 92Q195 73 246 73Q311 73 352.50 106.50Q394 140 394 208Q394 244 381.50 271Q369 298 348 315Q327 332 300 340.50Q273 349 243 349Q217 349 181.50 341.50Q146 334 109 313L70 342L83 687L442 687L442 605L169 605L161 407Q184 417 212 422.50Q240 428 267 428Q310 428 350 413Q390 398 421 370Q452 342 470 301.50Q488 261 488 210Q488 161 471 120.50Q454 80 423 51Q392 22 347.50 6Q303-10 249-10Q190-10 137 10.50Q84 31 34 78L78 144Z"  horiz-adv-x="519" vert-adv-y="1000"  />

      
      <glyph glyph-name="uniF806" unicode="&#xF806;" d="M436 570Q406 591 370 602.50Q334 614 303 614Q260 614 230 593Q200 572 181 537Q162 502 152.50 456Q143 410 141 361Q175 395 218 414.50Q261 434 310 434Q355 434 392.50 417.50Q430 401 457 371.50Q484 342 499 301.50Q514 261 514 214Q514 164 497 122.50Q480 81 450 51.50Q420 22 379 6Q338-10 290-10Q225-10 179.50 18.50Q134 47 105 94Q76 141 62.50 202.50Q49 264 49 330Q49 363 53 403Q57 443 67 484Q77 525 94.50 563Q112 601 140 631Q168 661 207 679Q246 697 299 697Q340 697 383 685Q426 673 470 644L436 570M208 332Q171 313 143 282Q151 183 190 128Q229 73 295 73Q323 73 346 83Q370 94 386 112.50Q402 131 411 157Q420 183 420 214Q420 276 386 313.50Q352 351 291 351Q246 351 208 332Z"  horiz-adv-x="550" vert-adv-y="1000"  />

      
      <glyph glyph-name="uniF807" unicode="&#xF807;" d="M142 0Q142 85 161 168.50Q180 252 210 329.50Q240 407 276 476.50Q312 546 345 605L14 605L14 687L452 687L457 629Q416 558 375.50 484Q335 410 303.50 332Q272 254 252.50 171Q233 88 233 0L142 0Z"  horiz-adv-x="473" vert-adv-y="1000"  />

      
      <glyph glyph-name="uniF808" unicode="&#xF808;" d="M476 425Q449 384 397 361Q424 350 447 333.50Q470 317 487.50 295.50Q505 274 515 246.50Q525 219 525 185Q525 141 507.50 105.50Q490 70 458.50 44Q427 18 384 4Q341-10 290-10Q239-10 196 4Q153 18 121.50 44Q90 70 72.50 105.50Q55 141 55 185Q55 219 65 246.50Q75 274 92.50 295.50Q110 317 133 333Q156 350 183 361Q131 384 103.50 425.50Q76 467 76 517Q76 553 91 585.50Q106 618 133.50 642.50Q161 667 200.50 682Q240 697 290 697Q339 697 379 682Q419 667 446.50 642.50Q474 618 489 585.50Q504 553 504 517Q504 467 476 425M395 105Q434 139 434 193Q434 248 395.50 284Q357 320 290 320Q223 320 184.50 284Q146 248 146 193Q146 139 184.50 105Q223 71 290 71Q357 71 395 105M379 430Q413 462 413 509Q413 528 406.50 547.50Q400 567 385 582Q370 597 346.50 606.50Q323 616 290 616Q256 616 232.50 606.50Q209 597 194.50 582Q180 567 173.50 547.50Q167 528 167 508Q167 462 200.50 430.50Q234 399 290 399Q346 399 379 430Z"  horiz-adv-x="580" vert-adv-y="1000"  />

      
      <glyph glyph-name="uniF809" unicode="&#xF809;" d="M83 128Q117 108 158 90.50Q199 73 245 73Q291 73 322.50 93.50Q354 114 374 149Q394 184 403 230Q412 276 414 328Q380 295 338 275Q296 255 247 255Q203 255 165.50 271Q128 287 100.50 316Q73 345 57 385Q41 425 41 473Q41 518 55.50 558.50Q70 599 98.50 629.50Q127 660 168.50 678.50Q210 697 264 697Q330 697 376 669Q422 641 451 593.50Q480 546 493 483.50Q506 421 506 352Q506 286 493.50 221Q481 156 451 105Q421 54 371 22Q321-10 247-10Q195-10 144.50 6.50Q94 23 50 54L83 128M345 357Q383 376 411 406Q406 465 391 505Q376 545 355.50 569Q335 593 310 603.50Q285 614 259 614Q229 614 206 603Q183 592 167.50 572.50Q152 553 143.50 527.50Q135 502 135 473Q135 408 171.50 373Q208 338 265 338Q308 338 345 357Z"  horiz-adv-x="550" vert-adv-y="1000"  />

      
      <glyph glyph-name="uniF832" unicode="&#xF832;" d="M313 88Q336 108 349 138Q362 168 367 205Q372 242 372 277Q372 312 367 349Q362 386 349 416.50Q336 447 313 466.50Q290 486 255 486Q220 486 197 466.50Q174 447 161 416.50Q148 386 143 349Q138 312 138 277Q138 242 143 205Q148 168 161 138Q174 108 197 88.50Q220 69 255 69Q290 69 313 88M414 77Q390 38 350.50 14Q311-10 255-10Q199-10 159.50 14Q120 38 95.50 77.50Q71 117 59.50 169Q48 221 48 277Q48 333 59.50 385Q71 437 95.50 477Q120 517 159.50 541Q199 565 255 565Q311 565 350.50 541Q390 517 414.50 477Q439 437 450.50 385Q462 333 462 277Q462 221 450.50 169Q439 117 414 77Z"  horiz-adv-x="510" vert-adv-y="1000"  />

      
      <glyph glyph-name="uniF833" unicode="&#xF833;" d="M342 0L253 0L253 462L107 410L82 486L265 555L342 555L342 0Z"  horiz-adv-x="510" vert-adv-y="1000"  />

      
      <glyph glyph-name="uniF834" unicode="&#xF834;" d="M423 0L68 0Q66 14 65 25.50Q64 37 64 46Q64 91 80.50 127Q97 163 122 192Q147 221 177.50 244Q208 267 237 287Q256 300 274 313.50Q292 327 306 341.50Q320 356 328.50 372.50Q337 389 337 409Q337 443 312 464.50Q287 486 247 486Q214 486 178 470Q142 454 111 426L66 491Q107 529 155 547Q203 565 249 565Q287 565 319.50 553.50Q352 542 376 521.50Q400 501 413.50 472.50Q427 444 427 409Q427 376 415 349Q403 322 383.50 300Q364 278 339.50 259.50Q315 241 290 224Q267 209 246 193Q225 177 207 160Q189 143 176.50 122.50Q164 102 158 78L423 78L423 0Z"  horiz-adv-x="510" vert-adv-y="1000"  />

      
      <glyph glyph-name="uniF835" unicode="&#xF835;" d="M85 128Q111 103 153.50 86Q196 69 237 69Q284 69 314.50 92Q345 115 345 155Q345 197 312.50 223Q280 249 231 249L162 249L162 327L223 327Q266 327 294 349.50Q322 372 322 410Q322 445 297.50 465.50Q273 486 236 486Q204 486 169 470.50Q134 455 101 426L56 491Q98 529 144 547Q190 565 236 565Q277 565 309.50 552.50Q342 540 365 519Q388 498 400 470.50Q412 443 412 414Q412 375 391 343Q370 311 335 291Q354 282 372.50 269Q391 256 404.50 238Q418 220 426.50 198Q435 176 435 150Q435 120 423 91Q411 62 386 39.50Q361 17 324 3.50Q287-10 237-10Q214-10 188.50-6.50Q163-3 137.50 5.50Q112 14 86.50 28.50Q61 43 39 64L85 128Z"  horiz-adv-x="510" vert-adv-y="1000"  />

      
      <glyph glyph-name="uniF836" unicode="&#xF836;" d="M393 0L309 0L309 122L44 122L39 168L314 555L393 555L393 197L462 197L462 122L393 122L393 0M309 197L309 424L147 197L309 197Z"  horiz-adv-x="510" vert-adv-y="1000"  />

      
      <glyph glyph-name="uniF837" unicode="&#xF837;" d="M97 129Q163 69 236 69Q284 69 315.50 95Q347 121 347 169Q347 195 337.50 214.50Q328 234 312 247Q296 260 275.50 266.50Q255 273 233 273Q213 273 183.50 266.50Q154 260 122 243L82 272L92 555L404 555L404 477L175 477L170 337Q190 344 211.50 346Q233 348 247 348Q287 348 321.50 335.50Q356 323 381.50 300Q407 277 422 244.50Q437 212 437 171Q437 132 423 98.50Q409 65 383 41Q357 17 320 3.50Q283-10 237-10Q187-10 141 7.50Q95 25 51 63L97 129Z"  horiz-adv-x="510" vert-adv-y="1000"  />

      
      <glyph glyph-name="uniF838" unicode="&#xF838;" d="M386 448Q359 466 327.50 476Q296 486 272 486Q241 486 218 470Q195 454 180 428Q165 402 156.50 368.50Q148 335 146 300Q172 324 206 337Q240 350 278 350Q316 350 348 336.50Q380 323 403.50 299Q427 275 440.50 242Q454 209 454 171Q454 131 439.50 97.50Q425 64 399 40Q373 16 338 3Q303-10 263-10Q210-10 171 12.50Q132 35 106.50 73Q81 111 68.50 161.50Q56 212 56 268Q56 322 68 375Q80 428 105.50 470.50Q131 513 171.50 539Q212 565 269 565Q303 565 342.50 554.50Q382 544 421 519L386 448M199 256Q169 241 148 212Q152 184 160.50 158Q169 132 183.50 112Q198 92 218 80Q238 68 265 68Q307 68 335.50 97.50Q364 127 364 172Q364 215 336.50 243Q309 271 262 271Q230 271 199 256Z"  horiz-adv-x="510" vert-adv-y="1000"  />

      
      <glyph glyph-name="uniF839" unicode="&#xF839;" d="M167 0Q167 66 182.50 132.50Q198 199 222 260.50Q246 322 275 377Q304 432 331 477L62 477L62 555L436 555L442 502Q409 448 376 388.50Q343 329 316 266Q289 203 272.50 136.50Q256 70 256 0L167 0Z"  horiz-adv-x="510" vert-adv-y="1000"  />

      
      <glyph glyph-name="uniF83A" unicode="&#xF83A;" d="M418 346Q399 313 362 293Q401 273 427.50 237.50Q454 202 454 152Q454 113 438 83Q422 53 394.50 32.50Q367 12 331 1Q295-10 255-10Q215-10 179 1Q143 12 115.50 32.50Q88 53 72 83Q56 113 56 152Q56 202 82 237Q109 273 148 293Q111 313 91.50 346Q72 379 72 417Q72 451 87 478.50Q102 506 127 525.50Q152 545 185.50 555Q219 565 255 565Q291 565 324.50 555Q358 545 383 525.50Q408 506 423 478.50Q438 451 438 417Q438 379 418 346M333 91Q349 103 358 120.50Q367 138 367 160Q367 182 358 199.50Q349 217 333.50 229Q318 241 297.50 247.50Q277 254 255 254Q232 254 212 247.50Q192 241 176.50 229Q161 217 152 199.50Q143 182 143 160Q143 138 152 120.50Q161 103 176.50 91Q192 79 212 73Q232 67 255 67Q277 67 297.50 73Q318 79 333 91M321 350Q335 361 343 376.50Q351 392 351 411Q351 448 323 468Q295 488 255 488Q215 488 187 468Q159 448 159 411Q159 392 167 376.50Q175 361 188.50 350.50Q202 340 219.50 334.50Q237 329 255 329Q273 329 290.50 334.50Q308 340 321 350Z"  horiz-adv-x="510" vert-adv-y="1000"  />

      
      <glyph glyph-name="uniF83B" unicode="&#xF83B;" d="M95 115Q124 98 160.50 83.50Q197 69 231 69Q265 69 288 85Q311 101 326 126.50Q341 152 349 185Q357 218 359 251Q335 231 301.50 218.50Q268 206 232 206Q196 206 164 219.50Q132 233 109 256.50Q86 280 72.50 312.50Q59 345 59 383Q59 418 71 451Q83 484 106 509.50Q129 535 163 550Q197 565 241 565Q298 565 337 540.50Q376 516 401 476Q426 436 437 385Q448 334 448 281Q448 225 436 173Q424 121 397.50 80Q371 39 329.50 14.50Q288-10 229-10Q188-10 145.50 3Q103 16 61 44L95 115M305 299Q336 313 356 341Q347 413 316 449.50Q285 486 242 486Q221 486 203.50 477.50Q186 469 174 454.50Q162 440 155.50 421.50Q149 403 149 383Q149 337 177.50 311Q206 285 246 285Q275 285 305 299Z"  horiz-adv-x="510" vert-adv-y="1000"  />

      
      <glyph glyph-name="uniF83C" unicode="&#xF83C;" d="M313 88Q336 108 349 138Q362 168 367 205Q372 242 372 277Q372 312 367 349Q362 386 349 416.50Q336 447 313 466.50Q290 486 255 486Q220 486 197 466.50Q174 447 161 416.50Q148 386 143 349Q138 312 138 277Q138 242 143 205Q148 168 161 138Q174 108 197 88.50Q220 69 255 69Q290 69 313 88M414 77Q390 38 350.50 14Q311-10 255-10Q199-10 159.50 14Q120 38 95.50 77.50Q71 117 59.50 169Q48 221 48 277Q48 333 59.50 385Q71 437 95.50 477Q120 517 159.50 541Q199 565 255 565Q311 565 350.50 541Q390 517 414.50 477Q439 437 450.50 385Q462 333 462 277Q462 221 450.50 169Q439 117 414 77Z"  horiz-adv-x="510" vert-adv-y="1000"  />

      
      <glyph glyph-name="uniF83D" unicode="&#xF83D;" d="M274 0L185 0L185 462L39 410L14 486L197 555L274 555L274 0Z"  horiz-adv-x="351" vert-adv-y="1000"  />

      
      <glyph glyph-name="uniF83E" unicode="&#xF83E;" d="M389 0L34 0Q32 14 31 25.50Q30 37 30 46Q30 91 46.50 127Q63 163 88 192Q113 221 143.50 244Q174 267 203 287Q222 300 240 313.50Q258 327 272 341.50Q286 356 294.50 372.50Q303 389 303 409Q303 443 278 464.50Q253 486 213 486Q180 486 144 470Q108 454 77 426L32 491Q73 529 121 547Q169 565 215 565Q253 565 285.50 553.50Q318 542 342 521.50Q366 501 379.50 472.50Q393 444 393 409Q393 376 381 349Q369 322 349.50 300Q330 278 305.50 259.50Q281 241 256 224Q233 209 212 193Q191 177 173 160Q155 143 142.50 122.50Q130 102 124 78L389 78L389 0Z"  horiz-adv-x="431" vert-adv-y="1000"  />

      
      <glyph glyph-name="uniF83F" unicode="&#xF83F;" d="M65 128Q91 103 133.50 86Q176 69 217 69Q264 69 294.50 92Q325 115 325 155Q325 197 292.50 223Q260 249 211 249L142 249L142 327L203 327Q246 327 274 349.50Q302 372 302 410Q302 445 277.50 465.50Q253 486 216 486Q184 486 149 470.50Q114 455 81 426L36 491Q78 529 124 547Q170 565 216 565Q257 565 289.50 552.50Q322 540 345 519Q368 498 380 470.50Q392 443 392 414Q392 375 371 343Q350 311 315 291Q334 282 352.50 269Q371 256 384.50 238Q398 220 406.50 198Q415 176 415 150Q415 120 403 91Q391 62 366 39.50Q341 17 304 3.50Q267-10 217-10Q194-10 168.50-6.50Q143-3 117.50 5.50Q92 14 66.50 28.50Q41 43 19 64L65 128Z"  horiz-adv-x="455" vert-adv-y="1000"  />

      
      <glyph glyph-name="uniF840" unicode="&#xF840;" d="M378 0L294 0L294 122L29 122L24 168L299 555L378 555L378 197L447 197L447 122L378 122L378 0M294 197L294 424L132 197L294 197Z"  horiz-adv-x="478" vert-adv-y="1000"  />

      
      <glyph glyph-name="uniF841" unicode="&#xF841;" d="M85 129Q151 69 224 69Q272 69 303.50 95Q335 121 335 169Q335 195 325.50 214.50Q316 234 300 247Q284 260 263.50 266.50Q243 273 221 273Q201 273 171.50 266.50Q142 260 110 243L70 272L80 555L392 555L392 477L163 477L158 337Q178 344 199.50 346Q221 348 235 348Q275 348 309.50 335.50Q344 323 369.50 300Q395 277 410 244.50Q425 212 425 171Q425 132 411 98.50Q397 65 371 41Q345 17 308 3.50Q271-10 225-10Q175-10 129 7.50Q83 25 39 63L85 129Z"  horiz-adv-x="461" vert-adv-y="1000"  />

      
      <glyph glyph-name="uniF842" unicode="&#xF842;" d="M382 448Q355 466 323.50 476Q292 486 268 486Q237 486 214 470Q191 454 176 428Q161 402 152.50 368.50Q144 335 142 300Q168 324 202 337Q236 350 274 350Q312 350 344 336.50Q376 323 399.50 299Q423 275 436.50 242Q450 209 450 171Q450 131 435.50 97.50Q421 64 395 40Q369 16 334 3Q299-10 259-10Q206-10 167 12.50Q128 35 102.50 73Q77 111 64.50 161.50Q52 212 52 268Q52 322 64 375Q76 428 101.50 470.50Q127 513 167.50 539Q208 565 265 565Q299 565 338.50 554.50Q378 544 417 519L382 448M195 256Q165 241 144 212Q148 184 156.50 158Q165 132 179.50 112Q194 92 214 80Q234 68 261 68Q303 68 331.50 97.50Q360 127 360 172Q360 215 332.50 243Q305 271 258 271Q226 271 195 256Z"  horiz-adv-x="479" vert-adv-y="1000"  />

      
      <glyph glyph-name="uniF843" unicode="&#xF843;" d="M119 0Q119 66 134.50 132.50Q150 199 174 260.50Q198 322 227 377Q256 432 283 477L14 477L14 555L388 555L394 502Q361 448 328 388.50Q295 329 268 266Q241 203 224.50 136.50Q208 70 208 0L119 0Z"  horiz-adv-x="405" vert-adv-y="1000"  />

      
      <glyph glyph-name="uniF844" unicode="&#xF844;" d="M412 346Q393 313 356 293Q395 273 421.50 237.50Q448 202 448 152Q448 113 432 83Q416 53 388.50 32.50Q361 12 325 1Q289-10 249-10Q209-10 173 1Q137 12 109.50 32.50Q82 53 66 83Q50 113 50 152Q50 202 76 237Q103 273 142 293Q105 313 85.50 346Q66 379 66 417Q66 451 81 478.50Q96 506 121 525.50Q146 545 179.50 555Q213 565 249 565Q285 565 318.50 555Q352 545 377 525.50Q402 506 417 478.50Q432 451 432 417Q432 379 412 346M327 91Q343 103 352 120.50Q361 138 361 160Q361 182 352 199.50Q343 217 327.50 229Q312 241 291.50 247.50Q271 254 249 254Q226 254 206 247.50Q186 241 170.50 229Q155 217 146 199.50Q137 182 137 160Q137 138 146 120.50Q155 103 170.50 91Q186 79 206 73Q226 67 249 67Q271 67 291.50 73Q312 79 327 91M315 350Q329 361 337 376.50Q345 392 345 411Q345 448 317 468Q289 488 249 488Q209 488 181 468Q153 448 153 411Q153 392 161 376.50Q169 361 182.50 350.50Q196 340 213.50 334.50Q231 329 249 329Q267 329 284.50 334.50Q302 340 315 350Z"  horiz-adv-x="490" vert-adv-y="1000"  />

      
      <glyph glyph-name="uniF845" unicode="&#xF845;" d="M73 115Q102 98 138.50 83.50Q175 69 209 69Q243 69 266 85Q289 101 304 126.50Q319 152 327 185Q335 218 337 251Q313 231 279.50 218.50Q246 206 210 206Q174 206 142 219.50Q110 233 87 256.50Q64 280 50.50 312.50Q37 345 37 383Q37 418 49 451Q61 484 84 509.50Q107 535 141 550Q175 565 219 565Q276 565 315 540.50Q354 516 379 476Q404 436 415 385Q426 334 426 281Q426 225 414 173Q402 121 375.50 80Q349 39 307.50 14.50Q266-10 207-10Q166-10 123.50 3Q81 16 39 44L73 115M283 299Q314 313 334 341Q325 413 294 449.50Q263 486 220 486Q199 486 181.50 477.50Q164 469 152 454.50Q140 440 133.50 421.50Q127 403 127 383Q127 337 155.50 311Q184 285 224 285Q253 285 283 299Z"  horiz-adv-x="470" vert-adv-y="1000"  />

      
      <glyph glyph-name="uni2080" unicode="&#x2080;" d="M200 63Q238 63 259 98.50Q280 134 280 197Q280 261 259 296Q238 331 200 331Q162 331 141 296Q120 261 120 197Q120 134 141 98.50Q162 63 200 63M317 45Q275-10 200-10Q125-10 82.50 45.50Q40 101 40 197Q40 293 82.50 348.50Q125 404 200 404Q275 404 317.50 348.50Q360 293 360 197Q360 101 317 45Z"  horiz-adv-x="400" vert-adv-y="1000"  />

      
      <glyph glyph-name="uni2081" unicode="&#x2081;" d="M276 0L198 0L198 315L96 279L71 341L216 394L276 394L276 0Z"  horiz-adv-x="400" vert-adv-y="1000"  />

      
      <glyph glyph-name="uni2082" unicode="&#x2082;" d="M335 0L63 0Q61 10 61 26Q61 62 73.50 89.50Q86 117 105 139Q124 161 146 177Q168 193 188 207Q215 226 234 244.50Q253 263 253 286Q253 307 237 319Q221 331 195 331Q169 331 143.50 320Q118 309 99 292L58 349Q86 375 124 389.50Q162 404 200 404Q228 404 252 396Q276 388 294 373Q312 358 322 336.50Q332 315 332 289Q332 265 323.50 245.50Q315 226 300.50 210.50Q286 195 268 181.50Q250 168 232 156Q204 137 181 116Q158 95 147 69L335 69L335 0Z"  horiz-adv-x="400" vert-adv-y="1000"  />

      
      <glyph glyph-name="uni2083" unicode="&#x2083;" d="M79 102Q102 82 128.50 72.50Q155 63 181 63Q211 63 235.50 76Q260 89 260 118Q260 143 242 155Q224 167 196 167L142 167L142 234L184 234Q209 234 227 246Q245 258 245 283Q245 307 228 319Q211 331 186 331Q139 331 91 292L50 349Q78 374 115.50 389Q153 404 193 404Q218 404 242 397Q266 390 284 376.50Q302 363 313 343Q324 323 324 298Q324 266 307 243.50Q290 221 261 203Q298 190 318.50 164.50Q339 139 339 104Q339 75 326 54Q313 33 291 18.50Q269 4 241.50-3Q214-10 186-10Q147-10 109.50 3Q72 16 38 45L79 102Z"  horiz-adv-x="400" vert-adv-y="1000"  />

      
      <glyph glyph-name="uni2084" unicode="&#x2084;" d="M315 0L242 0L242 81L46 81L40 130L216 394L315 394L315 146L371 146L371 81L315 81L315 0M242 146L242 315L128 146L242 146Z"  horiz-adv-x="400" vert-adv-y="1000"  />

      
      <glyph glyph-name="uni2085" unicode="&#x2085;" d="M318 325L154 325L151 251Q164 254 175.50 255Q187 256 196 256Q227 256 253.50 247Q280 238 299.50 221.50Q319 205 330.50 180.50Q342 156 342 126Q342 94 329.50 69Q317 44 296 26.50Q275 9 246.50-0.50Q218-10 186-10Q141-10 103.50 6Q66 22 39 45L80 102Q126 63 183 63Q218 63 240.50 78Q263 93 263 126Q263 161 239 179Q215 197 180 197Q158 197 139 191Q120 185 107 176L78 197L85 394L318 394L318 325Z"  horiz-adv-x="400" vert-adv-y="1000"  />

      
      <glyph glyph-name="uni2086" unicode="&#x2086;" d="M301 314Q281 324 260.50 329.50Q240 335 219 335Q194 335 176.50 326.50Q159 318 147.50 303Q136 288 130 267.50Q124 247 123 224Q143 241 169.50 250.50Q196 260 225 260Q253 260 277.50 250Q302 240 319.50 222Q337 204 347 179Q357 154 357 125Q357 92 345 67Q333 42 312.50 25Q292 8 265.50-1Q239-10 209-10Q168-10 137.50 6Q107 22 87 50Q67 78 57 115.50Q47 153 47 196Q47 240 57.50 278Q68 316 89 344Q110 372 142.50 388Q175 404 219 404Q245 404 272.50 397.50Q300 391 326 374L301 314M163 190Q143 184 123 170Q126 124 146.50 91.50Q167 59 211 59Q242 59 262 76Q282 93 282 125Q282 159 260 178Q238 197 204 197Q184 197 163 190Z"  horiz-adv-x="400" vert-adv-y="1000"  />

      
      <glyph glyph-name="uni2087" unicode="&#x2087;" d="M135 0Q135 37 145 80Q155 123 170.50 166Q186 209 205 250Q224 291 242 325L72 325L72 394L344 394L348 354Q325 318 301.50 273.50Q278 229 258 182.50Q238 136 225.50 89Q213 42 213 0L135 0Z"  horiz-adv-x="400" vert-adv-y="1000"  />

      
      <glyph glyph-name="uni2088" unicode="&#x2088;" d="M321 240Q306 217 280 206Q311 192 332 167.50Q353 143 353 107Q353 77 340 55Q327 33 306 18.50Q285 4 257.50-3Q230-10 200-10Q170-10 142.50-3Q115 4 94 18.50Q73 33 60 55Q47 77 47 107Q47 143 68 167Q89 192 120 206Q94 217 78.50 240Q63 263 63 293Q63 320 73.50 341Q84 362 103 376Q122 390 146.50 397Q171 404 200 404Q228 404 253 397Q278 390 297 376Q316 362 326.50 341Q337 320 337 293Q337 263 321 240M252 74Q275 88 275 117Q275 146 252 161Q229 176 200 176Q171 176 148 161Q125 146 125 117Q125 88 148 74.50Q171 61 200 61Q229 61 252 74M244 247Q263 260 263 286Q263 311 244.50 324Q226 337 200 337Q174 337 155.50 324Q137 311 137 286Q137 260 155.50 247Q174 234 200 234Q226 234 244 247Z"  horiz-adv-x="400" vert-adv-y="1000"  />

      
      <glyph glyph-name="uni2089" unicode="&#x2089;" d="M81 84Q102 71 129 65Q156 59 177 59Q204 59 221.50 69Q239 79 249.50 94Q260 109 265 127.50Q270 146 272 163Q254 149 227.50 141.50Q201 134 176 134Q150 134 126 143Q102 152 83.50 169Q65 186 54 211Q43 236 43 268Q43 301 54.50 326Q66 351 86 368.50Q106 386 132.50 395Q159 404 188 404Q228 404 258 387.50Q288 371 308 343Q328 315 338 277.50Q348 240 348 197Q348 152 337 114.50Q326 77 304.50 49Q283 21 250.50 5.50Q218-10 175-10Q146-10 113-2.50Q80 5 54 22L81 84M272 219Q267 274 246 304.50Q225 335 187 335Q154 335 136 316Q118 297 118 268Q118 237 138.50 217Q159 197 199 197Q213 197 232 201Q251 205 272 219Z"  horiz-adv-x="400" vert-adv-y="1000"  />

      
      <glyph glyph-name="uni2070" unicode="&#x2070;" d="M200 356Q238 356 259 391.50Q280 427 280 490Q280 554 259 589Q238 624 200 624Q162 624 141 589Q120 554 120 490Q120 427 141 391.50Q162 356 200 356M317 338Q275 283 200 283Q125 283 82.50 338.50Q40 394 40 490Q40 586 82.50 641.50Q125 697 200 697Q275 697 317.50 641.50Q360 586 360 490Q360 394 317 338Z"  horiz-adv-x="400" vert-adv-y="1000"  />

      
      <glyph glyph-name="unib9" unicode="&#xb9;" d="M276 293L198 293L198 608L96 572L71 634L216 687L276 687L276 293Z"  horiz-adv-x="400" vert-adv-y="1000"  />

      
      <glyph glyph-name="unib2" unicode="&#xb2;" d="M335 293L63 293Q61 303 61 319Q61 355 73.50 382.50Q86 410 105 432Q124 454 146 470Q168 486 188 500Q215 519 234 537.50Q253 556 253 579Q253 600 237 612Q221 624 195 624Q169 624 143.50 613Q118 602 99 585L58 642Q86 668 124 682.50Q162 697 200 697Q228 697 252 689Q276 681 294 666Q312 651 322 629.50Q332 608 332 582Q332 558 323.50 538.50Q315 519 300.50 503.50Q286 488 268 474.50Q250 461 232 449Q204 430 181 409Q158 388 147 362L335 362L335 293Z"  horiz-adv-x="400" vert-adv-y="1000"  />

      
      <glyph glyph-name="unib3" unicode="&#xb3;" d="M79 395Q102 375 128.50 365.50Q155 356 181 356Q211 356 235.50 369Q260 382 260 411Q260 436 242 448Q224 460 196 460L142 460L142 527L184 527Q209 527 227 539Q245 551 245 576Q245 600 228 612Q211 624 186 624Q139 624 91 585L50 642Q78 667 115.50 682Q153 697 193 697Q218 697 242 690Q266 683 284 669.50Q302 656 313 636Q324 616 324 591Q324 559 307 536.50Q290 514 261 496Q298 483 318.50 457.50Q339 432 339 397Q339 368 326 347Q313 326 291 311.50Q269 297 241.50 290Q214 283 186 283Q147 283 109.50 296Q72 309 38 338L79 395Z"  horiz-adv-x="400" vert-adv-y="1000"  />

      
      <glyph glyph-name="uni2074" unicode="&#x2074;" d="M315 293L242 293L242 374L46 374L40 423L216 687L315 687L315 439L371 439L371 374L315 374L315 293M242 439L242 608L128 439L242 439Z"  horiz-adv-x="400" vert-adv-y="1000"  />

      
      <glyph glyph-name="uni2075" unicode="&#x2075;" d="M318 618L154 618L151 544Q164 547 175.50 548Q187 549 196 549Q227 549 253.50 540Q280 531 299.50 514.50Q319 498 330.50 473.50Q342 449 342 419Q342 387 329.50 362Q317 337 296 319.50Q275 302 246.50 292.50Q218 283 186 283Q141 283 103.50 299Q66 315 39 338L80 395Q126 356 183 356Q218 356 240.50 371Q263 386 263 419Q263 454 239 472Q215 490 180 490Q158 490 139 484Q120 478 107 469L78 490L85 687L318 687L318 618Z"  horiz-adv-x="400" vert-adv-y="1000"  />

      
      <glyph glyph-name="uni2076" unicode="&#x2076;" d="M301 607Q281 617 260.50 622.50Q240 628 219 628Q194 628 176.50 619.50Q159 611 147.50 596Q136 581 130 560.50Q124 540 123 517Q143 534 169.50 543.50Q196 553 225 553Q253 553 277.50 543Q302 533 319.50 515Q337 497 347 472Q357 447 357 418Q357 385 345 360Q333 335 312.50 318Q292 301 265.50 292Q239 283 209 283Q168 283 137.50 299Q107 315 87 343Q67 371 57 408.50Q47 446 47 489Q47 533 57.50 571Q68 609 89 637Q110 665 142.50 681Q175 697 219 697Q245 697 272.50 690.50Q300 684 326 667L301 607M163 483Q143 477 123 463Q126 417 146.50 384.50Q167 352 211 352Q242 352 262 369Q282 386 282 418Q282 452 260 471Q238 490 204 490Q184 490 163 483Z"  horiz-adv-x="400" vert-adv-y="1000"  />

      
      <glyph glyph-name="uni2077" unicode="&#x2077;" d="M135 293Q135 330 145 373Q155 416 170.50 459Q186 502 205 543Q224 584 242 618L72 618L72 687L344 687L348 647Q325 611 301.50 566.50Q278 522 258 475.50Q238 429 225.50 382Q213 335 213 293L135 293Z"  horiz-adv-x="400" vert-adv-y="1000"  />

      
      <glyph glyph-name="uni2078" unicode="&#x2078;" d="M321 533Q306 510 280 499Q311 485 332 460.50Q353 436 353 400Q353 370 340 348Q327 326 306 311.50Q285 297 257.50 290Q230 283 200 283Q170 283 142.50 290Q115 297 94 311.50Q73 326 60 348Q47 370 47 400Q47 436 68 460Q89 485 120 499Q94 510 78.50 533Q63 556 63 586Q63 613 73.50 634Q84 655 103 669Q122 683 146.50 690Q171 697 200 697Q228 697 253 690Q278 683 297 669Q316 655 326.50 634Q337 613 337 586Q337 556 321 533M252 367Q275 381 275 410Q275 439 252 454Q229 469 200 469Q171 469 148 454Q125 439 125 410Q125 381 148 367.50Q171 354 200 354Q229 354 252 367M244 540Q263 553 263 579Q263 604 244.50 617Q226 630 200 630Q174 630 155.50 617Q137 604 137 579Q137 553 155.50 540Q174 527 200 527Q226 527 244 540Z"  horiz-adv-x="400" vert-adv-y="1000"  />

      
      <glyph glyph-name="uni2079" unicode="&#x2079;" d="M81 377Q102 364 129 358Q156 352 177 352Q204 352 221.50 362Q239 372 249.50 387Q260 402 265 420.50Q270 439 272 456Q254 442 227.50 434.50Q201 427 176 427Q150 427 126 436Q102 445 83.50 462Q65 479 54 504Q43 529 43 561Q43 594 54.50 619Q66 644 86 661.50Q106 679 132.50 688Q159 697 188 697Q228 697 258 680.50Q288 664 308 636Q328 608 338 570.50Q348 533 348 490Q348 445 337 407.50Q326 370 304.50 342Q283 314 250.50 298.50Q218 283 175 283Q146 283 113 290.50Q80 298 54 315L81 377M272 512Q267 567 246 597.50Q225 628 187 628Q154 628 136 609Q118 590 118 561Q118 530 138.50 510Q159 490 199 490Q213 490 232 494Q251 498 272 512Z"  horiz-adv-x="400" vert-adv-y="1000"  />

      
      <glyph glyph-name="uni2044" unicode="&#x2044;" d="M-74 0L-158 0L181 687L265 687L-74 0Z"  horiz-adv-x="107" vert-adv-y="1000"  />

      
      <glyph glyph-name="uni25" unicode="&#x25;" d="M324 0L240 0L579 687L663 687L324 0M703 63Q741 63 762 98.50Q783 134 783 197Q783 261 762 296Q741 331 703 331Q665 331 644 296Q623 261 623 197Q623 134 644 98.50Q665 63 703 63M820 45Q778-10 703-10Q628-10 585.50 45.50Q543 101 543 197Q543 293 585.50 348.50Q628 404 703 404Q778 404 820.50 348.50Q863 293 863 197Q863 101 820 45M200 356Q238 356 259 391.50Q280 427 280 490Q280 554 259 589Q238 624 200 624Q162 624 141 589Q120 554 120 490Q120 427 141 391.50Q162 356 200 356M317 338Q275 283 200 283Q125 283 82.50 338.50Q40 394 40 490Q40 586 82.50 641.50Q125 697 200 697Q275 697 317.50 641.50Q360 586 360 490Q360 394 317 338Z"  horiz-adv-x="903" vert-adv-y="1000"  />

      
      <glyph glyph-name="uni2030" unicode="&#x2030;" d="M324 0L240 0L579 687L663 687L324 0M703 63Q741 63 762 98.50Q783 134 783 197Q783 261 762 296Q741 331 703 331Q665 331 644 296Q623 261 623 197Q623 134 644 98.50Q665 63 703 63M820 45Q778-10 703-10Q628-10 585.50 45.50Q543 101 543 197Q543 293 585.50 348.50Q628 404 703 404Q778 404 820.50 348.50Q863 293 863 197Q863 101 820 45M1106 63Q1144 63 1165 98.50Q1186 134 1186 197Q1186 261 1165 296Q1144 331 1106 331Q1068 331 1047 296Q1026 261 1026 197Q1026 134 1047 98.50Q1068 63 1106 63M1223 45Q1181-10 1106-10Q1031-10 988.50 45.50Q946 101 946 197Q946 293 988.50 348.50Q1031 404 1106 404Q1181 404 1223.50 348.50Q1266 293 1266 197Q1266 101 1223 45M200 356Q238 356 259 391.50Q280 427 280 490Q280 554 259 589Q238 624 200 624Q162 624 141 589Q120 554 120 490Q120 427 141 391.50Q162 356 200 356M317 338Q275 283 200 283Q125 283 82.50 338.50Q40 394 40 490Q40 586 82.50 641.50Q125 697 200 697Q275 697 317.50 641.50Q360 586 360 490Q360 394 317 338Z"  horiz-adv-x="1306" vert-adv-y="1000"  />

      
      <glyph glyph-name="unibd" unicode="&#xbd;" d="M281 0L197 0L536 687L620 687L281 0M815 0L543 0Q541 10 541 26Q541 62 553.50 89.50Q566 117 585 139Q604 161 626 177Q648 193 668 207Q695 226 714 244.50Q733 263 733 286Q733 307 717 319Q701 331 675 331Q649 331 623.50 320Q598 309 579 292L538 349Q566 375 604 389.50Q642 404 680 404Q708 404 732 396Q756 388 774 373Q792 358 802 336.50Q812 315 812 289Q812 265 803.50 245.50Q795 226 780.50 210.50Q766 195 748 181.50Q730 168 712 156Q684 137 661 116Q638 95 627 69L815 69L815 0M259 293L181 293L181 608L79 572L54 634L199 687L259 687L259 293Z"  horiz-adv-x="903" vert-adv-y="1000"  />

      
      <glyph glyph-name="uni2153" unicode="&#x2153;" d="M285 0L201 0L540 687L624 687L285 0M564 102Q587 82 613.50 72.50Q640 63 666 63Q696 63 720.50 76Q745 89 745 118Q745 143 727 155Q709 167 681 167L627 167L627 234L669 234Q694 234 712 246Q730 258 730 283Q730 307 713 319Q696 331 671 331Q624 331 576 292L535 349Q563 374 600.50 389Q638 404 678 404Q703 404 727 397Q751 390 769 376.50Q787 363 798 343Q809 323 809 298Q809 266 792 243.50Q775 221 746 203Q783 190 803.50 164.50Q824 139 824 104Q824 75 811 54Q798 33 776 18.50Q754 4 726.50-3Q699-10 671-10Q632-10 594.50 3Q557 16 523 45L564 102M263 293L185 293L185 608L83 572L58 634L203 687L263 687L263 293Z"  horiz-adv-x="903" vert-adv-y="1000"  />

      
      <glyph glyph-name="uni2154" unicode="&#x2154;" d="M322 0L238 0L577 687L661 687L322 0M601 102Q624 82 650.50 72.50Q677 63 703 63Q733 63 757.50 76Q782 89 782 118Q782 143 764 155Q746 167 718 167L664 167L664 234L706 234Q731 234 749 246Q767 258 767 283Q767 307 750 319Q733 331 708 331Q661 331 613 292L572 349Q600 374 637.50 389Q675 404 715 404Q740 404 764 397Q788 390 806 376.50Q824 363 835 343Q846 323 846 298Q846 266 829 243.50Q812 221 783 203Q820 190 840.50 164.50Q861 139 861 104Q861 75 848 54Q835 33 813 18.50Q791 4 763.50-3Q736-10 708-10Q669-10 631.50 3Q594 16 560 45L601 102M322 293L50 293Q48 303 48 319Q48 355 60.50 382.50Q73 410 92 432Q111 454 133 470Q155 486 175 500Q202 519 221 537.50Q240 556 240 579Q240 600 224 612Q208 624 182 624Q156 624 130.50 613Q105 602 86 585L45 642Q73 668 111 682.50Q149 697 187 697Q215 697 239 689Q263 681 281 666Q299 651 309 629.50Q319 608 319 582Q319 558 310.50 538.50Q302 519 287.50 503.50Q273 488 255 474.50Q237 461 219 449Q191 430 168 409Q145 388 134 362L322 362L322 293Z"  horiz-adv-x="903" vert-adv-y="1000"  />

      
      <glyph glyph-name="unibc" unicode="&#xbc;" d="M302 0L218 0L557 687L641 687L302 0M753 0L680 0L680 81L484 81L478 130L654 394L753 394L753 146L809 146L809 81L753 81L753 0M680 146L680 315L566 146L680 146M276 293L198 293L198 608L96 572L71 634L216 687L276 687L276 293Z"  horiz-adv-x="903" vert-adv-y="1000"  />

      
      <glyph glyph-name="unibe" unicode="&#xbe;" d="M345 0L261 0L600 687L684 687L345 0M796 0L723 0L723 81L527 81L521 130L697 394L796 394L796 146L852 146L852 81L796 81L796 0M723 146L723 315L609 146L723 146M92 395Q115 375 141.50 365.50Q168 356 194 356Q224 356 248.50 369Q273 382 273 411Q273 436 255 448Q237 460 209 460L155 460L155 527L197 527Q222 527 240 539Q258 551 258 576Q258 600 241 612Q224 624 199 624Q152 624 104 585L63 642Q91 667 128.50 682Q166 697 206 697Q231 697 255 690Q279 683 297 669.50Q315 656 326 636Q337 616 337 591Q337 559 320 536.50Q303 514 274 496Q311 483 331.50 457.50Q352 432 352 397Q352 368 339 347Q326 326 304 311.50Q282 297 254.50 290Q227 283 199 283Q160 283 122.50 296Q85 309 51 338L92 395Z"  horiz-adv-x="903" vert-adv-y="1000"  />

      
      <glyph glyph-name="uni2155" unicode="&#x2155;" d="M281 0L197 0L536 687L620 687L281 0M796 325L632 325L629 251Q642 254 653.50 255Q665 256 674 256Q705 256 731.50 247Q758 238 777.50 221.50Q797 205 808.50 180.50Q820 156 820 126Q820 94 807.50 69Q795 44 774 26.50Q753 9 724.50-0.50Q696-10 664-10Q619-10 581.50 6Q544 22 517 45L558 102Q604 63 661 63Q696 63 718.50 78Q741 93 741 126Q741 161 717 179Q693 197 658 197Q636 197 617 191Q598 185 585 176L556 197L563 394L796 394L796 325M259 293L181 293L181 608L79 572L54 634L199 687L259 687L259 293Z"  horiz-adv-x="903" vert-adv-y="1000"  />

      
      <glyph glyph-name="uni2156" unicode="&#x2156;" d="M322 0L238 0L577 687L661 687L322 0M837 325L673 325L670 251Q683 254 694.50 255Q706 256 715 256Q746 256 772.50 247Q799 238 818.50 221.50Q838 205 849.50 180.50Q861 156 861 126Q861 94 848.50 69Q836 44 815 26.50Q794 9 765.50-0.50Q737-10 705-10Q660-10 622.50 6Q585 22 558 45L599 102Q645 63 702 63Q737 63 759.50 78Q782 93 782 126Q782 161 758 179Q734 197 699 197Q677 197 658 191Q639 185 626 176L597 197L604 394L837 394L837 325M322 293L50 293Q48 303 48 319Q48 355 60.50 382.50Q73 410 92 432Q111 454 133 470Q155 486 175 500Q202 519 221 537.50Q240 556 240 579Q240 600 224 612Q208 624 182 624Q156 624 130.50 613Q105 602 86 585L45 642Q73 668 111 682.50Q149 697 187 697Q215 697 239 689Q263 681 281 666Q299 651 309 629.50Q319 608 319 582Q319 558 310.50 538.50Q302 519 287.50 503.50Q273 488 255 474.50Q237 461 219 449Q191 430 168 409Q145 388 134 362L322 362L322 293Z"  horiz-adv-x="903" vert-adv-y="1000"  />

      
      <glyph glyph-name="uni2157" unicode="&#x2157;" d="M329 0L245 0L584 687L668 687L329 0M844 325L680 325L677 251Q690 254 701.50 255Q713 256 722 256Q753 256 779.50 247Q806 238 825.50 221.50Q845 205 856.50 180.50Q868 156 868 126Q868 94 855.50 69Q843 44 822 26.50Q801 9 772.50-0.50Q744-10 712-10Q667-10 629.50 6Q592 22 565 45L606 102Q652 63 709 63Q744 63 766.50 78Q789 93 789 126Q789 161 765 179Q741 197 706 197Q684 197 665 191Q646 185 633 176L604 197L611 394L844 394L844 325M79 395Q102 375 128.50 365.50Q155 356 181 356Q211 356 235.50 369Q260 382 260 411Q260 436 242 448Q224 460 196 460L142 460L142 527L184 527Q209 527 227 539Q245 551 245 576Q245 600 228 612Q211 624 186 624Q139 624 91 585L50 642Q78 667 115.50 682Q153 697 193 697Q218 697 242 690Q266 683 284 669.50Q302 656 313 636Q324 616 324 591Q324 559 307 536.50Q290 514 261 496Q298 483 318.50 457.50Q339 432 339 397Q339 368 326 347Q313 326 291 311.50Q269 297 241.50 290Q214 283 186 283Q147 283 109.50 296Q72 309 38 338L79 395Z"  horiz-adv-x="903" vert-adv-y="1000"  />

      
      <glyph glyph-name="uni2158" unicode="&#x2158;" d="M346 0L262 0L601 687L685 687L346 0M861 325L697 325L694 251Q707 254 718.50 255Q730 256 739 256Q770 256 796.50 247Q823 238 842.50 221.50Q862 205 873.50 180.50Q885 156 885 126Q885 94 872.50 69Q860 44 839 26.50Q818 9 789.50-0.50Q761-10 729-10Q684-10 646.50 6Q609 22 582 45L623 102Q669 63 726 63Q761 63 783.50 78Q806 93 806 126Q806 161 782 179Q758 197 723 197Q701 197 682 191Q663 185 650 176L621 197L628 394L861 394L861 325M297 293L224 293L224 374L28 374L22 423L198 687L297 687L297 439L353 439L353 374L297 374L297 293M224 439L224 608L110 439L224 439Z"  horiz-adv-x="903" vert-adv-y="1000"  />

      
      <glyph glyph-name="uni2159" unicode="&#x2159;" d="M286 0L202 0L541 687L625 687L286 0M762 314Q742 324 721.50 329.50Q701 335 680 335Q655 335 637.50 326.50Q620 318 608.50 303Q597 288 591 267.50Q585 247 584 224Q604 241 630.50 250.50Q657 260 686 260Q714 260 738.50 250Q763 240 780.50 222Q798 204 808 179Q818 154 818 125Q818 92 806 67Q794 42 773.50 25Q753 8 726.50-1Q700-10 670-10Q629-10 598.50 6Q568 22 548 50Q528 78 518 115.50Q508 153 508 196Q508 240 518.50 278Q529 316 550 344Q571 372 603.50 388Q636 404 680 404Q706 404 733.50 397.50Q761 391 787 374L762 314M624 190Q604 184 584 170Q587 124 607.50 91.50Q628 59 672 59Q703 59 723 76Q743 93 743 125Q743 159 721 178Q699 197 665 197Q645 197 624 190M264 293L186 293L186 608L84 572L59 634L204 687L264 687L264 293Z"  horiz-adv-x="903" vert-adv-y="1000"  />

      
      <glyph glyph-name="uni215A" unicode="&#x215A;" d="M329 0L245 0L584 687L668 687L329 0M805 314Q785 324 764.50 329.50Q744 335 723 335Q698 335 680.50 326.50Q663 318 651.50 303Q640 288 634 267.50Q628 247 627 224Q647 241 673.50 250.50Q700 260 729 260Q757 260 781.50 250Q806 240 823.50 222Q841 204 851 179Q861 154 861 125Q861 92 849 67Q837 42 816.50 25Q796 8 769.50-1Q743-10 713-10Q672-10 641.50 6Q611 22 591 50Q571 78 561 115.50Q551 153 551 196Q551 240 561.50 278Q572 316 593 344Q614 372 646.50 388Q679 404 723 404Q749 404 776.50 397.50Q804 391 830 374L805 314M667 190Q647 184 627 170Q630 124 650.50 91.50Q671 59 715 59Q746 59 766 76Q786 93 786 125Q786 159 764 178Q742 197 708 197Q688 197 667 190M320 618L156 618L153 544Q166 547 177.50 548Q189 549 198 549Q229 549 255.50 540Q282 531 301.50 514.50Q321 498 332.50 473.50Q344 449 344 419Q344 387 331.50 362Q319 337 298 319.50Q277 302 248.50 292.50Q220 283 188 283Q143 283 105.50 299Q68 315 41 338L82 395Q128 356 185 356Q220 356 242.50 371Q265 386 265 419Q265 454 241 472Q217 490 182 490Q160 490 141 484Q122 478 109 469L80 490L87 687L320 687L320 618Z"  horiz-adv-x="903" vert-adv-y="1000"  />

      
      <glyph glyph-name="uni2150" unicode="&#x2150;" d="M269 0L185 0L524 687L608 687L269 0M611 0Q611 37 621 80Q631 123 646.50 166Q662 209 681 250Q700 291 718 325L548 325L548 394L820 394L824 354Q801 318 777.50 273.50Q754 229 734 182.50Q714 136 701.50 89Q689 42 689 0L611 0M247 293L169 293L169 608L67 572L42 634L187 687L247 687L247 293Z"  horiz-adv-x="903" vert-adv-y="1000"  />

      
      <glyph glyph-name="uniF507" unicode="&#xF507;" d="M314 0L230 0L569 687L653 687L314 0M656 0Q656 37 666 80Q676 123 691.50 166Q707 209 726 250Q745 291 763 325L593 325L593 394L865 394L869 354Q846 318 822.50 273.50Q799 229 779 182.50Q759 136 746.50 89Q734 42 734 0L656 0M314 293L42 293Q40 303 40 319Q40 355 52.50 382.50Q65 410 84 432Q103 454 125 470Q147 486 167 500Q194 519 213 537.50Q232 556 232 579Q232 600 216 612Q200 624 174 624Q148 624 122.50 613Q97 602 78 585L37 642Q65 668 103 682.50Q141 697 179 697Q207 697 231 689Q255 681 273 666Q291 651 301 629.50Q311 608 311 582Q311 558 302.50 538.50Q294 519 279.50 503.50Q265 488 247 474.50Q229 461 211 449Q183 430 160 409Q137 388 126 362L314 362L314 293Z"  horiz-adv-x="903" vert-adv-y="1000"  />

      
      <glyph glyph-name="uniF508" unicode="&#xF508;" d="M321 0L237 0L576 687L660 687L321 0M663 0Q663 37 673 80Q683 123 698.50 166Q714 209 733 250Q752 291 770 325L600 325L600 394L872 394L876 354Q853 318 829.50 273.50Q806 229 786 182.50Q766 136 753.50 89Q741 42 741 0L663 0M72 395Q95 375 121.50 365.50Q148 356 174 356Q204 356 228.50 369Q253 382 253 411Q253 436 235 448Q217 460 189 460L135 460L135 527L177 527Q202 527 220 539Q238 551 238 576Q238 600 221 612Q204 624 179 624Q132 624 84 585L43 642Q71 667 108.50 682Q146 697 186 697Q211 697 235 690Q259 683 277 669.50Q295 656 306 636Q317 616 317 591Q317 559 300 536.50Q283 514 254 496Q291 483 311.50 457.50Q332 432 332 397Q332 368 319 347Q306 326 284 311.50Q262 297 234.50 290Q207 283 179 283Q140 283 102.50 296Q65 309 31 338L72 395Z"  horiz-adv-x="903" vert-adv-y="1000"  />

      
      <glyph glyph-name="uniF509" unicode="&#xF509;" d="M338 0L254 0L593 687L677 687L338 0M680 0Q680 37 690 80Q700 123 715.50 166Q731 209 750 250Q769 291 787 325L617 325L617 394L889 394L893 354Q870 318 846.50 273.50Q823 229 803 182.50Q783 136 770.50 89Q758 42 758 0L680 0M289 293L216 293L216 374L20 374L14 423L190 687L289 687L289 439L345 439L345 374L289 374L289 293M216 439L216 608L102 439L216 439Z"  horiz-adv-x="903" vert-adv-y="1000"  />

      
      <glyph glyph-name="uniF50A" unicode="&#xF50A;" d="M318 0L234 0L573 687L657 687L318 0M660 0Q660 37 670 80Q680 123 695.50 166Q711 209 730 250Q749 291 767 325L597 325L597 394L869 394L873 354Q850 318 826.50 273.50Q803 229 783 182.50Q763 136 750.50 89Q738 42 738 0L660 0M313 618L149 618L146 544Q159 547 170.50 548Q182 549 191 549Q222 549 248.50 540Q275 531 294.50 514.50Q314 498 325.50 473.50Q337 449 337 419Q337 387 324.50 362Q312 337 291 319.50Q270 302 241.50 292.50Q213 283 181 283Q136 283 98.50 299Q61 315 34 338L75 395Q121 356 178 356Q213 356 235.50 371Q258 386 258 419Q258 454 234 472Q210 490 175 490Q153 490 134 484Q115 478 102 469L73 490L80 687L313 687L313 618Z"  horiz-adv-x="903" vert-adv-y="1000"  />

      
      <glyph glyph-name="uniF50B" unicode="&#xF50B;" d="M318 0L234 0L573 687L657 687L318 0M660 0Q660 37 670 80Q680 123 695.50 166Q711 209 730 250Q749 291 767 325L597 325L597 394L869 394L873 354Q850 318 826.50 273.50Q803 229 783 182.50Q763 136 750.50 89Q738 42 738 0L660 0M287 607Q267 617 246.50 622.50Q226 628 205 628Q180 628 162.50 619.50Q145 611 133.50 596Q122 581 116 560.50Q110 540 109 517Q129 534 155.50 543.50Q182 553 211 553Q239 553 263.50 543Q288 533 305.50 515Q323 497 333 472Q343 447 343 418Q343 385 331 360Q319 335 298.50 318Q278 301 251.50 292Q225 283 195 283Q154 283 123.50 299Q93 315 73 343Q53 371 43 408.50Q33 446 33 489Q33 533 43.50 571Q54 609 75 637Q96 665 128.50 681Q161 697 205 697Q231 697 258.50 690.50Q286 684 312 667L287 607M149 483Q129 477 109 463Q112 417 132.50 384.50Q153 352 197 352Q228 352 248 369Q268 386 268 418Q268 452 246 471Q224 490 190 490Q170 490 149 483Z"  horiz-adv-x="903" vert-adv-y="1000"  />

      
      <glyph glyph-name="uni215B" unicode="&#x215B;" d="M281 0L197 0L536 687L620 687L281 0M784 240Q769 217 743 206Q774 192 795 167.50Q816 143 816 107Q816 77 803 55Q790 33 769 18.50Q748 4 720.50-3Q693-10 663-10Q633-10 605.50-3Q578 4 557 18.50Q536 33 523 55Q510 77 510 107Q510 143 531 167Q552 192 583 206Q557 217 541.50 240Q526 263 526 293Q526 320 536.50 341Q547 362 566 376Q585 390 609.50 397Q634 404 663 404Q691 404 716 397Q741 390 760 376Q779 362 789.50 341Q800 320 800 293Q800 263 784 240M715 74Q738 88 738 117Q738 146 715 161Q692 176 663 176Q634 176 611 161Q588 146 588 117Q588 88 611 74.50Q634 61 663 61Q692 61 715 74M707 247Q726 260 726 286Q726 311 707.50 324Q689 337 663 337Q637 337 618.50 324Q600 311 600 286Q600 260 618.50 247Q637 234 663 234Q689 234 707 247M259 293L181 293L181 608L79 572L54 634L199 687L259 687L259 293Z"  horiz-adv-x="903" vert-adv-y="1000"  />

      
      <glyph glyph-name="uni215C" unicode="&#x215C;" d="M331 0L247 0L586 687L670 687L331 0M834 240Q819 217 793 206Q824 192 845 167.50Q866 143 866 107Q866 77 853 55Q840 33 819 18.50Q798 4 770.50-3Q743-10 713-10Q683-10 655.50-3Q628 4 607 18.50Q586 33 573 55Q560 77 560 107Q560 143 581 167Q602 192 633 206Q607 217 591.50 240Q576 263 576 293Q576 320 586.50 341Q597 362 616 376Q635 390 659.50 397Q684 404 713 404Q741 404 766 397Q791 390 810 376Q829 362 839.50 341Q850 320 850 293Q850 263 834 240M765 74Q788 88 788 117Q788 146 765 161Q742 176 713 176Q684 176 661 161Q638 146 638 117Q638 88 661 74.50Q684 61 713 61Q742 61 765 74M757 247Q776 260 776 286Q776 311 757.50 324Q739 337 713 337Q687 337 668.50 324Q650 311 650 286Q650 260 668.50 247Q687 234 713 234Q739 234 757 247M79 395Q102 375 128.50 365.50Q155 356 181 356Q211 356 235.50 369Q260 382 260 411Q260 436 242 448Q224 460 196 460L142 460L142 527L184 527Q209 527 227 539Q245 551 245 576Q245 600 228 612Q211 624 186 624Q139 624 91 585L50 642Q78 667 115.50 682Q153 697 193 697Q218 697 242 690Q266 683 284 669.50Q302 656 313 636Q324 616 324 591Q324 559 307 536.50Q290 514 261 496Q298 483 318.50 457.50Q339 432 339 397Q339 368 326 347Q313 326 291 311.50Q269 297 241.50 290Q214 283 186 283Q147 283 109.50 296Q72 309 38 338L79 395Z"  horiz-adv-x="903" vert-adv-y="1000"  />

      
      <glyph glyph-name="uni215D" unicode="&#x215D;" d="M328 0L244 0L583 687L667 687L328 0M831 240Q816 217 790 206Q821 192 842 167.50Q863 143 863 107Q863 77 850 55Q837 33 816 18.50Q795 4 767.50-3Q740-10 710-10Q680-10 652.50-3Q625 4 604 18.50Q583 33 570 55Q557 77 557 107Q557 143 578 167Q599 192 630 206Q604 217 588.50 240Q573 263 573 293Q573 320 583.50 341Q594 362 613 376Q632 390 656.50 397Q681 404 710 404Q738 404 763 397Q788 390 807 376Q826 362 836.50 341Q847 320 847 293Q847 263 831 240M762 74Q785 88 785 117Q785 146 762 161Q739 176 710 176Q681 176 658 161Q635 146 635 117Q635 88 658 74.50Q681 61 710 61Q739 61 762 74M754 247Q773 260 773 286Q773 311 754.50 324Q736 337 710 337Q684 337 665.50 324Q647 311 647 286Q647 260 665.50 247Q684 234 710 234Q736 234 754 247M319 618L155 618L152 544Q165 547 176.50 548Q188 549 197 549Q228 549 254.50 540Q281 531 300.50 514.50Q320 498 331.50 473.50Q343 449 343 419Q343 387 330.50 362Q318 337 297 319.50Q276 302 247.50 292.50Q219 283 187 283Q142 283 104.50 299Q67 315 40 338L81 395Q127 356 184 356Q219 356 241.50 371Q264 386 264 419Q264 454 240 472Q216 490 181 490Q159 490 140 484Q121 478 108 469L79 490L86 687L319 687L319 618Z"  horiz-adv-x="903" vert-adv-y="1000"  />

      
      <glyph glyph-name="uni215E" unicode="&#x215E;" d="M286 0L202 0L541 687L625 687L286 0M789 240Q774 217 748 206Q779 192 800 167.50Q821 143 821 107Q821 77 808 55Q795 33 774 18.50Q753 4 725.50-3Q698-10 668-10Q638-10 610.50-3Q583 4 562 18.50Q541 33 528 55Q515 77 515 107Q515 143 536 167Q557 192 588 206Q562 217 546.50 240Q531 263 531 293Q531 320 541.50 341Q552 362 571 376Q590 390 614.50 397Q639 404 668 404Q696 404 721 397Q746 390 765 376Q784 362 794.50 341Q805 320 805 293Q805 263 789 240M720 74Q743 88 743 117Q743 146 720 161Q697 176 668 176Q639 176 616 161Q593 146 593 117Q593 88 616 74.50Q639 61 668 61Q697 61 720 74M712 247Q731 260 731 286Q731 311 712.50 324Q694 337 668 337Q642 337 623.50 324Q605 311 605 286Q605 260 623.50 247Q642 234 668 234Q694 234 712 247M144 293Q144 330 154 373Q164 416 179.50 459Q195 502 214 543Q233 584 251 618L81 618L81 687L353 687L357 647Q334 611 310.50 566.50Q287 522 267 475.50Q247 429 234.50 382Q222 335 222 293L144 293Z"  horiz-adv-x="903" vert-adv-y="1000"  />

      
      <glyph glyph-name="uni2151" unicode="&#x2151;" d="M281 0L197 0L536 687L620 687L281 0M560 84Q581 71 608 65Q635 59 656 59Q683 59 700.50 69Q718 79 728.50 94Q739 109 744 127.50Q749 146 751 163Q733 149 706.50 141.50Q680 134 655 134Q629 134 605 143Q581 152 562.50 169Q544 186 533 211Q522 236 522 268Q522 301 533.50 326Q545 351 565 368.50Q585 386 611.50 395Q638 404 667 404Q707 404 737 387.50Q767 371 787 343Q807 315 817 277.50Q827 240 827 197Q827 152 816 114.50Q805 77 783.50 49Q762 21 729.50 5.50Q697-10 654-10Q625-10 592-2.50Q559 5 533 22L560 84M751 219Q746 274 725 304.50Q704 335 666 335Q633 335 615 316Q597 297 597 268Q597 237 617.50 217Q638 197 678 197Q692 197 711 201Q730 205 751 219M259 293L181 293L181 608L79 572L54 634L199 687L259 687L259 293Z"  horiz-adv-x="903" vert-adv-y="1000"  />

      
      <glyph glyph-name="uniF50D" unicode="&#xF50D;" d="M319 0L235 0L574 687L658 687L319 0M598 84Q619 71 646 65Q673 59 694 59Q721 59 738.50 69Q756 79 766.50 94Q777 109 782 127.50Q787 146 789 163Q771 149 744.50 141.50Q718 134 693 134Q667 134 643 143Q619 152 600.50 169Q582 186 571 211Q560 236 560 268Q560 301 571.50 326Q583 351 603 368.50Q623 386 649.50 395Q676 404 705 404Q745 404 775 387.50Q805 371 825 343Q845 315 855 277.50Q865 240 865 197Q865 152 854 114.50Q843 77 821.50 49Q800 21 767.50 5.50Q735-10 692-10Q663-10 630-2.50Q597 5 571 22L598 84M789 219Q784 274 763 304.50Q742 335 704 335Q671 335 653 316Q635 297 635 268Q635 237 655.50 217Q676 197 716 197Q730 197 749 201Q768 205 789 219M319 293L47 293Q45 303 45 319Q45 355 57.50 382.50Q70 410 89 432Q108 454 130 470Q152 486 172 500Q199 519 218 537.50Q237 556 237 579Q237 600 221 612Q205 624 179 624Q153 624 127.50 613Q102 602 83 585L42 642Q70 668 108 682.50Q146 697 184 697Q212 697 236 689Q260 681 278 666Q296 651 306 629.50Q316 608 316 582Q316 558 307.50 538.50Q299 519 284.50 503.50Q270 488 252 474.50Q234 461 216 449Q188 430 165 409Q142 388 131 362L319 362L319 293Z"  horiz-adv-x="903" vert-adv-y="1000"  />

      
      <glyph glyph-name="uniF50E" unicode="&#xF50E;" d="M342 0L258 0L597 687L681 687L342 0M621 84Q642 71 669 65Q696 59 717 59Q744 59 761.50 69Q779 79 789.50 94Q800 109 805 127.50Q810 146 812 163Q794 149 767.50 141.50Q741 134 716 134Q690 134 666 143Q642 152 623.50 169Q605 186 594 211Q583 236 583 268Q583 301 594.50 326Q606 351 626 368.50Q646 386 672.50 395Q699 404 728 404Q768 404 798 387.50Q828 371 848 343Q868 315 878 277.50Q888 240 888 197Q888 152 877 114.50Q866 77 844.50 49Q823 21 790.50 5.50Q758-10 715-10Q686-10 653-2.50Q620 5 594 22L621 84M812 219Q807 274 786 304.50Q765 335 727 335Q694 335 676 316Q658 297 658 268Q658 237 678.50 217Q699 197 739 197Q753 197 772 201Q791 205 812 219M293 293L220 293L220 374L24 374L18 423L194 687L293 687L293 439L349 439L349 374L293 374L293 293M220 439L220 608L106 439L220 439Z"  horiz-adv-x="903" vert-adv-y="1000"  />

      
      <glyph glyph-name="uniF50F" unicode="&#xF50F;" d="M322 0L238 0L577 687L661 687L322 0M601 84Q622 71 649 65Q676 59 697 59Q724 59 741.50 69Q759 79 769.50 94Q780 109 785 127.50Q790 146 792 163Q774 149 747.50 141.50Q721 134 696 134Q670 134 646 143Q622 152 603.50 169Q585 186 574 211Q563 236 563 268Q563 301 574.50 326Q586 351 606 368.50Q626 386 652.50 395Q679 404 708 404Q748 404 778 387.50Q808 371 828 343Q848 315 858 277.50Q868 240 868 197Q868 152 857 114.50Q846 77 824.50 49Q803 21 770.50 5.50Q738-10 695-10Q666-10 633-2.50Q600 5 574 22L601 84M792 219Q787 274 766 304.50Q745 335 707 335Q674 335 656 316Q638 297 638 268Q638 237 658.50 217Q679 197 719 197Q733 197 752 201Q771 205 792 219M317 618L153 618L150 544Q163 547 174.50 548Q186 549 195 549Q226 549 252.50 540Q279 531 298.50 514.50Q318 498 329.50 473.50Q341 449 341 419Q341 387 328.50 362Q316 337 295 319.50Q274 302 245.50 292.50Q217 283 185 283Q140 283 102.50 299Q65 315 38 338L79 395Q125 356 182 356Q217 356 239.50 371Q262 386 262 419Q262 454 238 472Q214 490 179 490Q157 490 138 484Q119 478 106 469L77 490L84 687L317 687L317 618Z"  horiz-adv-x="903" vert-adv-y="1000"  />

      
      <glyph glyph-name="uniF510" unicode="&#xF510;" d="M281 0L197 0L536 687L620 687L281 0M560 84Q581 71 608 65Q635 59 656 59Q683 59 700.50 69Q718 79 728.50 94Q739 109 744 127.50Q749 146 751 163Q733 149 706.50 141.50Q680 134 655 134Q629 134 605 143Q581 152 562.50 169Q544 186 533 211Q522 236 522 268Q522 301 533.50 326Q545 351 565 368.50Q585 386 611.50 395Q638 404 667 404Q707 404 737 387.50Q767 371 787 343Q807 315 817 277.50Q827 240 827 197Q827 152 816 114.50Q805 77 783.50 49Q762 21 729.50 5.50Q697-10 654-10Q625-10 592-2.50Q559 5 533 22L560 84M751 219Q746 274 725 304.50Q704 335 666 335Q633 335 615 316Q597 297 597 268Q597 237 617.50 217Q638 197 678 197Q692 197 711 201Q730 205 751 219M139 293Q139 330 149 373Q159 416 174.50 459Q190 502 209 543Q228 584 246 618L76 618L76 687L348 687L352 647Q329 611 305.50 566.50Q282 522 262 475.50Q242 429 229.50 382Q217 335 217 293L139 293Z"  horiz-adv-x="903" vert-adv-y="1000"  />

      
      <glyph glyph-name="uniF511" unicode="&#xF511;" d="M322 0L238 0L577 687L661 687L322 0M601 84Q622 71 649 65Q676 59 697 59Q724 59 741.50 69Q759 79 769.50 94Q780 109 785 127.50Q790 146 792 163Q774 149 747.50 141.50Q721 134 696 134Q670 134 646 143Q622 152 603.50 169Q585 186 574 211Q563 236 563 268Q563 301 574.50 326Q586 351 606 368.50Q626 386 652.50 395Q679 404 708 404Q748 404 778 387.50Q808 371 828 343Q848 315 858 277.50Q868 240 868 197Q868 152 857 114.50Q846 77 824.50 49Q803 21 770.50 5.50Q738-10 695-10Q666-10 633-2.50Q600 5 574 22L601 84M792 219Q787 274 766 304.50Q745 335 707 335Q674 335 656 316Q638 297 638 268Q638 237 658.50 217Q679 197 719 197Q733 197 752 201Q771 205 792 219M312 533Q297 510 271 499Q302 485 323 460.50Q344 436 344 400Q344 370 331 348Q318 326 297 311.50Q276 297 248.50 290Q221 283 191 283Q161 283 133.50 290Q106 297 85 311.50Q64 326 51 348Q38 370 38 400Q38 436 59 460Q80 485 111 499Q85 510 69.50 533Q54 556 54 586Q54 613 64.50 634Q75 655 94 669Q113 683 137.50 690Q162 697 191 697Q219 697 244 690Q269 683 288 669Q307 655 317.50 634Q328 613 328 586Q328 556 312 533M243 367Q266 381 266 410Q266 439 243 454Q220 469 191 469Q162 469 139 454Q116 439 116 410Q116 381 139 367.50Q162 354 191 354Q220 354 243 367M235 540Q254 553 254 579Q254 604 235.50 617Q217 630 191 630Q165 630 146.50 617Q128 604 128 579Q128 553 146.50 540Q165 527 191 527Q217 527 235 540Z"  horiz-adv-x="903" vert-adv-y="1000"  />

      
      <glyph glyph-name="uniF69E" unicode="&#xF69E;" d="M264 0L186 0L461 555L539 555L264 0M592 64Q604 74 610.50 89Q617 104 620 121.50Q623 139 623 156Q623 172 620 190Q617 208 610.50 223Q604 238 592.50 247.50Q581 257 565 257Q548 257 537 247.50Q526 238 519.50 223Q513 208 510 190Q507 172 507 156Q507 139 510 121.50Q513 104 519.50 89Q526 74 537 64.50Q548 55 565 55Q581 55 592 64M664 40Q648 17 623.50 3.50Q599-10 565-10Q531-10 506.50 3.50Q482 17 466 40Q450 63 442 93Q434 123 434 156Q434 189 442 219Q450 249 466 272Q482 295 506.50 308.50Q531 322 565 322Q599 322 623.50 308.50Q648 295 664 272Q680 249 688 219Q696 189 696 156Q696 123 688 93Q680 63 664 40M187 307Q199 317 205.50 332Q212 347 215 364.50Q218 382 218 399Q218 415 215 433Q212 451 205.50 466Q199 481 187.50 490.50Q176 500 160 500Q143 500 132 490.50Q121 481 114.50 466Q108 451 105 433Q102 415 102 399Q102 382 105 364.50Q108 347 114.50 332Q121 317 132 307.50Q143 298 160 298Q176 298 187 307M259 283Q243 260 218.50 246.50Q194 233 160 233Q126 233 101.50 246.50Q77 260 61 283Q45 306 37 336Q29 366 29 399Q29 432 37 462Q45 492 61 515Q77 538 101.50 551.50Q126 565 160 565Q194 565 218.50 551.50Q243 538 259 515Q275 492 283 462Q291 432 291 399Q291 366 283 336Q275 306 259 283Z"  horiz-adv-x="725" vert-adv-y="1000"  />

      
      <glyph glyph-name="uniF69F" unicode="&#xF69F;" d="M264 0L186 0L461 555L539 555L264 0M592 64Q604 74 610.50 89Q617 104 620 121.50Q623 139 623 156Q623 172 620 190Q617 208 610.50 223Q604 238 592.50 247.50Q581 257 565 257Q548 257 537 247.50Q526 238 519.50 223Q513 208 510 190Q507 172 507 156Q507 139 510 121.50Q513 104 519.50 89Q526 74 537 64.50Q548 55 565 55Q581 55 592 64M664 40Q648 17 623.50 3.50Q599-10 565-10Q531-10 506.50 3.50Q482 17 466 40Q450 63 442 93Q434 123 434 156Q434 189 442 219Q450 249 466 272Q482 295 506.50 308.50Q531 322 565 322Q599 322 623.50 308.50Q648 295 664 272Q680 249 688 219Q696 189 696 156Q696 123 688 93Q680 63 664 40M909 64Q921 74 927.50 89Q934 104 937 121.50Q940 139 940 156Q940 172 937 190Q934 208 927.50 223Q921 238 909.50 247.50Q898 257 882 257Q865 257 854 247.50Q843 238 836.50 223Q830 208 827 190Q824 172 824 156Q824 139 827 121.50Q830 104 836.50 89Q843 74 854 64.50Q865 55 882 55Q898 55 909 64M981 40Q965 17 940.50 3.50Q916-10 882-10Q848-10 823.50 3.50Q799 17 783 40Q767 63 759 93Q751 123 751 156Q751 189 759 219Q767 249 783 272Q799 295 823.50 308.50Q848 322 882 322Q916 322 940.50 308.50Q965 295 981 272Q997 249 1005 219Q1013 189 1013 156Q1013 123 1005 93Q997 63 981 40M187 307Q199 317 205.50 332Q212 347 215 364.50Q218 382 218 399Q218 415 215 433Q212 451 205.50 466Q199 481 187.50 490.50Q176 500 160 500Q143 500 132 490.50Q121 481 114.50 466Q108 451 105 433Q102 415 102 399Q102 382 105 364.50Q108 347 114.50 332Q121 317 132 307.50Q143 298 160 298Q176 298 187 307M259 283Q243 260 218.50 246.50Q194 233 160 233Q126 233 101.50 246.50Q77 260 61 283Q45 306 37 336Q29 366 29 399Q29 432 37 462Q45 492 61 515Q77 538 101.50 551.50Q126 565 160 565Q194 565 218.50 551.50Q243 538 259 515Q275 492 283 462Q291 432 291 399Q291 366 283 336Q275 306 259 283Z"  horiz-adv-x="1042" vert-adv-y="1000"  />

      
      <glyph glyph-name="uni24" unicode="&#x24;" d="M316-119L242-126L242-9Q187-7 128 9Q69 25 12 61L48 134Q100 104 150 89Q200 74 242 71L242 319Q202 334 165 350Q128 366 99.50 388Q71 410 53.50 440.50Q36 471 36 515Q36 558 52.50 590.50Q69 623 97.50 645.50Q126 668 163.50 680.50Q201 693 242 696L242 801L316 808L316 694Q365 689 413 674Q461 659 497 636L462 563Q425 581 388 594Q351 607 316 613L316 386Q360 369 397 352Q434 335 461 313Q488 291 503 261Q518 231 518 189Q518 108 465.50 56Q413 4 316-7L316-119M242 615Q222 613 201.50 607Q181 601 164 590Q147 579 136.50 562Q126 545 126 522Q126 482 159.50 457Q193 432 242 413L242 615M316 74Q367 82 397 108.50Q427 135 427 180Q427 222 399 246Q371 270 316 291L316 74Z"  horiz-adv-x="558" vert-adv-y="1000"  />

      
      <glyph glyph-name="unia2" unicode="&#xa2;" d="M355-119L281-126L281 22Q231 29 193 51Q155 73 129.50 108Q104 143 90.50 189Q77 235 77 289Q77 342 90 387.50Q103 433 128.50 467.50Q154 502 192 524.50Q230 547 281 554L281 696L355 703L355 555Q397 551 431.50 538Q466 525 494 508L464 438Q433 454 406.50 464Q380 474 355 478L355 98Q386 102 415 112.50Q444 123 471 139L501 69Q470 49 432.50 37Q395 25 355 21L355-119M281 475Q227 461 197 414Q167 367 167 289Q167 219 194.50 168.50Q222 118 281 102L281 475Z"  horiz-adv-x="558" vert-adv-y="1000"  />

      
      <glyph glyph-name="unia3" unicode="&#xa3;" d="M531 0L90 0L84 58Q109 82 124.50 107.50Q140 133 148 158.50Q156 184 158.50 207.50Q161 231 161 250Q161 266 160 281.50Q159 297 157 312L60 312L60 387L145 387Q141 410 138.50 433.50Q136 457 136 482Q136 523 146 562Q156 601 179.50 631Q203 661 242 679Q281 697 339 697Q404 697 451 675Q498 653 538 621L493 554Q454 583 420.50 598.50Q387 614 342 614Q316 614 295.50 608Q275 602 260.50 587Q246 572 238 546.50Q230 521 230 482Q230 457 232.50 433.50Q235 410 239 387L401 387L401 312L251 312Q253 296 254 281Q255 266 255 250Q255 205 244 163.50Q233 122 210 82L531 82L531 0Z"  horiz-adv-x="558" vert-adv-y="1000"  />

      
      <glyph glyph-name="unia5" unicode="&#xa5;" d="M475 117L325 117L325 0L234 0L234 117L84 117L84 189L234 189L234 268L84 268L84 340L212 340L33 687L134 687L279 376L428 687L525 687L346 340L475 340L475 268L325 268L325 189L475 189L475 117Z"  horiz-adv-x="558" vert-adv-y="1000"  />

      
      <glyph glyph-name="uni20AC" unicode="&#x20AC;" d="M543 32Q497 12 458.50 1Q420-10 371-10Q315-10 272.50 7.50Q230 25 200.50 56.50Q171 88 152.50 132.50Q134 177 126 232L38 232L38 304L119 304L119 383L38 383L38 455L126 455Q134 510 152.50 554.50Q171 599 200.50 630.50Q230 662 272.50 679.50Q315 697 371 697Q420 697 458.50 686Q497 675 543 655L517 579Q464 602 426 608Q388 614 367 614Q304 614 268 573.50Q232 533 219 455L406 455L400 383L212 383L212 304L390 304L384 232L219 232Q232 154 268 113.50Q304 73 367 73Q388 73 426 79Q464 85 517 108L543 32Z"  horiz-adv-x="558" vert-adv-y="1000"  />

      
      <glyph glyph-name="uni20AB" unicode="&#x20AB;" d="M406 0Q404 10 402 21.50Q400 33 398 46Q366 22 323.50 6Q281-10 236-10Q186-10 147.50 11.50Q109 33 82.50 69Q56 105 42.50 152.50Q29 200 29 253Q29 310 44.50 359.50Q60 409 90 446.50Q120 484 163.50 505.50Q207 527 264 527Q296 527 330 518Q364 509 396 486L396 596L233 596L233 663L396 663L396 745L485 753L485 663L568 663L568 596L485 596L485 123Q485 94 486.50 61.50Q488 29 495 0L406 0M396 413Q367 432 334.50 441Q302 450 273 450Q232 450 203 434Q174 418 155 391Q136 364 127.50 327.50Q119 291 119 250Q119 212 126.50 178.50Q134 145 151 120.50Q168 96 194.50 81.50Q221 67 259 67Q288 67 325 76.50Q362 86 396 108L396 413M513-155L67-155L67-88L513-88L513-155Z"  horiz-adv-x="558" vert-adv-y="1000"  />

      
      <glyph glyph-name="uni20B8" unicode="&#x20B8;" d="M324 0L233 0L233 444L31 444L31 526L527 526L527 444L324 444L324 0M527 605L31 605L31 687L527 687L527 605Z"  horiz-adv-x="558" vert-adv-y="1000"  />

      
      <glyph glyph-name="uni20B9" unicode="&#x20B9;" d="M421-10Q349 66 291 132Q233 198 182 271L62 271L62 346L209 346Q260 346 295 371Q330 396 341 441L62 441L62 516L341 516Q330 559 296.50 585.50Q263 612 215 612L62 612L62 687L496 687L496 612L382 612Q402 592 416.50 568.50Q431 545 437 516L496 516L496 441L439 441Q430 380 388 337.50Q346 295 278 280Q330 212 382.50 158.50Q435 105 491 49L421-10Z"  horiz-adv-x="558" vert-adv-y="1000"  />

      
      <glyph glyph-name="uni20AE" unicode="&#x20AE;" d="M324 0L233 0L233 176L96 139L78 208L233 250L233 333L78 291L60 360L233 407L233 605L31 605L31 687L527 687L527 605L324 605L324 432L464 470L482 401L324 358L324 275L482 318L500 249L324 201L324 0Z"  horiz-adv-x="558" vert-adv-y="1000"  />

      
      <glyph glyph-name="uni20B1" unicode="&#x20B1;" d="M159 0L71 0L71 435L13 435L13 510L71 510L71 687L266 687Q311 687 349 674.50Q387 662 416.50 639Q446 616 464.50 583.50Q483 551 489 510L545 510L545 435L489 435Q483 393 464.50 360Q446 327 417 304Q388 281 349.50 269Q311 257 266 257L159 257L159 0M261 334Q312 334 347.50 361.50Q383 389 394 435L159 435L159 334L261 334M393 510Q382 555 347 582.50Q312 610 261 610L159 610L159 510L393 510Z"  horiz-adv-x="558" vert-adv-y="1000"  />

      
      <glyph glyph-name="uni20B2" unicode="&#x20B2;" d="M529 42Q484 21 437 6.50Q390-8 336-10L336-119L262-126L262-5Q195 6 149.50 40Q104 74 76.50 122Q49 170 37.50 227.50Q26 285 26 343Q26 401 38 458.50Q50 516 77.50 564Q105 612 150 646Q195 680 262 691L262 801L336 808L336 697Q399 695 446.50 677Q494 659 533 636L499 562Q470 579 428.50 595.50Q387 612 336 614L336 375L529 375L529 42M262 604Q189 581 154.50 511Q120 441 120 343Q120 303 126.50 262Q133 221 149.50 185Q166 149 193 121.50Q220 94 262 82L262 604M336 73Q364 74 392 80Q420 86 440 94L440 295L336 295L336 73Z"  horiz-adv-x="558" vert-adv-y="1000"  />

      
      <glyph glyph-name="uni20B4" unicode="&#x20B4;" d="M512 61Q457 23 401 6.50Q345-10 291-10Q243-10 202 1.50Q161 13 131.50 35.50Q102 58 85 92Q68 126 68 172Q68 189 70.50 203.50Q73 218 78 232L28 232L28 304L130 304Q160 329 197.50 347.50Q235 366 271 383L28 383L28 455L380 455Q391 469 398 485.50Q405 502 405 523Q405 548 395 565.50Q385 583 368.50 594Q352 605 330.50 609.50Q309 614 287 614Q246 614 205 600.50Q164 587 121 561L90 636Q130 664 181.50 680.50Q233 697 287 697Q326 697 363 687.50Q400 678 429.50 657.50Q459 637 477 604Q495 571 495 523Q495 485 481 455L535 455L535 383L419 383Q385 358 344 340.50Q303 323 265 304L535 304L535 232L175 232Q159 205 159 172Q159 122 193 97.50Q227 73 287 73Q329 73 378.50 87Q428 101 481 136L512 61Z"  horiz-adv-x="558" vert-adv-y="1000"  />

      
      <glyph glyph-name="uni20A9" unicode="&#x20A9;" d="M736 0L645 0L545 292L393 292L300 0L209 0L131 292L28 292L28 367L111 367L25 687L120 687L201 367L337 367L426 646L514 646L607 367L747 367L827 687L920 687L834 367L917 367L917 292L814 292L736 0M261 129L313 292L220 292L261 129M520 367L467 522L417 367L520 367M688 127L729 292L632 292L688 127Z"  horiz-adv-x="945" vert-adv-y="1000"  />

      
      <glyph glyph-name="uni20B5" unicode="&#x20B5;" d="M542 51Q504 28 458.50 11Q413-6 354-9L354-119L280-126L280-6Q211 4 164 37.50Q117 71 88.50 119.50Q60 168 47.50 226Q35 284 35 343Q35 402 47.50 460Q60 518 88.50 566.50Q117 615 164 649Q211 683 280 693L280 801L354 808L354 696Q413 693 458.50 676Q504 659 542 636L508 562Q480 578 441 594Q402 610 354 613L354 73Q402 77 441 93Q480 109 508 125L542 51M280 607Q241 597 213 573.50Q185 550 166 515.50Q147 481 138 437Q129 393 129 343Q129 241 165.50 170.50Q202 100 280 80L280 607Z"  horiz-adv-x="558" vert-adv-y="1000"  />

      
      <glyph glyph-name="uni20BA" unicode="&#x20BA;" d="M530 328Q519 261 495.50 203Q472 145 427.50 100Q383 55 313.50 26Q244-3 142-10L142 342L56 319L38 388L142 416L142 499L38 471L20 540L142 573L142 687L233 687L233 598L350 630L368 561L233 524L233 441L368 478L386 409L233 367L233 90Q321 107 372 167Q423 227 441 328L530 328Z"  horiz-adv-x="558" vert-adv-y="1000"  />

      
      <glyph glyph-name="uni20AA" unicode="&#x20AA;" d="M608 221L517 221L517 423Q517 469 510 503Q503 537 485.50 559.50Q468 582 438 593.50Q408 605 362 605L182 605L182 0L91 0L91 687L362 687Q430 687 477 671Q524 655 553 622.50Q582 590 595 540.50Q608 491 608 423L608 221M821 264Q821 196 808 146.50Q795 97 766 64.50Q737 32 690 16Q643 0 575 0L304 0L304 466L395 466L395 82L575 82Q621 82 651 93.50Q681 105 698.50 127.50Q716 150 723 184Q730 218 730 264L730 687L821 687L821 264Z"  horiz-adv-x="912" vert-adv-y="1000"  />

      
      <glyph glyph-name="uni20A1" unicode="&#x20A1;" d="M542 51Q505 28 460.50 11.50Q416-5 358-9L339-120L266-120L285-7Q263-4 244 1Q225 6 208 13L185-120L112-120L142 54Q112 79 92 112.50Q72 146 59 183.50Q46 221 40.50 261.50Q35 302 35 343Q35 398 46 453.50Q57 509 82 556.50Q107 604 148.50 638.50Q190 673 251 688L271 802L345 802L326 697Q351 697 369.50 695Q388 693 405 690L425 802L499 802L476 670Q494 662 510.50 653.50Q527 645 542 636L508 562Q497 568 486 574Q475 580 461 586L373 75Q415 81 449 96Q483 111 508 125L542 51M224 105Q256 82 300 76L391 608Q383 610 367 612Q351 614 337 614Q322 614 312 612L224 105M234 588Q180 556 154.50 492Q129 428 129 343Q129 243 163 176L234 588Z"  horiz-adv-x="558" vert-adv-y="1000"  />

      
      <glyph glyph-name="uni20A6" unicode="&#x20A6;" d="M570 0L491 0L351 236L181 236L181 0L95 0L95 236L15 236L15 308L95 308L95 387L15 387L15 459L95 459L95 687L174 687L309 459L484 459L484 687L570 687L570 459L650 459L650 387L570 387L570 308L650 308L650 236L570 236L570 0M308 308L261 387L181 387L181 308L308 308M484 308L484 387L351 387L398 308L484 308M219 459L181 523L181 459L219 459M484 164L484 236L441 236L484 164Z"  horiz-adv-x="665" vert-adv-y="1000"  />

      
      <glyph glyph-name="uni20AD" unicode="&#x20AD;" d="M478-10Q447 19 410 59.50Q373 100 335 143.50Q297 187 262 231Q227 275 201 311L201 0L110 0L110 312L30 312L30 387L110 387L110 687L201 687L201 387L427 687L530 687L298 387L527 387L527 312L305 312Q330 280 362 243Q394 206 426.50 170.50Q459 135 490 103.50Q521 72 545 51L478-10Z"  horiz-adv-x="558" vert-adv-y="1000"  />

      
      <glyph glyph-name="uni20A0" unicode="&#x20A0;" d="M549 0L271 0L271 204L236 204Q182 204 140.50 223.50Q99 243 70.50 276.50Q42 310 27.50 355Q13 400 13 450Q13 501 27.50 545.50Q42 590 70.50 624Q99 658 140.50 677.50Q182 697 236 697Q282 697 318 686Q354 675 381 658L349 588Q315 603 292 608.50Q269 614 239 614Q202 614 176.50 600Q151 586 135.50 563.50Q120 541 113.50 511Q107 481 107 450Q107 418 113.50 388Q120 358 135.50 335.50Q151 313 176.50 299.50Q202 286 239 286L271 286L271 487L549 487L549 405L362 405L362 286L505 286L505 204L362 204L362 82L549 82L549 0Z"  horiz-adv-x="558" vert-adv-y="1000"  />

      
      <glyph glyph-name="uni20A2" unicode="&#x20A2;" d="M542 51Q501 26 450.50 8Q400-10 333-10Q248-10 190.50 21Q133 52 98.50 102.50Q64 153 49.50 216Q35 279 35 343Q35 407 49.50 470.50Q64 534 98.50 584Q133 634 190.50 665.50Q248 697 333 697Q400 697 450.50 679Q501 661 542 636L508 562Q478 579 434 596.50Q390 614 336 614Q283 614 244 593.50Q205 573 179.50 537Q154 501 141.50 451.50Q129 402 129 343Q129 257 155 192.50Q181 128 236 97L236 404L316 412L325 333Q357 372 391.50 394Q426 416 465 416Q492 416 525 405L504 319Q489 324 475.50 325.50Q462 327 453 327Q412 327 383 312Q354 297 325 271L325 73L336 73Q390 73 434 90.50Q478 108 508 125L542 51Z"  horiz-adv-x="558" vert-adv-y="1000"  />

      
      <glyph glyph-name="uni20A5" unicode="&#x20A5;" d="M633 0Q626 29 624.50 61.50Q623 94 623 123L623 320Q623 348 618.50 371.50Q614 395 603 412.50Q592 430 574.50 440Q557 450 530 450Q488 450 440 418L432 393Q440 359 440 324L440 123Q440 94 441.50 61.50Q443 29 450 0L361 0Q354 29 352.50 62Q351 95 351 128L266-147L203-147L351 332Q349 383 328.50 416.50Q308 450 258 450Q238 450 216.50 443Q195 436 168 417L168 0L79 0L79 515L159 523L166 475Q196 498 226.50 512.50Q257 527 293 527Q326 527 351 513.50Q376 500 395 475L455 670L518 670L463 493Q486 507 511 517Q536 527 565 527Q634 527 673 473.50Q712 420 712 324L712 123Q712 94 713.50 61.50Q715 29 722 0L633 0Z"  horiz-adv-x="786" vert-adv-y="1000"  />

      
      <glyph glyph-name="uni20A8" unicode="&#x20A8;" d="M541-10Q469 62 411 132Q353 202 302 271L182 271L182 0L91 0L91 687L334 687Q384 687 426 672.50Q468 658 498 631Q528 604 545 565Q562 526 562 477Q562 394 517 345.50Q472 297 398 280Q450 216 502.50 158Q555 100 611 49L541-10M329 349Q390 349 428 383Q466 417 466 477Q466 537 428 571Q390 605 329 605L182 605L182 349L329 349M995 408Q955 428 918 440Q881 452 845 452Q826 452 808.50 448Q791 444 777.50 436Q764 428 756 416.50Q748 405 748 389Q748 372 757.50 358.50Q767 345 783 334.50Q799 324 821 315.50Q843 307 867 299Q897 289 927 277Q957 265 982 246.50Q1007 228 1022.50 201Q1038 174 1038 135Q1038 94 1021.50 66.50Q1005 39 977.50 22Q950 5 914-2.50Q878-10 839-10Q790-10 742 1.50Q694 13 653 39L684 109Q723 89 765.50 77Q808 65 847 65Q866 65 884.50 68.50Q903 72 917.50 79.50Q932 87 940.50 100Q949 113 949 131Q949 149 939 163Q929 177 912 187.50Q895 198 871 207.50Q847 217 820 226Q791 236 762 248.50Q733 261 710 279Q687 297 673 322.50Q659 348 659 383Q659 419 674 446Q689 473 714.50 491Q740 509 774 518Q808 527 847 527Q891 527 938 515.50Q985 504 1025 478L995 408Z"  horiz-adv-x="1078" vert-adv-y="1000"  />

      
      <glyph glyph-name="unia4" unicode="&#xa4;" d="M524 150L472 98L397 172Q372 157 342.50 148.50Q313 140 279 140Q245 140 215 148.50Q185 157 160 172L86 98L34 150L106 222Q89 247 79.50 277.50Q70 308 70 343Q70 413 107 464L34 537L86 589L160 514Q185 530 215 538.50Q245 547 279 547Q312 547 342 538.50Q372 530 397 514L472 589L524 537L451 464Q468 439 478 408.50Q488 378 488 343Q488 273 451 222L524 150M279 220Q338 220 370.50 255Q403 290 403 344Q403 397 370.50 432Q338 467 279 467Q220 467 187.50 432Q155 397 155 344Q155 290 187.50 255Q220 220 279 220Z"  horiz-adv-x="558" vert-adv-y="1000"  />

      
      <glyph glyph-name="uni20B0" unicode="&#x20B0;" d="M455 196Q461 178 465 158.50Q469 139 469 118Q469 62 437 26Q405-10 335-10Q288-10 246 9L263 76Q274 71 290 68.50Q306 66 320 66Q361 66 376 82Q391 98 391 124Q391 140 386.50 158.50Q382 177 375 196L346 279L268 180L204 278L122 180L36 180L205 387L269 288L320 355L285 455Q274 487 267.50 512Q261 537 261 560Q261 586 269 611Q277 636 293 655Q309 674 333.50 685.50Q358 697 390 697Q423 697 447.50 685Q472 673 488 654Q504 635 511.50 611.50Q519 588 519 566Q519 526 497 484Q475 442 437 394L401 349L455 196M374 427Q400 459 419.50 494Q439 529 439 560Q439 586 425 603Q411 620 390 620Q369 620 355.50 603Q342 586 342 556Q342 531 351 496.50Q360 462 374 427Z"  horiz-adv-x="558" vert-adv-y="1000"  />

      
      <glyph glyph-name="uni20B6" unicode="&#x20B6;" d="M615 9Q589-2 570-6Q551-10 529-10Q484-10 453.50 4.50Q423 19 404.50 45.50Q386 72 378 109.50Q370 147 370 192L370 444L215 444L215 0L126 0L126 444L13 444L13 517L126 517L126 745L215 753L215 517L370 517L370 645L459 653L459 517L594 517L594 444L459 444L459 203Q459 179 461 154.50Q463 130 470.50 110.50Q478 91 493 79Q508 67 534 67Q565 67 598 78L615 9Z"  horiz-adv-x="633" vert-adv-y="1000"  />

      
      <glyph glyph-name="uni20B7" unicode="&#x20B7;" d="M292-10L288 8Q246 8 214 15Q215 9 216 3Q217-3 219-10L172-10Q166 9 166 26Q146 32 128 39.50Q110 47 93 55L93-10L46-10L46 198L82 204L90 175Q104 187 118.50 195.50Q133 204 152 204Q188 204 204 170Q221 187 237.50 195.50Q254 204 272 204Q303 204 318 181Q333 158 333 120L333 70Q374 82 397 108Q420 134 420 172Q420 201 407 221.50Q394 242 371 257.50Q348 273 317.50 285Q287 297 251 310Q211 324 174 339.50Q137 355 108 377.50Q79 400 61.50 432Q44 464 44 511Q44 560 63.50 595.50Q83 631 115 653.50Q147 676 188.50 686.50Q230 697 274 697Q334 697 391 680Q448 663 493 636L460 560Q411 586 365 600Q319 614 274 614Q248 614 223.50 608.50Q199 603 180 591.50Q161 580 149.50 561.50Q138 543 138 516Q138 491 148.50 473Q159 455 178.50 441.50Q198 428 225 417.50Q252 407 285 395Q330 379 371 362Q412 345 444 321Q476 297 495 263.50Q514 230 514 182Q514 141 500 110.50Q486 80 461.50 59.50Q437 39 404 27Q371 15 334 11Q335 6 336 1Q337-4 339-10L292-10M286 118Q286 141 278 149.50Q270 158 256 158Q235 158 211 140Q212 135 212.50 130Q213 125 213 120L213 67Q228 64 244 63Q260 62 286 62L286 118M166 118Q166 141 158 149.50Q150 158 136 158Q125 158 114.50 153.50Q104 149 93 141L93 105Q131 87 166 78L166 118Z"  horiz-adv-x="558" vert-adv-y="1000"  />

      
      <glyph glyph-name="uni20B3" unicode="&#x20B3;" d="M546 0L448 0L390 187L162 187L105 0L12 0L73 187L16 187L16 259L96 259L122 338L16 338L16 410L145 410L236 687L322 687L412 410L542 410L542 338L436 338L461 259L542 259L542 187L485 187L546 0M368 259L344 338L209 338L185 259L368 259M322 410L277 557L231 410L322 410Z"  horiz-adv-x="558" vert-adv-y="1000"  />

      
      <glyph glyph-name="uni20A3" unicode="&#x20A3;" d="M221 0L130 0L130 110L30 110L30 185L130 185L130 687L528 687L528 605L221 605L221 396L464 396L464 314L221 314L221 185L321 185L321 110L221 110L221 0Z"  horiz-adv-x="558" vert-adv-y="1000"  />

      
      <glyph glyph-name="uni20A4" unicode="&#x20A4;" d="M531 0L90 0L84 58Q121 92 137 130Q153 168 158 202L60 202L60 274L160 274Q159 294 156.50 313.50Q154 333 150 353L60 353L60 425L139 425Q136 452 136 482Q136 523 146 562Q156 601 179.50 631Q203 661 242 679Q281 697 339 697Q404 697 451 675Q498 653 538 621L493 554Q454 583 420.50 598.50Q387 614 342 614Q316 614 295.50 608Q275 602 260.50 587Q246 572 238 546.50Q230 521 230 482Q230 453 233 425L401 425L401 353L245 353Q253 312 254 274L401 274L401 202L252 202Q243 138 210 82L531 82L531 0Z"  horiz-adv-x="558" vert-adv-y="1000"  />

      
      <glyph glyph-name="uni20A7" unicode="&#x20A7;" d="M1066 374Q1031 392 996.50 402Q962 412 934 412Q920 412 906.50 409.50Q893 407 882.50 401Q872 395 865 385Q858 375 858 360Q858 344 866 332Q874 320 887.50 309.50Q901 299 919 290.50Q937 282 957 273Q981 263 1008 250.50Q1035 238 1057 220.50Q1079 203 1093.50 178.50Q1108 154 1108 120Q1108 86 1094 61.50Q1080 37 1057 21Q1034 5 1004-2.50Q974-10 943-10Q908-10 875-1.50Q842 7 811 23Q787 8 763.50-1Q740-10 711-10Q672-10 645 7Q618 24 600.50 52.50Q583 81 575 119.50Q567 158 567 202L567 404L497 404Q475 344 418.50 310.50Q362 277 284 277L182 277L182 0L91 0L91 687L284 687Q334 687 375.50 673Q417 659 447 632Q477 605 493.50 566Q510 527 510 477L567 477L567 605L656 613L656 477L860 477Q879 482 898.50 484.50Q918 487 938 487Q979 487 1019.50 476.50Q1060 466 1096 443L1066 374M646 213Q646 180 649.50 153Q653 126 661.50 107Q670 88 684.50 77.50Q699 67 722 67Q765 67 803 103Q815 96 832.50 89Q850 82 868.50 76.50Q887 71 906.50 67.50Q926 64 943 64Q976 64 997.50 77.50Q1019 91 1019 116Q1019 131 1010.50 143Q1002 155 987.50 165Q973 175 954 184Q935 193 913 202Q888 213 862.50 225.50Q837 238 816 255.50Q795 273 782 297Q769 321 769 355Q769 370 771.50 381.50Q774 393 778 404L646 404L646 213M279 359Q340 359 378 390.50Q416 422 416 482Q416 542 378 573.50Q340 605 279 605L182 605L182 359L279 359Z"  horiz-adv-x="1148" vert-adv-y="1000"  />

      
      <glyph glyph-name="uni20AF" unicode="&#x20AF;" d="M421 619Q373 619 323.50 605.50Q274 592 223 568L189 635Q246 667 304.50 682Q363 697 414 697Q489 697 549.50 668.50Q610 640 652 592Q694 544 717 480.50Q740 417 740 346Q740 281 720.50 217Q701 153 662.50 102.50Q624 52 567.50 21Q511-10 437-10Q380-10 343.50 7Q307 24 281 49Q255 23 222.50 6.50Q190-10 151-10Q121-10 98 0Q75 10 58.50 26.50Q42 43 33.50 65.50Q25 88 25 113Q25 139 34 161.50Q43 184 59.50 200.50Q76 217 99 226Q122 235 149 235Q188 235 218.50 217Q249 199 275 172Q282 186 289 205Q296 224 299 233L421 619M760-232L671-232L810 287Q822 333 844 368.50Q866 404 894 427Q922 450 955 462Q988 474 1022 474Q1059 474 1093.50 460Q1128 446 1154 420Q1180 394 1196 355Q1212 316 1212 267Q1212 218 1195.50 168.50Q1179 119 1146.50 79.50Q1114 40 1065.50 15Q1017-10 953-10Q912-10 881.50 0Q851 10 829 24L760-232M382 221Q376 202 363.50 172.50Q351 143 332 114Q353 96 378.50 84.50Q404 73 439 73Q488 73 526.50 96Q565 119 591.50 157.50Q618 196 632 245Q646 294 646 346Q646 386 637.50 425.50Q629 465 611.50 499.50Q594 534 567 561Q540 588 504 603L382 221M848 94Q871 83 899 76.50Q927 70 951 70Q993 70 1025 88Q1057 106 1078.50 135Q1100 164 1111 199.50Q1122 235 1122 270Q1122 332 1092 363Q1062 394 1023 394Q981 394 945.50 359.50Q910 325 892 259L848 94M195 77Q214 88 231 107Q214 128 197 143Q180 158 157 158Q137 158 124 146Q111 134 111 112Q111 90 124 78.50Q137 67 157 67Q177 67 195 77Z"  horiz-adv-x="1257" vert-adv-y="1000"  />

      
      <glyph glyph-name="uniF639" unicode="&#xF639;" d="M295-90L222-97L222-9Q179-6 133.50 7.50Q88 21 42 50L76 124Q116 100 153 87Q190 74 222 70L222 248Q192 258 163 270.50Q134 283 111 301.50Q88 320 73.50 346.50Q59 373 59 411Q59 448 72.50 475Q86 502 108.50 520.50Q131 539 160.50 549.50Q190 560 222 563L222 626L295 633L295 561Q332 556 367.50 543Q403 530 433 512L400 439Q372 453 345.50 464Q319 475 295 481L295 312Q323 301 351 288.50Q379 276 401 257.50Q423 239 436.50 213Q450 187 450 150Q450 83 407 43.50Q364 4 295-6L295-90M222 484Q193 479 170.50 462Q148 445 148 416Q148 387 169 370Q190 353 222 339L222 484M295 73Q324 81 342.50 99Q361 117 361 145Q361 174 342.50 191Q324 208 295 221L295 73Z"  horiz-adv-x="510" vert-adv-y="1000"  />

      
      <glyph glyph-name="uniF63A" unicode="&#xF63A;" d="M313-86L240-93L240 22Q164 36 124 92Q84 148 84 233Q84 314 123 371Q162 428 240 441L240 550L313 557L313 442Q344 438 371 427Q398 416 421 402L392 335Q367 348 348.50 356Q330 364 313 367L313 96Q333 100 354 108.50Q375 117 397 130L426 62Q400 45 371 35Q342 25 313 21L313-86M240 363Q208 351 189.50 317.50Q171 284 171 233Q171 185 187.50 150Q204 115 240 101L240 363Z"  horiz-adv-x="510" vert-adv-y="1000"  />

      
      <glyph glyph-name="uniF63B" unicode="&#xF63B;" d="M452 0L92 0L86 55Q105 73 117 92.50Q129 112 135 130.50Q141 149 143 166.50Q145 184 145 198Q145 222 142 249L68 249L68 316L132 316Q130 336 128 355.50Q126 375 126 394Q126 427 135 457.50Q144 488 163.50 512Q183 536 215 550.50Q247 565 292 565Q345 565 385.50 546Q426 527 459 500L416 436Q385 460 355.50 473Q326 486 295 486Q279 486 264.50 481.50Q250 477 239.50 466.50Q229 456 222.50 438Q216 420 216 393Q216 375 218 355.50Q220 336 223 316L345 316L345 249L232 249Q235 223 235 199Q235 135 206 78L452 78L452 0Z"  horiz-adv-x="510" vert-adv-y="1000"  />

      
      <glyph glyph-name="uniF63C" unicode="&#xF63C;" d="M413 79L299 79L299 0L211 0L211 79L97 79L97 149L211 149L211 200L97 200L97 270L189 270L27 555L126 555L255 310L386 555L483 555L320 270L413 270L413 200L299 200L299 149L413 149L413 79Z"  horiz-adv-x="510" vert-adv-y="1000"  />

      
      <glyph glyph-name="uniF638" unicode="&#xF638;" d="M483 26Q445 9 408.50-0.50Q372-10 334-10Q241-10 189 42.50Q137 95 123 181L49 181L49 251L117 251L117 302L49 302L49 372L123 372Q137 460 189 512.50Q241 565 334 565Q372 565 408.50 555.50Q445 546 483 529L458 456Q413 476 380 481Q347 486 331 486Q284 486 251 456Q218 426 210 372L368 372L362 302L203 302L203 251L356 251L350 181L210 181Q218 128 251 98.50Q284 69 331 69Q347 69 380 74Q413 79 458 99L483 26Z"  horiz-adv-x="510" vert-adv-y="1000"  />

      
      <glyph glyph-name="uni5e" unicode="&#x5e;" d="M516 322L433 309L279 637L125 309L42 322L227 707L331 707L516 322Z"  horiz-adv-x="558" vert-adv-y="1000"  />

      
      <glyph glyph-name="uni2b" unicode="&#x2b;" d="M489 304L318 304L318 133L240 133L240 304L69 304L69 382L240 382L240 553L318 553L318 382L489 382L489 304Z"  horiz-adv-x="558" vert-adv-y="1000"  />

      
      <glyph glyph-name="uni2212" unicode="&#x2212;" d="M489 304L69 304L69 382L489 382L489 304Z"  horiz-adv-x="558" vert-adv-y="1000"  />

      
      <glyph glyph-name="unib1" unicode="&#xb1;" d="M489 4L69 4L69 82L489 82L489 4M489 334L318 334L318 163L240 163L240 334L69 334L69 412L240 412L240 583L318 583L318 412L489 412L489 334Z"  horiz-adv-x="558" vert-adv-y="1000"  />

      
      <glyph glyph-name="uni3d" unicode="&#x3d;" d="M489 203L69 203L69 281L489 281L489 203M489 409L69 409L69 487L489 487L489 409Z"  horiz-adv-x="558" vert-adv-y="1000"  />

      
      <glyph glyph-name="uni2260" unicode="&#x2260;" d="M489 199L255 199L203 84L119 84L171 199L69 199L69 277L207 277L267 409L69 409L69 487L302 487L355 602L439 602L386 487L489 487L489 409L351 409L291 277L489 277L489 199Z"  horiz-adv-x="558" vert-adv-y="1000"  />

      
      <glyph glyph-name="unif7" unicode="&#xf7;" d="M326 132Q310 115 279 115Q249 115 232.50 132Q216 149 216 175Q216 202 232.50 219Q249 236 279 236Q310 236 326 219Q342 202 342 175Q342 149 326 132M489 304L69 304L69 382L489 382L489 304M326 468Q310 451 279 451Q249 451 232.50 468Q216 485 216 511Q216 538 232.50 555Q249 572 279 572Q310 572 326 555Q342 538 342 511Q342 485 326 468Z"  horiz-adv-x="558" vert-adv-y="1000"  />

      
      <glyph glyph-name="uni3c" unicode="&#x3c;" d="M465 126L80 291L80 395L465 560L478 477L150 343L478 209L465 126Z"  horiz-adv-x="558" vert-adv-y="1000"  />

      
      <glyph glyph-name="uni3e" unicode="&#x3e;" d="M478 291L93 126L80 209L408 343L80 477L93 560L478 395L478 291Z"  horiz-adv-x="558" vert-adv-y="1000"  />

      
      <glyph glyph-name="uni2264" unicode="&#x2264;" d="M489 4L69 4L69 82L489 82L489 4M465 147L80 312L80 416L465 581L478 498L150 364L478 230L465 147Z"  horiz-adv-x="558" vert-adv-y="1000"  />

      
      <glyph glyph-name="uni2265" unicode="&#x2265;" d="M489 4L69 4L69 82L489 82L489 4M478 312L93 147L80 230L408 364L80 498L93 581L478 416L478 312Z"  horiz-adv-x="558" vert-adv-y="1000"  />

      
      <glyph glyph-name="uni7e" unicode="&#x7e;" d="M519 382Q505 355 490 334Q475 313 457.50 298Q440 283 418.50 275Q397 267 369 267Q343 267 316.50 278.50Q290 290 266 304Q243 317 223 327Q203 337 186 337Q156 337 136.50 315.50Q117 294 99 261L39 304Q53 331 68 352Q83 373 100.50 388Q118 403 139.50 411Q161 419 189 419Q215 419 241.50 407.50Q268 396 292 382Q315 369 335 359Q355 349 372 349Q402 349 421.50 370.50Q441 392 459 425L519 382Z"  horiz-adv-x="558" vert-adv-y="1000"  />

      
      <glyph glyph-name="uni2248" unicode="&#x2248;" d="M519 281Q505 254 490 233Q475 212 457.50 197Q440 182 418.50 174Q397 166 369 166Q343 166 316.50 177.50Q290 189 266 203Q243 216 223 226Q203 236 186 236Q156 236 136.50 214.50Q117 193 99 160L39 203Q53 230 68 251Q83 272 100.50 287Q118 302 139.50 310Q161 318 189 318Q215 318 241.50 306.50Q268 295 292 281Q315 268 335 258Q355 248 372 248Q402 248 421.50 269.50Q441 291 459 324L519 281M519 487Q505 460 490 439Q475 418 457.50 403Q440 388 418.50 380Q397 372 369 372Q343 372 316.50 383.50Q290 395 266 409Q243 422 223 432Q203 442 186 442Q156 442 136.50 420.50Q117 399 99 366L39 409Q53 436 68 457Q83 478 100.50 493Q118 508 139.50 516Q161 524 189 524Q215 524 241.50 512.50Q268 501 292 487Q315 474 335 464Q355 454 372 454Q402 454 421.50 475.50Q441 497 459 530L519 487Z"  horiz-adv-x="558" vert-adv-y="1000"  />

      
      <glyph glyph-name="unid7" unicode="&#xd7;" d="M466 211L411 156L279 288L147 156L92 211L224 343L92 475L147 530L279 398L411 530L466 475L334 343L466 211Z"  horiz-adv-x="558" vert-adv-y="1000"  />

      
      <glyph glyph-name="uni2217" unicode="&#x2217;" d="M469 126L395 78L279 276L163 78L89 126L207 307L4 302L4 385L207 380L89 561L163 609L279 411L395 609L469 561L351 380L554 385L554 302L351 307L469 126Z"  horiz-adv-x="558" vert-adv-y="1000"  />

      
      <glyph glyph-name="uni2236" unicode="&#x2236;" d="M186 132Q170 115 139 115Q109 115 92.50 132Q76 149 76 175Q76 202 92.50 219Q109 236 139 236Q170 236 186 219Q202 202 202 175Q202 149 186 132M186 468Q170 451 139 451Q109 451 92.50 468Q76 485 76 511Q76 538 92.50 555Q109 572 139 572Q170 572 186 555Q202 538 202 511Q202 485 186 468Z"  horiz-adv-x="278" vert-adv-y="1000"  />

      
      <glyph glyph-name="uni5f" unicode="&#x5f;" d="M470-155L0-155L0-77L470-77L470-155Z"  horiz-adv-x="470" vert-adv-y="1000"  />

      
      <glyph glyph-name="uni2017" unicode="&#x2017;" d="M470-270L0-270L0-197L470-197L470-270M470-150L0-150L0-77L470-77L470-150Z"  horiz-adv-x="470" vert-adv-y="1000"  />

      
      </font>
</defs>
</svg>
